FantasqueSansMono-Bold.sfdir
StartChar: exclam
Encoding: 33 33 68
Width: 517
VWidth: 0
Flags: HW
HStem: 0 132<171 342> 645 10G<179 333>
VStem: 171 171<0 132> 179 154<257 655> 187 138<210 608>
LayerCount: 2
Fore
SplineSet
333 655 m 1xd0
 325 210 l 1
 187 209 l 1xc8
 179 655 l 1
 333 655 l 1xd0
171 132 m 1xe0
 342 132 l 1
 342 0 l 1
 171 0 l 1
 171 132 l 1xe0
EndSplineSet
EndChar
StartChar: quotedbl
Encoding: 34 34 92
Width: 517
VWidth: -12
Flags: HW
HStem: 393 322
VStem: 92 125<505 715> 298 125<505 715>
LayerCount: 2
Fore
SplineSet
298 715 m 1
 423 715 l 1
 423 577 419 491 402 393 c 1
 305 401 l 1
 310 428 312 470 312 503 c 0
 312 545 309 576 298 603 c 1
 298 715 l 1
92 715 m 1
 217 715 l 1
 217 577 213 491 196 393 c 1
 99 401 l 1
 104 428 106 470 106 503 c 0
 106 545 103 576 92 603 c 1
 92 715 l 1
EndSplineSet
EndChar
StartChar: numbersign
Encoding: 35 35 93
Width: 517
VWidth: 2
Flags: HW
HStem: -9 10G<63 180 242 352> 176 97<20 80 201 261 385 462> 383 95<25 106 226 284 405 465> 642 10G<125 134 315 421>
VStem: 127 112<481 650> 315 111<490 646>
LayerCount: 2
Fore
SplineSet
214 382 m 1
 201 272 l 1
 275 272 l 1
 284 380 l 1
 214 382 l 1
180 -9 m 1
 63 -7 l 1
 66 48 71 93 80 175 c 1
 54 175 34 170 20 166 c 1
 -3 254 l 1
 24 264 62 269 94 271 c 1
 101 310 102 341 106 380 c 1
 98 380 l 1
 66 378 41 376 24 370 c 1
 -2 459 l 1
 30 471 70 474 111 476 c 1
 122 566 123 580 127 651 c 1
 141 651 196 650 215 650 c 0
 224 650 232 650 239 650 c 1
 236 591 233 548 226 478 c 1
 292 476 l 1
 301 556 306 588 315 646 c 1
 427 646 l 1
 415 587 414 555 405 478 c 1
 465 478 l 1
 465 381 l 1
 396 383 l 1
 385 272 l 1
 464 272 l 1
 462 177 l 1
 372 178 l 1
 361 82 356 48 352 -11 c 1
 239 -12 l 1
 244 43 251 90 261 176 c 1
 194 176 l 1
 187 103 180 -9 180 -9 c 1
EndSplineSet
EndChar
StartChar: dollar
Encoding: 36 36 94
Width: 517
VWidth: 0
Flags: HW
HStem: 519 99<166 203>
VStem: 19 119<150 219> 30 125<427 511> 348 123<149 262>
LayerCount: 2
Fore
SplineSet
116 343 m 0xd0
 63 365 30 406 30 478 c 0xb0
 30 567 110 614 204 618 c 1
 200 717 l 1
 322 710 l 1
 311 617 l 1
 379 610 438 574 464 514 c 1
 355 470 l 1
 351 500 331 510 305 514 c 1
 298 392 l 1
 327 382 344 376 368 365 c 1
 419 342 471 295 471 207 c 0
 471 85 385 33 275 31 c 1
 273 -68 l 1
 160 -64 l 1
 170 36 l 1
 57 54 19 136 19 219 c 1
 139 219 l 1
 138 212 138 205 138 199 c 0
 138 166 155 143 178 138 c 1
 189 314 l 1
 169 319 139 333 116 343 c 0xd0
203 519 m 1
 174 519 155 498 155 474 c 0
 155 444 167 426 197 418 c 1
 203 519 l 1
280 128 m 1
 323 134 348 156 348 208 c 0
 348 251 332 263 290 282 c 1
 280 128 l 1
EndSplineSet
EndChar
StartChar: percent
Encoding: 37 37 156
Width: 517
VWidth: 0
Flags: HW
HStem: -7 94<323 374> 191 94<331 384> 353 94<112 165> 551 94<119 173> 662 10G<385 409>
VStem: 0 105<451 539> 178 110<459 549> 211 105<92 181> 389 110<98 189>
LayerCount: 2
Fore
SplineSet
351 87 m 0xfd80
 367 87 389 123 389 148 c 0
 389 178 379 190 357 191 c 0
 356 191 l 0
 340 191 316 157 316 135 c 0
 316 109 331 87 351 87 c 0xfd80
140 447 m 0
 156 447 178 483 178 508 c 0xfe80
 178 538 168 550 146 551 c 0
 145 551 l 0
 129 551 105 517 105 495 c 0
 105 469 120 447 140 447 c 0
11 40 m 1
 124 246 l 2
 171 331 238 385 255 417 c 1
 229 379 188 353 138 353 c 0
 61 353 0 417 0 494 c 0
 0 574 68 644 148 645 c 0
 149 645 151 645 152 645 c 0
 230 645 288 589 288 516 c 0
 288 515 288 514 288 508 c 0xfe80
 288 495 284 476 278 458 c 1
 390 672 l 1
 499 617 l 1
 386 409 l 1
 353 345 280 289 239 220 c 1
 266 259 311 285 359 286 c 0
 360 286 362 286 363 286 c 0
 441 286 499 230 499 157 c 0
 499 156 499 154 499 153 c 0
 497 74 436 -7 349 -7 c 0
 272 -7 211 58 211 135 c 0xfd80
 211 152 214 168 220 184 c 1
 120 -14 l 1
 11 40 l 1
EndSplineSet
EndChar
StartChar: ampersand
Encoding: 38 38 168
Width: 517
VWidth: 0
Flags: HW
HStem: -11 99<158 287> 560 98<166 239>
VStem: 15 122<108 260> 41 116<442 551> 244 119<455 555> 370 107<198 317>
LayerCount: 2
Fore
SplineSet
355 46 m 17xdc
 313 6 264 -11 205 -11 c 0
 103 -11 15 34 15 179 c 0xec
 15 273 63 327 116 370 c 1
 71 412 41 464 41 506 c 0
 41 610 120 658 208 658 c 0
 290 658 362 625 362 528 c 0
 362 434 309 383 255 342 c 1
 360 195 l 1
 366 203 370 218 370 236 c 0
 370 258 365 286 358 318 c 1
 477 318 l 1
 477 177 429 120 429 120 c 1
 483 50 l 25
 401 -16 l 25
 355 46 l 17xdc
173 280 m 1
 151 259 137 217 137 181 c 0
 137 139 151 88 207 88 c 0
 249 88 279 101 295 116 c 1
 173 280 l 1
192 423 m 1
 222 446 244 486 244 516 c 0
 244 537 232 560 205 560 c 0
 177 560 157 535 157 514 c 0xdc
 157 479 170 449 192 423 c 1
EndSplineSet
EndChar
StartChar: quotesingle
Encoding: 39 39 70
Width: 517
VWidth: -12
Flags: HW
HStem: 393 322
VStem: 182 136<514 715>
LayerCount: 2
Fore
SplineSet
182 715 m 1
 318 715 l 1
 318 577 314 491 297 393 c 1
 188 401 l 1
 193 428 198 479 198 512 c 0
 198 554 193 579 182 601 c 1
 182 715 l 1
EndSplineSet
EndChar
StartChar: parenleft
Encoding: 40 40 98
Width: 517
VWidth: 32
Flags: HW
HStem: -128 122<355 436> 610 114<344 436>
VStem: 100 131<148 470>
LayerCount: 2
Fore
SplineSet
436 610 m 1
 435 610 434 610 433 610 c 0
 305 610 231 521 231 301 c 0
 231 85 324 -6 436 -6 c 1
 436 -128 l 1
 260 -127 100 0 100 299 c 0
 100 598 226 719 436 725 c 1
 436 610 l 1
EndSplineSet
EndChar
StartChar: parenright
Encoding: 41 41 99
Width: 517
VWidth: 32
Flags: HW
HStem: -128 122<72 152> 610 114<71 164>
VStem: 276 131<148 470>
LayerCount: 2
Fore
SplineSet
71 610 m 1
 71 725 l 1
 281 719 407 598 407 299 c 0
 407 0 248 -127 72 -128 c 1
 71 -6 l 1
 183 -6 276 85 276 301 c 0
 276 521 202 610 74 610 c 0
 73 610 72 610 71 610 c 1
EndSplineSet
EndChar
StartChar: asterisk
Encoding: 42 42 191
Width: 517
VWidth: 0
Flags: HW
LayerCount: 2
Fore
SplineSet
200 346 m 1
 179 544 l 1
 322 545 l 1
 308 346 l 1
 445 434 l 1
 501 312 l 1
 324 257 l 1
 459 125 l 1
 352 39 l 1
 256 212 l 1
 157 37 l 1
 57 121 l 1
 185 258 l 1
 16 304 l 1
 60 431 l 1
 200 346 l 1
EndSplineSet
EndChar
StartChar: plus
Encoding: 43 43 101
Width: 517
VWidth: 2
Flags: HW
HStem: 0 10G<195 318> 191 115<30 195 318 474> 487 10G<196 316>
VStem: 195 123<0 191 306 497>
LayerCount: 2
Fore
SplineSet
29 301 m 1
 52 305 67 306 99 306 c 0
 105 306 111 306 118 306 c 2
 196 306 l 1
 196 497 l 1
 316 497 l 1
 315 306 l 1
 377 306 404 305 434 305 c 0
 447 305 461 305 474 305 c 1
 474 191 l 1
 467 191 l 2
 464 191 421 191 318 192 c 1
 318 0 l 1
 195 0 l 1
 195 191 l 1
 179 191 165 191 152 191 c 0
 87 191 58 191 30 187 c 1
 29 301 l 1
EndSplineSet
EndChar
StartChar: comma
Encoding: 44 44 54
Width: 517
VWidth: 12
Flags: HW
VStem: 164 158<2 151> 219 103<-81 3>
LayerCount: 2
Fore
SplineSet
162 151 m 1x80
 321 152 l 1
 322 5 l 1
 322 4 l 2x80
 322 -92 280 -175 198 -212 c 1
 150 -124 l 1
 195 -99 219 -64 219 3 c 1x40
 164 2 l 1
 162 151 l 1x80
EndSplineSet
EndChar
StartChar: hyphen
Encoding: 45 45 100
Width: 517
VWidth: 2
Flags: HW
HStem: 192 119<43 476>
LayerCount: 2
Fore
SplineSet
40 310 m 1
 62 311 87 311 111 311 c 0
 160 311 209 310 242 310 c 0
 262 310 281 310 300 310 c 0
 340 310 415 309 467 309 c 1
 476 309 l 1
 476 189 l 1
 467 189 l 1
 401 190 302 190 241 190 c 0
 220 190 176 192 127 192 c 0
 99 192 70 191 43 190 c 1
 43 250 l 1
 40 310 l 1
EndSplineSet
EndChar
StartChar: period
Encoding: 46 46 53
Width: 517
VWidth: 12
Flags: HW
HStem: 0 153<168 322>
VStem: 168 154<0 153>
LayerCount: 2
Fore
SplineSet
168 153 m 1
 322 153 l 1
 322 0 l 1
 168 0 l 1
 168 153 l 1
EndSplineSet
EndChar
StartChar: slash
Encoding: 47 47 104
Width: 517
VWidth: 29
Flags: HW
LayerCount: 2
Fore
SplineSet
31 -24 m 1
 93 111 278 543 344 717 c 1
 450 670 l 1
 383 498 198 65 139 -73 c 1
 31 -24 l 1
EndSplineSet
EndChar
StartChar: zero
Encoding: 48 48 52
Width: 517
VWidth: 0
Flags: HW
HStem: -8 102<204 287> 540 101<211 289>
VStem: 44 125<285 487> 325 124<142 353>
LayerCount: 2
Fore
SplineSet
170 284 m 1
 307 474 l 1
 292 523 285 540 250 540 c 0
 175 540 169 397 169 308 c 0
 169 297 170 284 170 284 c 1
325 354 m 1
 184 162 l 1
 197 116 211 93 244 93 c 0
 321 93 325 216 325 331 c 0
 325 345 325 354 325 354 c 1
251 641 m 0
 411 641 449 476 449 322 c 0
 449 164 414 -8 250 -8 c 0
 82 -8 44 140 44 301 c 0
 44 465 77 641 251 641 c 0
EndSplineSet
EndChar
StartChar: one
Encoding: 49 49 105
Width: 517
VWidth: 0
Flags: HW
HStem: -4 10G<249 375> 636 10G<254 309>
VStem: 249 126<-4 465>
LayerCount: 2
Fore
SplineSet
256 646 m 1
 375 624 l 1
 375 -4 l 1
 249 -4 l 1
 248 465 l 1
 215 423 165 373 102 337 c 1
 31 442 l 1
 181 517 252 639 256 646 c 1
EndSplineSet
EndChar
StartChar: two
Encoding: 50 50 106
Width: 517
VWidth: 0
Flags: HW
HStem: 0 105<203 455> 535 103<190 305>
VStem: 45 125<423 514> 326 121<391 514>
LayerCount: 2
Fore
SplineSet
177 422 m 1
 55 401 l 1
 51 415 46 438 45 456 c 0
 45 460 45 464 45 468 c 0
 45 561 116 638 241 638 c 0
 373 638 447 584 447 452 c 0
 447 355 389 305 350 263 c 1
 323 236 203 132 203 105 c 1
 455 105 l 1
 455 0 l 1
 35 0 l 1
 35 15 34 30 34 46 c 0
 34 59 35 72 37 86 c 0
 46 133 85 183 138 232 c 0
 199 288 326 369 326 452 c 0
 326 509 298 535 248 535 c 0
 212 535 169 513 169 464 c 3
 169 452 171 438 177 422 c 1
EndSplineSet
EndChar
StartChar: three
Encoding: 51 51 107
Width: 517
VWidth: 0
Flags: HW
HStem: -11 104<167 291> 303 98<166 256> 548 97<171 280>
VStem: 26 123<111 164> 294 124<436 534> 325 126<127 254>
LayerCount: 2
Fore
SplineSet
26 164 m 1xf4
 149 164 l 1
 149 107 192 93 231 93 c 0
 290 93 325 139 325 185 c 0xf4
 325 239 303 259 277 276 c 0
 249 295 205 303 166 303 c 1
 166 401 l 1
 174 401 l 2
 237 401 294 430 294 493 c 0
 294 525 268 548 222 548 c 0
 169 548 142 496 133 478 c 1
 32 544 l 1
 34 551 81 645 218 645 c 2
 224 645 l 2
 340 645 418 609 418 501 c 0xf8
 418 439 369 369 321 360 c 1
 410 331 451 268 451 185 c 0
 451 118 435 82 396 43 c 0
 361 8 306 -11 228 -11 c 0
 90 -11 26 64 26 164 c 1xf4
EndSplineSet
EndChar
StartChar: four
Encoding: 52 52 108
Width: 517
VWidth: 0
Flags: HW
HStem: 0 10G<280 405> 192 103<155 280 405 467> 629 10G<284 405>
VStem: 280 125<0 190 294 453 579 638>
LayerCount: 2
Fore
SplineSet
280 294 m 1
 280 453 l 1
 244 390 195 335 155 293 c 1
 280 294 l 1
15 272 m 1
 32 294 245 508 284 638 c 1
 405 639 l 1
 405 294 l 1
 467 294 l 1
 467 192 l 1
 405 192 l 1
 405 0 l 1
 280 0 l 1
 280 190 l 1
 59 189 l 1
 15 272 l 1
EndSplineSet
EndChar
StartChar: five
Encoding: 53 53 109
Width: 517
VWidth: 0
Flags: HW
HStem: -1 104<177 284> 346 93<182 283> 532 97<189 404>
VStem: 323 128<141 302>
LayerCount: 2
Fore
SplineSet
230 346 m 0
 171 346 145 302 138 292 c 1
 45 331 l 1
 74 629 l 1
 404 628 l 1
 404 532 l 1
 189 532 l 1
 182 435 l 1
 182 435 201 439 239 439 c 0
 267 439 305 437 338 421 c 1
 392 392 451 346 451 219 c 0
 451 64 347 0 230 -1 c 1
 229 -1 l 2
 137 -1 73 36 34 114 c 1
 146 168 l 1
 160 130 189 103 229 103 c 0
 273 103 323 134 323 220 c 0
 323 298 280 346 230 346 c 0
EndSplineSet
EndChar
StartChar: six
Encoding: 54 54 110
Width: 517
VWidth: 0
Flags: HW
HStem: -1 99<190 291> 290 98<189 299> 540 110<301 385>
VStem: 31 128<131 257> 325 124<133 264>
LayerCount: 2
Fore
SplineSet
410 540 m 1
 306 530 230 509 186 423 c 0
 171 394 167 360 166 346 c 1
 166 346 198 388 257 388 c 0
 386 388 449 312 449 199 c 0
 449 75 366 -1 238 -1 c 0
 111 -1 31 103 31 246 c 0
 31 490 149 626 384 650 c 1
 410 540 l 1
160 240 m 1
 160 146 181 98 241 98 c 0
 283 98 325 137 325 198 c 0
 325 256 289 290 257 290 c 0
 206 290 182 272 160 240 c 1
EndSplineSet
EndChar
StartChar: seven
Encoding: 55 55 111
Width: 517
VWidth: 0
Flags: HW
HStem: 0 10G<144 271> 522 105<147 363>
VStem: 144 127<0 162>
LayerCount: 2
Fore
SplineSet
74 631 m 1
 115 631 167 628 205 628 c 0
 279 628 359 631 429 631 c 2
 449 631 l 1
 498 552 l 1
 352 323 271 222 271 0 c 1
 144 0 l 1
 144 199 222 329 363 524 c 1
 321 523 270 522 226 522 c 0
 195 522 183 523 152 524 c 1
 151 524 145 491 143 473 c 1
 19 504 l 1
 28 533 58 599 74 631 c 1
EndSplineSet
EndChar
StartChar: eight
Encoding: 56 56 112
Width: 517
VWidth: 0
Flags: HW
HStem: -4 104<185 308> 533 99<185 308>
VStem: 26 126<132 250> 55 122<435 523> 316 122<435 523> 341 126<132 250>
LayerCount: 2
Fore
SplineSet
247 99 m 0xe4
 281 99 341 122 341 189 c 0
 341 229 311 280 247 309 c 1
 183 280 152 229 152 189 c 0
 152 122 213 99 247 99 c 0xe4
247 410 m 1
 300 421 316 461 316 483 c 0
 316 529 279 533 247 533 c 0
 215 533 177 529 177 483 c 0xd8
 177 461 194 421 247 410 c 1
247 631 m 0
 374 631 438 573 438 481 c 0xd8
 438 431 397 372 354 359 c 1
 414 334 467 274 467 185 c 0
 467 69 373 -4 247 -4 c 0
 121 -4 26 69 26 185 c 0xe4
 26 274 80 334 140 359 c 1
 97 372 55 431 55 481 c 0
 55 573 120 631 247 631 c 0
EndSplineSet
EndChar
StartChar: nine
Encoding: 57 57 113
Width: 517
VWidth: 0
Flags: HW
HStem: -1 101<174 293> 285 98<186 312> 540 96<181 293>
VStem: 33 125<412 518> 338 124<157 398>
LayerCount: 2
Fore
SplineSet
238 540 m 1
 184 540 158 501 158 468 c 0
 158 415 198 383 243 383 c 0
 290 383 314 404 333 425 c 1
 325 498 289 540 238 540 c 1
33 466 m 0
 33 564 116 636 234 636 c 0
 426 636 461 494 461 314 c 0
 461 156 424 0 238 -1 c 0
 236 -1 l 0
 117 -1 45 53 13 151 c 1
 135 192 l 1
 157 121 184 100 240 100 c 0
 307 100 338 173 338 284 c 0
 338 292 337 308 337 308 c 1
 324 298 297 285 234 285 c 0
 130 285 33 356 33 466 c 0
EndSplineSet
EndChar
StartChar: less
Encoding: 60 60 102
Width: 517
VWidth: 1
Flags: HW
LayerCount: 2
Fore
SplineSet
456 76 m 1
 375 -24 l 1
 363 -6 337 16 314 35 c 1
 268 74 70 184 57 193 c 1
 56 303 l 1
 133 366 285 477 350 515 c 0
 365 523 375 530 392 535 c 1
 455 434 l 1
 376 392 269 310 191 250 c 1
 261 201 417 137 456 76 c 1
EndSplineSet
EndChar
StartChar: equal
Encoding: 61 61 114
Width: 517
VWidth: 2
Flags: HW
HStem: 86 106<27 439> 306 108<27 437>
LayerCount: 2
Fore
SplineSet
26 192 m 1
 94 196 149 196 205 196 c 0
 292 196 357 192 439 192 c 1
 439 83 l 1
 354 83 284 85 195 85 c 0
 171 85 146 86 121 86 c 0
 92 86 60 85 27 83 c 1
 26 192 l 1
23 420 m 1
 93 416 147 415 193 415 c 0
 287 415 340 419 437 419 c 1
 438 312 l 1
 344 312 289 306 193 306 c 0
 146 306 94 310 23 314 c 1
 23 329 22 353 22 376 c 0
 22 393 23 409 23 420 c 1
EndSplineSet
EndChar
StartChar: greater
Encoding: 62 62 103
Width: 517
VWidth: 1
Flags: HW
LayerCount: 2
Fore
SplineSet
55 77 m 1
 94 138 249 203 319 252 c 1
 241 312 135 394 56 436 c 1
 119 537 l 1
 136 532 146 524 161 516 c 0
 226 478 378 368 455 305 c 1
 454 194 l 1
 441 185 242 75 196 36 c 1
 173 17 148 -4 136 -22 c 1
 55 77 l 1
EndSplineSet
EndChar
StartChar: question
Encoding: 63 63 119
Width: 517
VWidth: 0
Flags: HW
HStem: 0 132<153 325> 563 94<189 307>
VStem: 42 126<421 542> 153 172<0 132> 170 133<210 299> 327 123<436 542>
LayerCount: 2
Fore
SplineSet
153 132 m 1xd4
 325 132 l 1
 325 0 l 1
 153 0 l 1
 153 132 l 1xd4
245 657 m 0
 370 657 449 594 449 484 c 0
 449 401 399 368 357 334 c 0
 329 311 303 277 303 234 c 2
 303 210 l 1
 170 210 l 1
 170 232 l 2
 170 303 218 358 252 388 c 0
 292 424 327 443 327 485 c 0
 327 530 303 563 250 563 c 0
 200 563 169 539 168 486 c 0
 168 467 181 449 191 436 c 1
 84 363 l 1
 62 394 42 428 42 472 c 0xec
 42 598 133 657 245 657 c 0
EndSplineSet
EndChar
StartChar: at
Encoding: 64 64 163
Width: 517
VWidth: 2
Flags: HW
HStem: -124 98<211 368> -12 10G<346 364> 79 98<276 341> 321 98<280 355> 535 100<206 326>
VStem: 11 110<97 411> 162 107<181 312> 364 107<200 312 390 492>
LayerCount: 2
Back
SplineSet
317.3828125 102.05078125 m 4
 342.28515625 102.05078125 357.91015625 152.34375 359.375 160.64453125 c 5
 359.375 184.08203125 l 5
 349.609375 203.61328125 332.03125 218.75 323.2421875 218.75 c 4
 303.7109375 218.75 285.15625 202.1484375 285.15625 162.59765625 c 6
 285.15625 157.2265625 l 5
 286.1328125 110.83984375 296.875 102.05078125 317.3828125 102.05078125 c 4
359.375 307.12890625 m 5
 359.375 356.93359375 l 5
 359.375 379.8828125 330.56640625 402.83203125 299.8046875 402.83203125 c 4
 276.3671875 402.83203125 251.953125 389.16015625 240.234375 351.5625 c 5
 158.203125 389.16015625 l 5
 190.4296875 473.6328125 243.1640625 502.44140625 290.0390625 502.44140625 c 7
 322.75390625 502.44140625 355.46875 487.3046875 364.2578125 476.07421875 c 5
 364.2578125 476.07421875 341.796875 575.1953125 257.8125 575.1953125 c 4
 170.8984375 575.1953125 107.421875 441.89453125 107.421875 252.9296875 c 4
 107.421875 64.453125 199.70703125 -90.33203125 291.9921875 -90.33203125 c 4
 327.63671875 -90.33203125 354.4921875 -77.1484375 370.1171875 -66.89453125 c 5
 415.0390625 -156.25 l 5
 392.578125 -170.41015625 346.6796875 -185.546875 290.0390625 -185.546875 c 4
 133.30078125 -185.546875 5.859375 -34.66796875 5.859375 262.6953125 c 4
 5.859375 546.875 119.140625 676.26953125 252.9296875 676.26953125 c 4
 440.91796875 676.26953125 469.7265625 487.3046875 469.7265625 344.23828125 c 5
 469.7265625 113.76953125 l 5
 469.7265625 73.2421875 493.1640625 32.2265625 493.1640625 32.2265625 c 5
 393.5546875 -10.7421875 l 5
 378.90625 38.0859375 l 5
 378.90625 38.0859375 355.46875 -4.39453125 274.4140625 -4.39453125 c 4
 200.1953125 -4.39453125 176.7578125 76.171875 176.7578125 150.390625 c 4
 176.7578125 195.3125 185.05859375 238.28125 197.265625 258.7890625 c 4
 227.5390625 310.546875 264.6484375 325.68359375 297.8515625 327.1484375 c 4
 298.828125 327.1484375 299.8046875 327.1484375 300.78125 327.1484375 c 4
 321.2890625 327.1484375 348.6328125 313.96484375 359.375 307.12890625 c 5
EndSplineSet
Fore
SplineSet
269 242 m 0
 269 204 280 177 301 177 c 0
 349 177 355 235 364 259 c 1
 364 292 l 1
 340 313 338 321 314 321 c 0
 290 321 269 301 269 242 c 0
392 130 m 1
 363 99 354 79 292 79 c 0
 209 79 162 156 162 237 c 0
 162 342 210 419 300 419 c 0
 334 419 347 407 364 390 c 1
 364 460 348 535 270 535 c 0
 189 535 121 450 121 244 c 0
 121 94 173 -26 283 -26 c 0
 306 -26 332 -20 360 -2 c 1
 397 -96 l 1
 358 -117 311 -124 277 -124 c 0
 87 -124 11 71 11 242 c 0
 11 489 117 635 269 635 c 0
 415 635 471 511 471 409 c 2
 471 248 l 2
 471 243 471 239 471 234 c 0
 471 197 474 169 501 129 c 1
 412 83 l 1
 402 101 400 104 392 130 c 1
EndSplineSet
EndChar
StartChar: A
Encoding: 65 65 26
Width: 517
VWidth: 0
Flags: HW
HStem: 0 10G<3 131 366 501> 137 109<191 318> 637 10G<201 316>
VStem: 3 127<0 85> 366 135<0 110>
AnchorPoint: "above_accent" 250 646 basechar 0
LayerCount: 2
Fore
SplineSet
318 246 m 1
 305 316 256 412 256 487 c 1
 253 405 208 305 189 237 c 1
 218 243 277 244 318 246 c 1
204 647 m 1
 313 647 l 1
 477 119 l 2
 489 79 501 39 501 0 c 1
 366 0 l 1
 366 29 361 56 354 82 c 2
 338 137 l 1
 264 136 223 138 164 123 c 1
 149 79 l 2
 139 49 131 21 130 0 c 1
 3 0 l 1
 5 30 16 70 29 109 c 2
 204 647 l 1
EndSplineSet
EndChar
StartChar: B
Encoding: 66 66 27
Width: 517
VWidth: 0
Flags: HW
HStem: -2 96<152 306> 311 97<155 239> 548 99<155 248>
VStem: 32 124<95 311 407 545> 259 126<427 537> 347 126<136 275>
LayerCount: 2
Fore
SplineSet
32 409 m 0xf4
 32 495 30 576 26 639 c 1
 66 642 135 647 190 647 c 0
 193 647 196 647 199 647 c 0
 307 647 385 602 385 495 c 0xf8
 385 425 360 402 323 382 c 1
 403 360 473 309 473 199 c 0
 473 52 388 11 306 1 c 0
 287 -1 267 -2 248 -2 c 0
 212 -2 184 0 142 0 c 0
 136 0 130 0 123 0 c 2
 28 0 l 1
 28 97 32 202 32 409 c 0xf4
259 494 m 2
 259 547 217 548 206 548 c 0
 204 548 l 2
 196 548 l 2
 177 548 169 547 154 546 c 1
 155 529 156 510 156 490 c 0
 156 464 155 435 155 407 c 1
 160 407 167 407 174 407 c 0
 210 407 259 413 259 490 c 2
 259 494 l 2
234 312 m 0
 210 312 212 311 176 311 c 2
 154 311 l 1
 153 193 152 135 152 97 c 1
 176 96 195 94 214 94 c 0
 229 94 243 95 260 97 c 0
 276 99 347 116 347 205 c 0xf4
 347 289 293 312 234 312 c 0
EndSplineSet
EndChar
StartChar: C
Encoding: 67 67 28
Width: 517
VWidth: 0
Flags: HW
HStem: -1 98<216 332> 551 100<223 334>
VStem: 27 128<181 457>
AnchorPoint: "above_accent" 274 646 basechar 0
LayerCount: 2
Fore
SplineSet
276 551 m 0
 220 551 155 485 155 307 c 0
 155 173 212 97 264 97 c 2
 271 97 l 1
 332 97 350 128 373 191 c 1
 493 125 l 1
 457 48 374 -1 281 -1 c 2
 279 -1 l 2
 225 -1 161 11 115 57 c 1
 56 118 27 200 27 311 c 0
 27 437 67 515 92 553 c 0
 127 606 194 650 279 650 c 0
 347 650 433 620 476 541 c 1
 362 479 l 1
 338 540 318 551 276 551 c 0
EndSplineSet
EndChar
StartChar: D
Encoding: 68 68 29
Width: 517
VWidth: 0
Flags: HW
HStem: -5 100<158 284> 550 100<160 254>
VStem: 37 123<97 549> 343 130<158 422>
AnchorPoint: "above_accent" 216 646 basechar 0
LayerCount: 2
Fore
SplineSet
197 550 m 2
 182 550 l 2
 174 550 168 550 160 549 c 1
 160 536 161 521 161 506 c 0
 161 475 160 466 160 432 c 0
 160 283 158 145 158 97 c 1
 201 96 178 95 207 95 c 0
 208 95 l 0
 228 95 298 96 330 172 c 0
 339 194 343 239 343 266 c 0
 343 452 273 550 197 550 c 2
34 62 m 1
 34 89 37 283 37 440 c 2
 37 477 l 2
 37 540 35 600 31 643 c 1
 71 647 93 650 141 650 c 0
 285 650 344 616 409 521 c 1
 450 459 473 371 473 283 c 0
 473 121 391 10 273 -1 c 0
 246 -3 221 -5 194 -5 c 0
 153 -5 89 -1 33 -1 c 1
 33 16 33 14 34 62 c 1
EndSplineSet
EndChar
StartChar: E
Encoding: 69 69 30
Width: 517
VWidth: 0
Flags: HW
HStem: 0 100<175 439> 315 99<176 341> 546 100<176 434>
VStem: 50 126<100 315 415 546>
AnchorPoint: "above_accent" 231 646 basechar 0
LayerCount: 2
Fore
SplineSet
50 644 m 1
 77 646 111 646 149 646 c 0
 164 646 180 646 197 646 c 2
 251 646 l 2
 324 646 390 645 426 645 c 2
 434 645 l 1
 434 546 l 1
 176 546 l 1
 176 415 l 1
 341 415 l 1
 341 315 l 1
 176 315 l 1
 176 300 l 2
 176 199 175 139 175 100 c 1
 378 101 l 2
 405 101 439 114 439 114 c 1
 474 17 l 1
 451 11 431 0 383 0 c 2
 50 0 l 1
 50 644 l 1
EndSplineSet
EndChar
StartChar: F
Encoding: 70 70 31
Width: 517
VWidth: 0
Flags: HW
HStem: 0 10G<57 187> 313 105<184 346> 544 102<184 441>
VStem: 57 127<1 312 418 544>
LayerCount: 2
Fore
SplineSet
187 0 m 1
 57 1 l 1
 57 646 l 1
 391 646 l 1
 441 646 462 638 479 630 c 1
 441 531 l 1
 428 538 418 544 370 544 c 1
 336 544 l 2
 285 544 273 544 184 544 c 1
 184 418 l 1
 243 418 224 419 284 419 c 0
 328 419 360 410 380 401 c 1
 347 303 l 1
 329 311 304 313 282 313 c 0
 261 313 251 313 241 313 c 0
 226 313 216 313 184 312 c 1
 184 252 187 46 187 0 c 1
EndSplineSet
EndChar
StartChar: G
Encoding: 71 71 32
Width: 517
VWidth: 0
Flags: HW
HStem: -4 101<195 317> 277 101<214 355> 547 101<206 334>
VStem: 10 127<171 455> 355 129<142 277>
AnchorPoint: "above_accent" 266 646 basechar 0
LayerCount: 2
Fore
SplineSet
420 377 m 0
 442 377 463 378 484 380 c 1
 484 286 l 2
 484 69 424 24 337 1 c 1
 315 -4 285 -4 264 -4 c 0
 86 -4 10 140 10 313 c 0
 10 431 36 528 100 591 c 1
 149 635 204 648 260 648 c 2
 270 648 l 1
 374 646 446 604 483 523 c 1
 369 466 l 1
 351 524 328 547 264 547 c 0
 182 547 137 449 137 308 c 0
 137 179 175 97 259 97 c 0
 343 97 355 182 355 277 c 1
 324 277 l 0
 289 277 256 275 212 258 c 1
 192 357 l 1
 239 375 290 378 339 378 c 0
 366 378 394 377 420 377 c 0
EndSplineSet
EndChar
StartChar: H
Encoding: 72 72 33
Width: 517
VWidth: 0
Flags: HW
HStem: 0 10G<29 155 330 454> 292 105<157 330> 636 7G<29 155 329 454>
VStem: 29 125<0 283 383 645> 330 125<0 292 397 643>
AnchorPoint: "above_accent" 241 646 basechar 0
LayerCount: 2
Fore
SplineSet
155 646 m 1
 154 383 l 1
 199 393 228 397 287 397 c 2
 330 397 l 1
 330 534 329 562 329 643 c 1
 454 643 l 1
 454 0 l 1
 330 0 l 1
 330 292 l 1
 314 292 l 0
 243 292 212 291 154 278 c 1
 154 107 155 90 155 0 c 1
 29 0 l 1
 29 645 l 1
 155 646 l 1
EndSplineSet
EndChar
StartChar: I
Encoding: 73 73 50
Width: 517
VWidth: 0
Flags: HW
HStem: -1 108<65 179 304 414> 543 104<67 179 304 416>
VStem: 179 125<107 546>
AnchorPoint: "above_accent" 240 646 basechar 0
LayerCount: 2
Fore
SplineSet
64 646 m 1
 140 648 190 649 237 649 c 0
 288 649 337 648 417 647 c 1
 416 544 l 1
 356 544 350 547 304 547 c 1
 304 107 l 1
 326 107 319 107 344 107 c 0
 366 107 389 106 414 105 c 1
 415 -0 l 1
 373 2 343 2 312 2 c 0
 289 2 265 2 236 2 c 0
 200 2 141 -1 65 -1 c 1
 65 104 l 1
 107 106 125 106 153 106 c 2
 179 106 l 1
 179 546 l 1
 147 546 119 546 67 543 c 1
 64 646 l 1
EndSplineSet
EndChar
StartChar: J
Encoding: 74 74 51
Width: 517
VWidth: 0
Flags: HW
HStem: -4 104<164 245> 541 105<145 267 395 465>
VStem: 11 127<129 212> 279 127<146 537>
AnchorPoint: "above_accent" 289 646 basechar 0
LayerCount: 2
Fore
SplineSet
202 -4 m 0
 68 -4 12 105 11 212 c 1
 138 212 l 1
 141 137 167 100 199 100 c 0
 257 100 279 162 279 328 c 0
 279 375 271 472 265 540 c 1
 241 540 232 541 214 541 c 1
 163 540 158 535 145 532 c 1
 126 636 l 1
 141 639 156 645 214 646 c 1
 285 646 391 646 467 646 c 1
 465 540 l 1
 442 540 419 542 395 542 c 1
 403 453 406 383 406 321 c 0
 406 145 363 -4 202 -4 c 0
EndSplineSet
EndChar
StartChar: K
Encoding: 75 75 34
Width: 517
VWidth: 0
Flags: HW
HStem: 0 10G<41 167> 642 10G<41 167 385 404>
VStem: 41 126<0 254 425 652>
AnchorPoint: "cedilla_accent" 246 0 basechar 0
AnchorPoint: "above_accent" 240 646 basechar 0
LayerCount: 2
Fore
SplineSet
287 382 m 1
 346 324 486 113 511 46 c 1
 396 -16 l 1
 374 38 272 217 209 280 c 1
 209 280 182 250 167 215 c 1
 167 0 l 1
 41 0 l 1
 41 652 l 1
 167 652 l 1
 167 425 l 1
 217 496 376 654 394 672 c 1
 489 585 l 1
 400 519 316 418 287 382 c 1
EndSplineSet
EndChar
StartChar: L
Encoding: 76 76 35
Width: 517
VWidth: 0
Flags: HW
HStem: -1 103<202 464> 637 10G<77 202>
VStem: 77 125<101 647>
AnchorPoint: "cedilla_accent" 263 0 basechar 0
AnchorPoint: "above_accent" 136 646 basechar 0
LayerCount: 2
Fore
SplineSet
77 -1 m 1
 77 647 l 1
 202 647 l 1
 202 101 l 1
 410 101 l 2
 439 102 444 104 465 111 c 1
 500 15 l 1
 477 7 448 -1 411 -1 c 2
 77 -1 l 1
EndSplineSet
EndChar
StartChar: M
Encoding: 77 77 36
Width: 517
VWidth: 15
Flags: HW
HStem: 0 10G<30 152 342 463> 636 10G<30 148 337 462>
VStem: 30 122<0 438> 341 121<0 438>
LayerCount: 2
Fore
SplineSet
30 646 m 1
 130 646 l 1
 167 590 215 498 245 407 c 1
 271 496 316 581 356 646 c 1
 462 646 l 1
 462 452 463 0 463 0 c 1
 342 0 l 1
 341 291 l 2
 341 342 354 438 354 438 c 1
 323 378 288 287 283 269 c 1
 210 268 l 1
 210 268 160 398 137 438 c 1
 137 438 152 346 152 291 c 2
 152 0 l 1
 30 0 l 1
 30 646 l 1
EndSplineSet
EndChar
StartChar: N
Encoding: 78 78 37
Width: 517
VWidth: 0
Flags: HW
HStem: 0 10G<37 157 315 459> 637 10G<37 140 340 461>
VStem: 37 120<-1 380> 340 120<0 48 246 648>
AnchorPoint: "cedilla_accent" 248 0 basechar 0
AnchorPoint: "above_accent" 239 646 basechar 0
LayerCount: 2
Fore
SplineSet
337 0 m 1
 293 126 221 273 156 380 c 1
 156 278 l 2
 156 132 157 75 157 -1 c 1
 37 -1 l 1
 37 647 l 1
 140 644 l 1
 202 552 316 360 340 246 c 1
 336 380 l 0
 336 473 338 564 342 649 c 1
 461 648 l 1
 458 592 458 518 458 437 c 0
 458 324 459 198 459 83 c 0
 459 55 459 26 459 0 c 1
 337 0 l 1
EndSplineSet
EndChar
StartChar: O
Encoding: 79 79 38
Width: 517
VWidth: 0
Flags: HW
HStem: -8 99<189 297> 560 99<203 301>
VStem: 18 127<144 471> 351 127<167 481>
AnchorPoint: "above_accent" 251 646 basechar 0
LayerCount: 2
Fore
SplineSet
255 659 m 1
 334 659 476 624 478 316 c 1
 478 311 l 2
 478 229 462 152 439 106 c 0
 402 34 330 -8 249 -8 c 0
 189 -8 117 12 77 62 c 0
 33 117 18 193 18 283 c 0
 18 455 47 533 81 580 c 0
 113 625 179 658 255 659 c 1
171 135 m 0
 194 99 213 91 249 91 c 0
 288 91 312 121 327 159 c 1
 340 188 351 264 351 312 c 1
 351 321 l 2
 351 373 347 446 329 493 c 0
 309 545 283 560 254 560 c 0
 222 560 205 548 185 513 c 0
 162 472 145 408 145 289 c 0
 145 242 151 167 171 135 c 0
EndSplineSet
EndChar
StartChar: P
Encoding: 80 80 39
Width: 517
VWidth: 0
Flags: HW
HStem: 0 10G<51 173> 214 102<173 306> 545 103<174 324>
VStem: 51 122<0 216 317 543> 349 128<359 521>
LayerCount: 2
Fore
SplineSet
349 444 m 0
 349 544 291 545 251 545 c 0
 247 545 l 1
 217 545 196 543 174 543 c 1
 174 508 l 2
 174 417 173 317 173 317 c 1
 191 317 208 316 224 316 c 0
 281 316 349 330 349 444 c 0
173 0 m 1
 51 0 l 1
 51 645 l 1
 109 645 127 648 192 648 c 0
 302 648 385 642 441 573 c 0
 467 541 477 496 477 451 c 0
 477 293 416 214 248 214 c 0
 225 214 199 215 173 216 c 1
 173 85 173 78 173 0 c 1
EndSplineSet
EndChar
StartChar: Q
Encoding: 81 81 40
Width: 517
VWidth: 0
Flags: HW
HStem: -89 105<381 475> -1 98<190 276> 156 106<185 267> 544 105<190 293>
VStem: 24 119<212 483> 343 117<200 483>
LayerCount: 2
Fore
SplineSet
435 -89 m 0xbc
 379 -89 301 -59 288 4 c 1
 274 0 265 -1 245 -1 c 0x7c
 188 -1 136 19 97 60 c 0
 48 112 24 203 24 313 c 0
 24 416 39 512 85 573 c 0
 130 633 179 650 239 650 c 0
 321 650 377 617 416 547 c 0
 458 471 460 393 460 338 c 0
 460 231 441 106 376 57 c 1
 381 21 390 16 429 16 c 1
 434 16 l 2
 452 16 463 18 475 21 c 1
 476 -86 l 1
 465 -88 457 -89 435 -89 c 0xbc
238 262 m 0
 294 262 321 233 337 197 c 1
 343 217 343 262 343 333 c 0
 343 337 343 341 343 345 c 0
 343 390 342 441 319 489 c 0
 303 523 275 544 240 544 c 0
 177 544 144 471 144 345 c 0
 144 335 144 323 144 312 c 0
 144 288 144 235 155 209 c 1
 174 242 203 262 238 262 c 0
276 103 m 1
 276 105 l 0
 276 122 265 156 231 156 c 0
 215 156 196 151 183 132 c 1
 190 107 220 97 239 97 c 0
 242 97 246 97 248 97 c 0
 257 97 268 99 276 103 c 1
EndSplineSet
EndChar
StartChar: R
Encoding: 82 82 41
Width: 517
VWidth: 0
Flags: HW
HStem: 0 10G<44 163> 549 100<163 302>
VStem: 44 119<0 272 367 548> 345 128<376 511>
AnchorPoint: "cedilla_accent" 258 0 basechar 0
AnchorPoint: "above_accent" 251 646 basechar 0
LayerCount: 2
Fore
SplineSet
341 270 m 1
 379 209 430 135 457 103 c 1
 466 95 489 77 510 72 c 1
 450 -21 l 1
 422 -17 393 7 376 28 c 1
 329 81 247 212 220 259 c 1
 202 260 184 263 163 272 c 1
 163 0 l 1
 44 0 l 1
 44 555 l 2
 44 588 44 612 42 642 c 1
 63 644 118 649 148 649 c 0
 270 649 377 645 437 570 c 0
 460 541 473 495 473 453 c 0
 473 344 411 280 341 270 c 1
345 442 m 0
 345 525 288 549 193 549 c 0
 180 549 177 548 163 548 c 1
 163 375 l 1
 194 362 223 354 244 354 c 0
 245 354 247 354 248 354 c 1
 331 354 345 392 345 442 c 0
EndSplineSet
EndChar
StartChar: S
Encoding: 83 83 42
Width: 517
VWidth: 0
Flags: HW
HStem: -4 102<179 323> 546 103<169 297>
VStem: 13 130<131 205> 25 131<443 530> 350 126<125 247>
AnchorPoint: "cedilla_accent" 248 0 basechar 0
AnchorPoint: "above_accent" 241 646 basechar 0
LayerCount: 2
Fore
SplineSet
113 343 m 1xe8
 59 367 25 412 25 491 c 0
 25 598 104 648 229 648 c 0
 230 648 233 648 234 648 c 0
 351 648 447 608 469 526 c 1
 335 477 l 1
 313 526 271 546 237 546 c 1
 195 546 156 528 156 495 c 1xd8
 156 447 183 436 211 425 c 0
 271 402 307 397 371 367 c 1
 424 341 476 290 476 193 c 0
 476 47 371 -4 254 -4 c 2
 245 -4 l 1
 73 0 13 95 13 206 c 1
 143 205 l 1
 143 135 174 98 248 98 c 0
 301 98 350 116 350 187 c 0
 350 240 316 267 277 284 c 0
 220 309 178 313 113 343 c 1xe8
EndSplineSet
EndChar
StartChar: T
Encoding: 84 84 43
Width: 517
VWidth: 0
Flags: HW
HStem: 0 10G<173 300> 546 101<19 173 300 444>
VStem: 173 127<0 546>
AnchorPoint: "cedilla_accent" 230 0 basechar 0
AnchorPoint: "above_accent" 230 646 basechar 0
LayerCount: 2
Fore
SplineSet
173 0 m 1
 173 546 l 1
 76 546 56 545 19 545 c 1
 19 646 l 1
 79 646 300 647 392 647 c 0
 428 647 462 642 474 639 c 1
 444 540 l 1
 444 540 419 546 390 546 c 2
 300 546 l 1
 300 0 l 1
 173 0 l 1
EndSplineSet
EndChar
StartChar: U
Encoding: 85 85 44
Width: 517
VWidth: 0
Flags: HW
HStem: -5 103<192 296> 649 0G<33 160 340 431>
VStem: 33 123<142 649> 338 125<150 646>
AnchorPoint: "above_accent" 245 646 basechar 0
LayerCount: 2
Fore
SplineSet
342 659 m 1
 466 646 l 1
 463 622 462 604 462 583 c 0
 462 579 462 574 462 569 c 0
 462 497 463 433 463 378 c 2
 463 350 l 2
 463 234 461 123 406 59 c 0
 366 12 303 -3 240 -5 c 1
 90 -5 42 78 33 223 c 0
 31 261 30 321 30 388 c 0
 30 473 31 570 34 649 c 1
 160 649 l 1
 158 567 156 455 156 363 c 0
 156 339 156 315 156 294 c 0
 156 263 157 237 159 219 c 0
 166 173 171 100 239 98 c 1
 337 102 338 211 338 351 c 0
 338 413 336 485 336 569 c 0
 336 604 337 628 342 659 c 1
EndSplineSet
EndChar
StartChar: V
Encoding: 86 86 45
Width: 517
VWidth: 0
Flags: HW
HStem: 0 10G<174 331> 652 10G<91 142 363 415>
VStem: 180 147<0 102>
LayerCount: 2
Fore
SplineSet
180 0 m 1
 168 96 48 507 2 618 c 1
 117 662 l 1
 166 537 208 346 256 162 c 1
 292 318 338 534 387 658 c 1
 498 620 l 1
 450 505 336 100 327 0 c 1
 180 0 l 1
EndSplineSet
EndChar
StartChar: W
Encoding: 87 87 46
Width: 517
VWidth: 0
Flags: HW
HStem: 0 10G<65 194 304 432> 645 10G<42 127 384 450>
VStem: 6 115<454 641> 75 118<0 98>
AnchorPoint: "above_accent" 252 646 basechar 0
LayerCount: 2
Back
SplineSet
162.109375 0 m 5
 98.14453125 0 l 5
 77.1484375 83.0078125 25.390625 505.37109375 2.9296875 627.9296875 c 5
 78.125 643.5546875 l 5
 136.71875 329.58984375 120.1171875 296.875 141.6015625 145.5078125 c 5
 175.78125 257.8125 209.47265625 432.6171875 212.40234375 467.28515625 c 5
 234.375 467.28515625 277.34375 467.28515625 293.9453125 473.14453125 c 5
 311.5234375 379.8828125 334.9609375 236.81640625 363.28125 146.484375 c 5
 379.39453125 285.64453125 361.81640625 304.6875 423.828125 642.08984375 c 5
 499.51171875 625.48828125 l 5
 474.12109375 502.9296875 423.828125 86.9140625 407.71484375 0 c 5
 341.30859375 0 l 5
 341.30859375 0 270.01953125 209.47265625 254.39453125 299.31640625 c 5
 231.4453125 189.453125 166.015625 10.7421875 162.109375 0 c 5
EndSplineSet
Fore
SplineSet
193 0 m 1xd0
 75 0 l 1xd0
 54 84 28 516 6 641 c 1
 121 655 l 1xe0
 134 561 135 512 136 481 c 0
 141 361 141 201 146 154 c 1
 146 154 204 447 207 482 c 1
 217 482 233 481 249 481 c 0
 268 481 288 483 302 490 c 1
 316 384 361 156 361 156 c 1
 369 224 367 355 374 470 c 0
 376 502 375 564 393 656 c 1
 502 637 l 1
 477 512 440 89 424 0 c 1
 304 0 l 1
 304 0 270 194 254 286 c 1
 231 174 195 6 193 0 c 1xd0
EndSplineSet
EndChar
StartChar: X
Encoding: 88 88 47
Width: 517
VWidth: 0
Flags: HW
HStem: 660 11G<81 125 379 403>
LayerCount: 2
Fore
SplineSet
385 669 m 1
 487 612 l 1
 318 336 l 1
 401 203 423 123 492 55 c 1
 411 -22 l 1
 337 51 324 101 250 222 c 1
 112 -26 l 1
 9 38 l 1
 178 327 l 1
 119 429 68 517 -0 595 c 1
 93 670 l 1
 156 597 198 522 248 437 c 1
 385 669 l 1
EndSplineSet
EndChar
StartChar: Y
Encoding: 89 89 48
Width: 517
VWidth: 0
Flags: HW
HStem: 0 10G<180 302> 656 10G<99 124 364 389>
VStem: 180 122<0 319>
AnchorPoint: "above_accent" 244 646 basechar 0
LayerCount: 2
Fore
SplineSet
180 0 m 1
 180 67 l 2
 180 112 183 240 183 299 c 1
 144 354 32 544 7 597 c 1
 114 666 l 1
 134 627 208 484 250 416 c 1
 298 485 354 629 373 672 c 1
 484 605 l 1
 461 558 339 343 305 294 c 1
 305 271 304 247 304 220 c 1
 303 154 302 83 302 62 c 2
 302 0 l 1
 180 0 l 1
EndSplineSet
EndChar
StartChar: Z
Encoding: 90 90 49
Width: 517
VWidth: 0
Flags: HW
HStem: 0 106<193 451> 546 102<43 328>
AnchorPoint: "above_accent" 252 646 basechar 0
LayerCount: 2
Fore
SplineSet
60 0 m 1
 14 66 l 1
 328 546 l 1
 224 546 99 544 43 544 c 1
 43 646 l 1
 102 646 307 648 399 648 c 0
 436 648 459 642 468 641 c 1
 468 640 468 638 468 637 c 0
 468 618 476 567 476 550 c 0
 476 549 476 547 476 546 c 1
 193 106 l 1
 366 105 l 2
 408 105 421 108 453 118 c 1
 487 13 l 1
 465 5 432 0 395 0 c 0
 312 0 96 0 63 0 c 2
 60 0 l 1
EndSplineSet
EndChar
StartChar: bracketleft
Encoding: 91 91 96
Width: 517
VWidth: 32
Flags: HW
HStem: -126 101<284 431> 624 101<284 413>
VStem: 155 129<-27 618>
LayerCount: 2
Fore
SplineSet
412 724 m 1
 426 624 l 1
 386 620 349 620 284 618 c 1
 284 -27 l 1
 322 -26 363 -25 370 -25 c 2
 375 -25 l 2
 399 -25 426 -28 431 -29 c 1
 434 -131 l 1
 422 -130 402 -126 367 -126 c 0
 338 -126 201 -127 156 -127 c 1
 156 -40 157 0 157 88 c 0
 157 132 156 191 156 278 c 0
 156 363 155 450 155 514 c 2
 155 719 l 1
 200 719 336 721 361 721 c 1
 396 722 401 723 412 724 c 1
EndSplineSet
EndChar
StartChar: backslash
Encoding: 92 92 115
Width: 517
VWidth: 29
Flags: HW
LayerCount: 2
Fore
SplineSet
450 -24 m 1
 344 -73 l 1
 285 65 98 498 31 670 c 1
 139 717 l 1
 205 543 388 111 450 -24 c 1
EndSplineSet
EndChar
StartChar: bracketright
Encoding: 93 93 97
Width: 517
VWidth: 32
Flags: HW
HStem: -126 101<79 225> 624 101<96 226>
VStem: 226 129<-27 618>
LayerCount: 2
Fore
SplineSet
97 724 m 1
 108 723 113 722 148 721 c 1
 173 721 309 719 354 719 c 1
 354 514 l 2
 354 450 354 363 354 278 c 0
 354 191 353 132 353 88 c 0
 353 0 354 -40 354 -127 c 1
 309 -127 171 -126 142 -126 c 0
 107 -126 88 -130 76 -131 c 1
 79 -29 l 1
 84 -28 110 -25 134 -25 c 2
 139 -25 l 2
 146 -25 187 -26 225 -27 c 1
 226 618 l 1
 161 620 123 620 83 624 c 1
 97 724 l 1
EndSplineSet
EndChar
StartChar: asciicircum
Encoding: 94 94 116
Width: 517
VWidth: -4
Flags: HW
HStem: 214 324
LayerCount: 2
Fore
SplineSet
254 538 m 1
 501 301 l 1
 422 214 l 1
 255 363 l 1
 88 214 l 1
 5 296 l 1
 254 538 l 1
EndSplineSet
EndChar
StartChar: underscore
Encoding: 95 95 117
Width: 517
VWidth: 20
Flags: HW
HStem: -163 104<22 484>
LayerCount: 2
Fore
SplineSet
22 -59 m 1
 484 -59 l 1
 484 -163 l 1
 21 -163 l 1
 22 -59 l 1
EndSplineSet
EndChar
StartChar: grave
Encoding: 96 96 118
Width: 517
VWidth: -12
Flags: HW
HStem: 439 292
VStem: 87 330
LayerCount: 2
Fore
SplineSet
181 732 m 1
 217 676 371 565 417 547 c 1
 358 439 l 1
 262 499 170 556 87 646 c 1
 181 732 l 1
EndSplineSet
EndChar
StartChar: a
Encoding: 97 97 0
Width: 517
VWidth: 2
Flags: HW
HStem: -5 98<168 280> 229 98<181 306> 400 102<142 293>
VStem: 27 128<106 205> 323 125<135 211 304 371>
AnchorPoint: "above_accent" 241 541 basechar 0
LayerCount: 2
Fore
SplineSet
155 155 m 0
 155 107 189 92 220 92 c 0
 274 92 314 142 323 169 c 1
 323 192 l 1
 305 213 272 229 241 229 c 0
 209 229 155 209 155 155 c 0
448 154 m 2
 448 109 457 84 485 62 c 1
 424 -11 l 1
 399 9 382 14 361 49 c 1
 324 11 284 -5 195 -5 c 0
 112 -5 27 58 27 147 c 0
 27 191 42 234 71 264 c 0
 117 311 172 327 241 327 c 0
 272 327 304 317 323 304 c 1
 323 385 266 400 237 400 c 0
 181 400 135 384 99 346 c 1
 39 448 l 1
 124 502 154 501 241 502 c 1
 351 502 448 436 448 320 c 0
 448 154 l 2
EndSplineSet
EndChar
StartChar: b
Encoding: 98 98 1
Width: 517
VWidth: 0
Flags: HW
HStem: -3 88<221 308> 397 98<208 303> 680 10G<47 170>
VStem: 55 120<134 363 456 683> 336 125<115 357>
LayerCount: 2
Fore
SplineSet
336 233 m 0
 336 361 300 397 255 397 c 0
 220 397 190 360 174 333 c 1
 174 170 l 1
 199 120 234 84 264 84 c 0
 317 84 336 140 336 233 c 0
460 224 m 0
 460 74 403 -3 280 -3 c 0
 219 -3 182 19 163 45 c 1
 163 24 141 -6 141 -6 c 1
 45 3 l 1
 50 35 55 78 55 119 c 0
 55 123 55 126 55 130 c 0
 55 252 54 428 54 565 c 0
 54 611 50 652 47 685 c 1
 167 689 l 1
 171 653 174 606 174 562 c 3
 174 518 172 492 163 454 c 1
 181 468 216 495 272 495 c 0
 405 495 460 406 460 224 c 0
EndSplineSet
EndChar
StartChar: c
Encoding: 99 99 2
Width: 517
VWidth: 1
Flags: HW
HStem: -3 103<205 327> 394 103<207 338>
VStem: 35 127<149 343>
AnchorPoint: "above_accent" 265 541 basechar 0
LayerCount: 2
Fore
SplineSet
162 258 m 0
 162 102 242 99 265 99 c 2
 271 99 l 2
 320 99 346 131 369 171 c 1
 479 105 l 1
 446 32 381 -3 275 -3 c 0
 224 -3 165 1 118 36 c 1
 55 85 35 160 35 257 c 0
 35 423 121 497 275 497 c 0
 321 497 369 488 400 467 c 0
 429 447 451 419 462 394 c 1
 355 344 l 1
 350 363 335 394 267 394 c 0
 195 394 162 328 162 258 c 0
EndSplineSet
EndChar
StartChar: d
Encoding: 100 100 3
Width: 517
VWidth: 0
Flags: HW
HStem: -3 102<191 294> 397 102<199 297> 680 10G<336 459>
VStem: 36 125<131 353> 331 120<137 363 456 683>
LayerCount: 2
Fore
SplineSet
161 233 m 0
 161 140 189 99 242 99 c 0
 272 99 306 120 331 170 c 1
 331 333 l 1
 315 360 285 397 250 397 c 0
 205 397 161 361 161 233 c 0
36 224 m 0
 36 410 105 499 233 499 c 0
 289 499 325 468 343 454 c 1
 334 492 331 518 331 562 c 3
 331 606 334 653 338 689 c 1
 459 685 l 1
 456 652 452 611 452 565 c 0
 452 428 451 252 451 130 c 0
 451 126 451 123 451 119 c 0
 451 78 455 35 460 3 c 1
 365 -6 l 1
 365 -6 343 24 343 45 c 1
 324 19 286 -3 225 -3 c 0
 102 -3 36 74 36 224 c 0
EndSplineSet
EndChar
StartChar: e
Encoding: 101 101 4
Width: 517
VWidth: 15
Flags: HW
HStem: -5 101<207 334> 212 96<198 330> 399 99<199 304>
VStem: 38 126<142 197 296 360> 330 127<308 373>
AnchorPoint: "above_accent" 257 541 basechar 0
LayerCount: 2
Fore
SplineSet
164 296 m 1
 219 306 265 308 330 308 c 1
 328 372 293 399 250 399 c 0
 200 399 167 353 164 296 c 1
249 499 m 0
 405 499 458 397 458 233 c 1
 458 223 457 212 457 212 c 1
 318 210 214 203 164 193 c 1
 172 139 215 96 260 96 c 1
 312 96 335 113 368 149 c 1
 455 73 l 1
 406 18 374 -5 257 -5 c 1
 117 -5 38 99 38 252 c 0
 38 392 111 499 249 499 c 0
EndSplineSet
EndChar
StartChar: f
Encoding: 102 102 5
Width: 517
VWidth: 0
Flags: HW
HStem: 0 10G<118 244> 394 100<48 118 244 397> 594 98<256 385>
VStem: 118 125<0 394 494 581>
LayerCount: 2
Fore
SplineSet
313 594 m 0
 249 594 243 558 243 529 c 3
 243 516 244 494 244 494 c 1
 277 494 297 494 333 494 c 1
 384 494 404 488 419 484 c 1
 398 388 l 1
 388 391 377 394 350 394 c 2
 243 394 l 1
 244 0 l 1
 118 0 l 1
 118 394 l 1
 48 394 l 1
 48 494 l 1
 118 494 l 1
 118 502 118 511 118 520 c 0
 118 583 151 692 305 692 c 0
 401 692 463 672 501 596 c 1
 398 549 l 1
 385 589 357 594 313 594 c 0
EndSplineSet
EndChar
StartChar: g
Encoding: 103 103 6
Width: 517
VWidth: 6
Flags: HW
HStem: -188 98<166 319> 28 93<165 354> 195 98<175 300> 401 100<171 308 426 482>
VStem: 39 121<129 200 306 388> 39 111<-72 27> 315 120<307 393> 358 122<-54 22>
AnchorPoint: "above_accent" 242 539 basechar 0
LayerCount: 2
Back
SplineSet
115.72265625 -37.109375 m 4xf9
 115.72265625 -98.6328125 152.34375 -113.28125 216.796875 -113.28125 c 4
 222.16796875 -113.28125 263.18359375 -113.28125 268.06640625 -113.28125 c 4
 324.21875 -113.28125 392.08984375 -93.26171875 392.08984375 -12.20703125 c 4
 392.08984375 29.296875 319.3359375 34.66796875 260.25390625 34.66796875 c 4
 255.859375 34.66796875 228.02734375 34.66796875 156.73828125 33.69140625 c 5
 129.39453125 22.94921875 115.72265625 -6.34765625 115.72265625 -37.109375 c 4xf9
232.421875 271.97265625 m 4
 295.41015625 271.97265625 343.75 297.36328125 343.75 344.7265625 c 4
 343.75 407.71484375 302.24609375 426.7578125 240.234375 426.7578125 c 4
 173.828125 426.7578125 123.53515625 391.11328125 123.53515625 346.19140625 c 4xf6
 123.53515625 289.55078125 168.9453125 271.97265625 232.421875 271.97265625 c 4
46.38671875 341.30859375 m 4
 46.38671875 443.84765625 120.1171875 500.9765625 240.234375 500.9765625 c 4
 296.38671875 500.9765625 332.51953125 491.2109375 364.2578125 471.6796875 c 5
 391.6015625 497.0703125 417.48046875 501.953125 471.19140625 501.953125 c 5
 471.19140625 421.875 l 5
 465.33203125 422.8515625 454.58984375 424.31640625 449.70703125 424.31640625 c 4
 432.6171875 424.31640625 413.57421875 421.875 405.2734375 413.57421875 c 5
 417.96875 390.625 419.921875 370.1171875 419.921875 346.6796875 c 4xf6
 419.921875 254.39453125 344.7265625 198.73046875 234.86328125 198.73046875 c 4
 200.1953125 198.73046875 169.43359375 202.1484375 137.6953125 214.35546875 c 5
 128.41796875 203.61328125 116.69921875 186.5234375 116.69921875 166.50390625 c 4
 116.69921875 129.39453125 143.06640625 108.88671875 204.58984375 108.88671875 c 4
 217.28515625 108.88671875 279.78515625 109.86328125 292.96875 109.86328125 c 4
 384.765625 109.86328125 469.23828125 81.0546875 469.23828125 -11.71875 c 4
 469.23828125 -138.18359375 384.27734375 -189.453125 265.13671875 -189.453125 c 7
 244.140625 -189.453125 237.79296875 -189.453125 214.84375 -189.453125 c 4
 111.81640625 -189.453125 39.0625 -142.08984375 39.0625 -40.0390625 c 4xf9
 39.0625 8.7890625 54.6875 43.45703125 81.54296875 66.89453125 c 5
 53.7109375 87.40234375 40.0390625 122.0703125 40.0390625 160.15625 c 4
 40.0390625 204.58984375 55.6640625 233.88671875 76.171875 257.32421875 c 5
 59.5703125 275.87890625 46.38671875 306.15234375 46.38671875 341.30859375 c 4
EndSplineSet
Fore
SplineSet
264 -90 m 2xf5
 294 -90 358 -56 358 -8 c 0
 358 12 348 28 292 28 c 0
 162 28 l 1
 151 13 150 -15 150 -36 c 0
 150 -66 186 -90 220 -90 c 2
 264 -90 l 2xf5
315 354 m 0xfa
 315 396 278 401 236 401 c 0
 193 401 160 387 160 350 c 0
 160 306 193 292 237 292 c 0
 295 292 315 317 315 354 c 0xfa
425 400 m 1
 425 400 435 390 435 350 c 0
 435 264 385 195 248 195 c 2
 246 195 l 2
 209 195 181 198 174 201 c 1
 165 190 160 178 160 163 c 0xfa
 160 146 171 121 223 121 c 0
 310 121 l 0
 385 121 480 98 480 0 c 0
 480 -109 375 -188 291 -188 c 3
 261 -188 255 -188 215 -188 c 0
 115 -188 39 -143 39 -38 c 0xf5
 39 11 56 47 82 70 c 1
 59 87 39 125 39 167 c 0
 39 216 58 240 76 260 c 1
 57 284 39 303 39 339 c 0
 39 454 118 501 242 501 c 0
 291 501 338 494 375 471 c 1
 399 493 425 501 482 501 c 1
 482 401 l 1
 476 402 467 404 462 404 c 0
 445 404 437 403 425 400 c 1
EndSplineSet
EndChar
StartChar: h
Encoding: 104 104 8
Width: 517
VWidth: 0
Flags: HW
HStem: 0 10G<43 163> 397 98<198 309> 679 10G<35 158>
VStem: 43 120<0 362 455 683> 340 120<20 361>
AnchorPoint: "above_accent" 97 684 basechar 0
LayerCount: 2
Fore
SplineSet
460 276 m 1
 460 106 l 3
 460 66 469 38 481 20 c 1
 371 -20 l 1
 360 -4 340 32 340 86 c 0
 340 240 l 1
 340 391 293 397 248 397 c 0
 210 397 179 360 163 333 c 1
 163 0 l 1
 43 0 l 1
 43 564 l 0
 43 610 38 652 35 685 c 1
 156 689 l 1
 160 653 163 606 163 562 c 3
 163 518 160 492 151 454 c 1
 169 468 207 495 265 495 c 0
 387 495 460 433 460 276 c 1
EndSplineSet
EndChar
StartChar: k
Encoding: 107 107 11
Width: 517
VWidth: 0
Flags: HW
HStem: 0 10G<65 187 374 417> 194 97<187 269> 397 100<242 327> 687 10G<119 176>
VStem: 65 122<0 194 302 334 439 674> 332 125<298 393>
AnchorPoint: "cedilla_accent" 256 0 basechar 0
AnchorPoint: "above_accent" 124 690 basechar 0
LayerCount: 2
Fore
SplineSet
282 292 m 0
 326 292 332 320 332 356 c 0
 332 374 323 397 295 397 c 0
 259 397 187 334 187 334 c 1
 187 306 l 1
 195 305 263 292 282 292 c 0
187 0 m 1
 65 0 l 1
 65 600 l 2
 65 630 60 655 54 675 c 1
 173 697 l 1
 177 686 187 663 187 631 c 2
 187 522 l 1
 187 494 181 464 172 438 c 1
 172 438 229 497 299 497 c 0
 397 497 456 453 456 358 c 0
 456 298 443 258 373 224 c 1
 423 206 437 170 453 118 c 0
 459 97 484 79 500 67 c 1
 406 -13 l 1
 343 11 326 63 308 125 c 0
 288 193 197 194 188 194 c 0
 187 194 l 1
 187 0 l 1
EndSplineSet
Substitution2: "'ss01' Stylistic Set 1 - No loop k-1" k.noloop
EndChar
StartChar: l
Encoding: 108 108 12
Width: 517
VWidth: 0
Flags: HW
HStem: -9 98<302 427> 586 98<50 173>
VStem: 173 125<94 134 134 586>
AnchorPoint: "cedilla_accent" 315 0 basechar 0
AnchorPoint: "above_accent" 232 684 basechar 0
LayerCount: 2
Fore
SplineSet
173 684 m 2
 297 684 l 1
 297 551 298 134 298 134 c 1
 298 103 306 89 351 89 c 0
 396 89 426 105 455 133 c 1
 502 41 l 1
 460 6 387 -9 326 -9 c 0
 284 -9 240 -2 219 10 c 0
 177 33 173 72 173 101 c 1
 173 212 173 329 173 440 c 0
 173 496 173 535 173 586 c 1
 168 586 162 586 154 586 c 0
 126 586 85 585 48 577 c 1
 34 668 l 1
 80 682 134 684 173 684 c 2
EndSplineSet
EndChar
StartChar: m
Encoding: 109 109 13
Width: 517
VWidth: 1
Flags: HW
HStem: 0 10G<10 119 187 297> 397 101<152 221 327 359> 500 10G<68 104>
VStem: 10 109<0 357> 187 110<0 357> 359 107<77 396>
LayerCount: 2
Back
SplineSet
373.53515625 500.9765625 m 7
 444.3359375 500.9765625 456.54296875 407.2265625 456.54296875 360.83984375 c 6
 456.54296875 105.46875 l 6
 456.54296875 80.56640625 481.4453125 62.5 501.46484375 54.6875 c 5
 471.6796875 -10.25390625 l 5
 437.01171875 -3.41796875 388.18359375 24.4140625 388.18359375 93.26171875 c 6
 388.18359375 94.23828125 l 5
 388.18359375 371.09375 l 6
 388.18359375 373.046875 388.18359375 375 388.18359375 377.44140625 c 4
 388.18359375 394.53125 386.23046875 426.26953125 356.93359375 426.26953125 c 4
 333.49609375 426.26953125 307.6171875 403.80859375 277.34375 337.890625 c 5
 277.83203125 0 l 5
 208.984375 0 l 5
 208.984375 393.5546875 l 5
 208.984375 407.2265625 208.0078125 426.26953125 185.546875 426.26953125 c 4
 162.109375 426.26953125 128.41796875 403.80859375 98.14453125 337.40234375 c 5
 98.14453125 0 l 5
 29.296875 0 l 5
 27.83203125 397.94921875 l 6
 27.83203125 443.359375 21.484375 467.7734375 13.18359375 491.69921875 c 5
 86.42578125 511.23046875 l 5
 93.75 495.60546875 100.5859375 450.68359375 101.5625 428.22265625 c 5
 124.0234375 467.28515625 166.50390625 500.9765625 202.1484375 500.9765625 c 5
 249.51171875 500.9765625 277.34375 462.40234375 277.34375 428.22265625 c 5
 298.33984375 466.796875 328.61328125 500.9765625 373.53515625 500.9765625 c 7
EndSplineSet
Fore
SplineSet
465 -16 m 1
 430 -9 359 10 359 111 c 2
 359 112 l 1
 359 371 l 17
 358 392 356 397 341 397 c 1
 330 397 305 320 298 293 c 1
 297 0 l 1
 187 0 l 1
 187 372 l 1
 187 390 186 397 173 397 c 1
 161 397 130 349 119 297 c 1
 119 0 l 1
 10 0 l 1
 9 392 l 2
 9 437 2 454 -6 478 c 1
 100 510 l 1
 107 494 110 463 113 445 c 1
 127 464 158 498 201 498 c 0
 255 498 276 448 280 413 c 1
 301 453 331 498 375 498 c 2
 379 498 l 2
 440 498 467 430 467 361 c 2
 467 110 l 2
 467 85 491 71 511 63 c 1
 465 -16 l 1
EndSplineSet
EndChar
StartChar: n
Encoding: 110 110 15
Width: 517
VWidth: 2
Flags: HW
HStem: 0 10G<49 171> 400 101<221 330>
VStem: 49 123<0 360> 335 123<98 396>
AnchorPoint: "cedilla_accent" 261 0 basechar 0
AnchorPoint: "above_accent" 253 541 basechar 0
LayerCount: 2
Fore
SplineSet
165 453 m 1
 192 477 258 501 312 501 c 0
 392 501 458 469 458 389 c 2
 458 136 l 2
 458 104 483 93 510 78 c 1
 453 -20 l 1
 407 -5 335 31 335 108 c 2
 335 341 l 2
 335 377 328 400 295 400 c 0
 264 400 213 381 171 345 c 1
 171 0 l 1
 49 0 l 1
 49 345 l 2
 49 432 45 444 33 490 c 1
 146 514 l 1
 151 502 162 477 165 453 c 1
EndSplineSet
EndChar
StartChar: o
Encoding: 111 111 14
Width: 517
VWidth: 2
Flags: HW
HStem: -3 99<195 298> 405 99<197 304>
VStem: 35 123<138 360> 334 125<136 371>
AnchorPoint: "above_accent" 249 541 basechar 0
LayerCount: 2
Fore
SplineSet
305 121 m 1
 328 146 334 197 334 259 c 0
 334 262 334 264 334 267 c 0
 333 344 316 405 254 405 c 0
 180 405 158 337 158 235 c 0
 158 154 189 96 248 96 c 1
 275 96 287 103 305 121 c 1
248 -3 m 1
 97 -3 35 90 35 227 c 0
 35 408 104 504 247 504 c 0
 343 504 397 470 431 406 c 0
 451 367 459 312 459 265 c 0
 459 126 413 -3 249 -3 c 2
 248 -3 l 1
EndSplineSet
EndChar
StartChar: p
Encoding: 112 112 7
Width: 517
VWidth: 0
Flags: HW
HStem: -4 98<196 300> 396 98<203 311> 489 10G<61 149>
VStem: 46 120<-193 28 125 359> 333 125<128 375>
LayerCount: 2
Fore
SplineSet
333 259 m 0xd8
 333 353 314 396 271 396 c 0
 208 396 187 363 165 320 c 1
 166 152 l 1
 185 124 211 94 248 94 c 0
 304 94 333 129 333 259 c 0xd8
46 361 m 1
 46 374 l 2
 46 415 40 454 35 486 c 1
 146 499 l 1xb8
 150 487 154 469 156 450 c 1
 183 480 224 494 279 494 c 0
 413 494 458 400 458 269 c 0
 458 105 422 -4 245 -4 c 0
 196 -4 173 14 159 29 c 1
 161 9 165 -9 166 -30 c 1
 166 -74 l 2
 166 -120 170 -161 173 -194 c 1
 52 -198 l 1
 48 -162 45 -115 45 -71 c 2
 46 361 l 1
EndSplineSet
EndChar
StartChar: q
Encoding: 113 113 16
Width: 517
VWidth: 0
Flags: HW
HStem: -4 98<192 297> 396 98<183 290> 489 10G<344 432>
VStem: 35 125<128 375> 327 121<-191 28 125 357> 337 121<-193 23 451 487>
LayerCount: 2
Fore
SplineSet
160 259 m 0xd8
 160 129 189 94 245 94 c 0
 282 94 308 124 327 152 c 1
 328 320 l 1
 306 363 285 396 222 396 c 0
 179 396 160 353 160 259 c 0xd8
447 361 m 1
 448 -71 l 2
 448 -85 l 0
 448 -127 449 -175 456 -192 c 1
 340 -207 l 1
 331 -182 327 -120 327 -74 c 2
 327 -30 l 1
 328 -9 331 9 333 29 c 1
 319 14 297 -4 248 -4 c 0
 71 -4 35 105 35 269 c 0
 35 400 80 494 214 494 c 0xd8
 269 494 310 480 337 450 c 1
 339 469 342 487 346 499 c 1
 458 486 l 1xb4
 453 454 447 415 447 374 c 2
 447 361 l 1
EndSplineSet
EndChar
StartChar: r
Encoding: 114 114 17
Width: 517
VWidth: 1
Flags: HW
HStem: 0 10G<105 229> 399 99<301 371> 500 10G<116 139>
VStem: 105 123<0 312> 374 122<341 396>
AnchorPoint: "cedilla_accent" 162 0 basechar 0
AnchorPoint: "above_accent" 263 541 basechar 0
LayerCount: 2
Fore
SplineSet
197 422 m 1
 234 470 284 498 363 498 c 0
 445 498 496 448 496 355 c 0
 496 341 l 1
 373 340 l 1
 373 345 374 353 374 361 c 0
 374 379 369 399 342 399 c 1
 315 399 276 363 229 273 c 1
 229 0 l 1
 105 0 l 1
 105 344 l 2
 105 372 82 392 52 419 c 1
 124 510 l 1
 154 486 180 472 197 422 c 1
EndSplineSet
EndChar
StartChar: s
Encoding: 115 115 18
Width: 517
VWidth: 2
Flags: HW
HStem: -10 99<185 316> 405 98<195 326>
VStem: 46 124<103 161> 69 124<342 399> 330 124<104 193>
AnchorPoint: "cedilla_accent" 255 0 basechar 0
AnchorPoint: "above_accent" 239 541 basechar 0
LayerCount: 2
Fore
SplineSet
136 268 m 0xe8
 96 288 69 327 69 381 c 0
 69 472 163 502 248 502 c 0
 316 502 390 495 444 436 c 1
 358 356 l 1
 332 384 296 405 249 405 c 0
 209 405 193 394 193 375 c 0xd8
 193 361 196 351 210 342 c 1
 335 291 454 275 454 136 c 0
 454 57 384 14 332 0 c 1
 305 -6 275 -10 247 -10 c 0
 122 -10 46 56 46 161 c 1
 169 161 l 1
 169 108 193 89 246 89 c 0
 275 89 330 99 330 142 c 0
 330 171 320 187 296 203 c 1
 262 224 181 246 136 268 c 0xe8
EndSplineSet
EndChar
StartChar: t
Encoding: 116 116 19
Width: 517
VWidth: 0
Flags: HW
HStem: -3 99<231 371> 393 100<214 423>
VStem: 87 123<115 393 495 607>
AnchorPoint: "cedilla_accent" 283 0 basechar 0
AnchorPoint: "above_accent" 260 623 basechar 0
LayerCount: 2
Fore
SplineSet
210 213 m 1
 210 193 l 2
 210 128 229 105 270 98 c 0
 279 97 296 96 302 96 c 0
 334 96 348 102 360 109 c 0
 385 123 392 156 395 166 c 1
 496 117 l 1
 491 103 465 49 410 18 c 0
 382 1 345 -3 303 -3 c 0
 213 -3 141 8 106 80 c 0
 89 115 87 152 87 194 c 2
 87 215 l 1
 88 259 89 313 91 393 c 1
 84 393 l 2
 70 393 57 391 44 387 c 1
 36 487 l 1
 48 491 70 493 86 493 c 2
 93 493 l 1
 93 527 94 576 94 610 c 1
 216 607 l 1
 216 575 215 528 215 495 c 1
 268 495 421 493 425 493 c 1
 423 393 l 1
 356 393 279 394 214 394 c 1
 211 313 212 262 210 213 c 1
EndSplineSet
EndChar
StartChar: u
Encoding: 117 117 20
Width: 517
VWidth: 2
Flags: HW
HStem: -8 10G<420 444> 1 100<168 289> 488 6G<64 158 326 448>
VStem: 39 123<108 432> 326 123<136 495>
AnchorPoint: "above_accent" 242 541 basechar 0
LayerCount: 2
Fore
SplineSet
436 -8 m 1xb8
 405 6 384 29 374 53 c 1
 337 15 281 2 208 1 c 1
 204 1 l 2
 130 1 39 26 39 112 c 3
 39 152 39 199 39 246 c 0
 39 351 37 456 28 484 c 1
 152 498 l 1
 163 453 160 325 161 146 c 1
 167 113 176 101 218 101 c 1x78
 292 104 326 142 326 204 c 1
 326 495 l 1
 448 495 l 1
 448 149 l 1
 449 124 481 91 506 81 c 1
 436 -8 l 1xb8
EndSplineSet
EndChar
StartChar: v
Encoding: 118 118 21
Width: 517
VWidth: 2
Flags: HW
HStem: -4 10G<167 218> 485 10G<335 459>
VStem: 337 124<235 495>
LayerCount: 2
Fore
SplineSet
105 525 m 1
 188 387 230 248 263 123 c 1
 324 193 333 297 336 398 c 0
 336 407 337 420 337 432 c 0
 337 454 336 478 335 495 c 1
 458 495 l 1
 459 487 461 429 461 401 c 0
 461 246 410 103 321 32 c 0
 286 4 269 -4 167 -4 c 1
 167 122 64 373 2 462 c 1
 105 525 l 1
EndSplineSet
EndChar
StartChar: w
Encoding: 119 119 22
Width: 517
VWidth: 1
Flags: HW
HStem: 0 104<150 188 318 350> 485 10G<370 490>
VStem: 60 104<103 269> 216 105<135 408> 376 114<136 495>
AnchorPoint: "above_accent" 260 541 basechar 0
LayerCount: 2
Fore
SplineSet
8 480 m 1
 130 516 l 1
 164 414 164 322 164 238 c 0
 164 233 164 228 164 223 c 0
 164 177 155 118 150 102 c 1
 193 102 216 172 216 226 c 0
 216 408 l 1
 319 408 l 1
 319 408 321 371 321 290 c 0
 321 243 320 181 318 104 c 1
 319 104 319 104 320 104 c 0
 358 104 376 176 376 299 c 0
 376 384 375 442 370 495 c 1
 490 495 l 1
 491 479 491 468 491 447 c 0
 491 432 491 418 491 405 c 0
 491 330 490 228 470 136 c 0
 452 56 390 0 283 0 c 2
 267 0 l 1
 267 0 258 33 255 75 c 1
 238 40 191 -6 95 -6 c 2
 92 -6 l 1
 70 -6 67 -3 60 0 c 1
 55 40 62 255 31 408 c 0
 26 434 19 460 8 480 c 1
EndSplineSet
EndChar
StartChar: x
Encoding: 120 120 23
Width: 517
VWidth: 1
Flags: HW
HStem: -2 112<418 479> 500 10G<102 122 358 476>
VStem: 359 116<431 495>
LayerCount: 2
Fore
SplineSet
456 410 m 0
 436 367 365 288 321 246 c 1
 360 196 421 125 432 119 c 0
 434 118 437 110 454 110 c 0
 463 110 471 112 479 113 c 1
 479 1 l 1
 470 0 458 -2 449 -2 c 0
 428 -2 401 3 381 17 c 1
 346 40 294 104 252 162 c 1
 90 -21 l 1
 7 58 l 1
 185 250 l 1
 25 441 l 1
 114 510 l 1
 256 329 l 1
 285 362 309 379 343 439 c 0
 353 456 357 487 359 495 c 1
 476 495 l 1
 473 471 468 436 456 410 c 0
EndSplineSet
EndChar
StartChar: y
Encoding: 121 121 24
Width: 517
VWidth: 6
Flags: HW
HStem: -184 104<146 206> -10 10G<21 136> 367 128<28 97>
VStem: 21 115<-76 0> 350 125<276 495>
AnchorPoint: "above_accent" 239 541 basechar 0
LayerCount: 2
Fore
SplineSet
172 -80 m 0
 197 -80 253 -12 263 34 c 1
 131 332 96 367 49 367 c 3
 39 367 33 366 28 366 c 1
 27 494 l 1
 27 494 47 495 64 495 c 3
 158 495 190 439 321 159 c 1
 346 299 350 359 350 495 c 1
 475 495 l 1
 475 466 474 424 467 365 c 0
 449 207 386 0 323 -85 c 0
 264 -164 224 -184 152 -184 c 1
 48 -184 23 -84 21 0 c 1
 136 0 l 1
 136 -56 149 -80 172 -80 c 0
EndSplineSet
EndChar
StartChar: z
Encoding: 122 122 25
Width: 517
VWidth: 2
Flags: HW
HStem: -11 10G<441 454> 0 99<196 451> 392 102<61 293>
AnchorPoint: "above_accent" 261 541 basechar 0
LayerCount: 2
Fore
SplineSet
45 398 m 1
 61 497 l 1
 83 495 137 494 198 494 c 0
 289 494 394 495 428 496 c 1
 466 403 l 1
 450 387 221 187 196 96 c 1
 392 99 l 2
 393 99 394 99 395 99 c 0
 421 99 445 92 474 83 c 1
 452 -11 l 1
 430 -5 423 0 391 0 c 2
 35 0 l 1
 35 10 l 2
 35 46 37 70 45 92 c 0
 84 196 195 314 293 394 c 1
 260 394 243 392 194 392 c 0
 133 392 73 394 45 398 c 1
EndSplineSet
EndChar
StartChar: braceleft
Encoding: 123 123 160
Width: 517
VWidth: 32
Flags: HW
HStem: -138 106<352 435> 618 106<351 434>
VStem: 218 124<-18 86 499 605> 253 123<65 190 397 522>
LayerCount: 2
Fore
SplineSet
250 293 m 1xd0
 296 282 363 246 374 184 c 0
 375 177 375 168 375 161 c 0xd0
 375 112 350 65 343 26 c 0
 342 22 342 18 342 15 c 0
 342 -18 375 -28 437 -31 c 1
 435 -138 l 1
 370 -135 291 -134 246 -81 c 0
 226 -58 218 -32 218 -7 c 0xe0
 218 29 233 65 244 97 c 1
 250 115 253 129 253 142 c 0
 253 207 181 217 120 234 c 1
 119 289 l 1
 119 353 l 1
 180 370 252 380 252 445 c 0
 252 458 249 472 243 490 c 1
 232 522 218 558 218 594 c 0
 218 619 225 645 245 668 c 0
 290 721 369 722 434 725 c 1
 436 618 l 1
 374 616 342 604 342 571 c 0
 342 568 343 565 343 561 c 0
 350 522 375 476 375 426 c 0
 375 419 374 411 373 403 c 0
 362 341 296 304 250 293 c 1xd0
EndSplineSet
EndChar
StartChar: bar
Encoding: 124 124 161
Width: 517
VWidth: 32
Flags: HW
VStem: 175 133<-95 729>
LayerCount: 2
Fore
SplineSet
174 74 m 0
 174 252 170 542 170 683 c 2
 170 729 l 1
 302 729 l 1
 302 658 l 2
 302 523 308 272 308 109 c 2
 308 36 l 2
 308 -20 307 -48 305 -97 c 1
 172 -96 l 1
 174 -66 175 -45 175 -18 c 0
 175 5 174 32 174 74 c 0
EndSplineSet
EndChar
StartChar: braceright
Encoding: 125 125 162
Width: 517
VWidth: 32
Flags: HW
HStem: -138 106<73 156> 618 106<73 156>
VStem: 132 123<65 190 397 522> 166 124<-18 86 499 605>
LayerCount: 2
Fore
SplineSet
257 293 m 1xe0
 211 304 145 341 135 403 c 0
 134 411 133 419 133 426 c 0
 133 476 158 522 165 561 c 0
 165 565 166 568 166 571 c 0
 166 604 134 616 72 618 c 1
 73 725 l 1
 138 722 218 721 263 668 c 0
 283 645 290 619 290 594 c 0xd0
 290 558 276 522 265 490 c 1
 259 472 255 458 255 445 c 0
 255 380 328 370 389 353 c 1
 389 289 l 1
 388 234 l 1
 327 217 255 207 255 142 c 0xe0
 255 129 258 115 264 97 c 1
 275 65 290 29 290 -7 c 0
 290 -32 282 -58 262 -81 c 0
 217 -134 138 -135 73 -138 c 1
 71 -31 l 1
 133 -28 166 -17 166 16 c 0xd0
 166 19 165 22 165 26 c 0
 158 65 132 112 132 161 c 0
 132 168 133 177 134 184 c 0
 145 246 211 282 257 293 c 1xe0
EndSplineSet
EndChar
StartChar: tilde
Encoding: 126 126 120
Width: 517
VWidth: -5
Flags: HW
HStem: 183 103<312 385> 291 103<122 198>
LayerCount: 2
Fore
SplineSet
162 394 m 0
 274 394 303 286 347 286 c 0
 389 286 399 330 402 363 c 1
 504 336 l 1
 504 285 477 183 342 183 c 1
 233 183 214 291 159 291 c 0
 132 291 107 259 95 215 c 1
 6 269 l 1
 23 332 63 394 162 394 c 0
EndSplineSet
EndChar
StartChar: cent
Encoding: 162 162 155
Width: 517
VWidth: 2
Flags: HW
HStem: -4 137<196 298> 362 142<197 298>
VStem: 61 104<166 328> 185 114<-4 57 436 504>
LayerCount: 2
Fore
SplineSet
165 256 m 0
 165 134 233 133 252 133 c 2
 257 133 l 2
 298 133 318 157 338 188 c 1
 430 138 l 1
 407 90 365 61 299 54 c 1
 299 -4 l 1
 185 -4 l 1
 185 60 l 1
 166 64 147 71 130 83 c 0
 77 122 61 180 61 256 c 0
 61 357 105 413 185 434 c 1
 185 504 l 1
 299 504 l 1
 299 440 l 1
 324 437 347 430 364 419 c 0
 388 404 407 382 416 362 c 1
 327 323 l 1
 323 338 310 362 253 362 c 0
 193 362 165 311 165 256 c 0
EndSplineSet
EndChar
StartChar: sterling
Encoding: 163 163 154
Width: 517
VWidth: 0
Flags: HW
HStem: -8 100<295 383> -6 83<80 151> 325 98<56 133 269 420> 561 99<245 328>
VStem: 32 81<78 133> 121 117<424 557> 166 117<187 321> 384 111<95 130>
LayerCount: 2
Fore
SplineSet
151 94 m 1x79
 135 109 127 122 120 133 c 1
 117 131 112 116 112 106 c 0
 112 105 112 105 112 104 c 0
 113 83 119 77 123 77 c 0
 134 77 143 84 151 94 c 1x79
420 327 m 1
 384 323 344 323 296 323 c 2
 269 323 l 1
 278 278 283 242 283 188 c 0
 283 163 280 136 277 124 c 1
 311 103 330 92 353 92 c 0
 366 92 384 96 384 109 c 0
 384 111 384 128 384 130 c 1
 495 130 l 1
 495 104 l 1
 493 38 444 -8 375 -8 c 0xbb
 317 -8 289 5 236 39 c 1
 206 -3 150 -6 108 -6 c 0
 50 -6 32 38 32 93 c 0
 32 159 68 223 115 223 c 0
 144 223 150 209 165 187 c 1
 166 197 166 198 166 209 c 0x7b
 166 261 161 277 152 324 c 1
 127 325 86 325 64 325 c 2
 56 325 l 1
 56 423 l 1
 133 423 l 1
 127 458 121 477 121 509 c 0
 121 609 190 660 282 660 c 0
 362 660 423 613 438 551 c 1
 334 525 l 1
 326 555 303 561 282 561 c 0
 281 561 280 561 279 561 c 0
 253 561 238 545 238 513 c 0x7d
 238 487 246 452 251 420 c 1
 297 422 l 1
 306 422 316 422 325 422 c 0
 361 422 393 422 420 425 c 1
 420 327 l 1
EndSplineSet
EndChar
StartChar: currency
Encoding: 164 164 153
Width: 517
VWidth: 2
Flags: HW
HStem: -10 6G<87 106 387 406> 62 73<201 306> 364 73<202 307> 489 10G<90 109>
VStem: 67 107<162 332> 328 109<157 326>
LayerCount: 2
Fore
SplineSet
302 153 m 1
 322 172 328 210 328 256 c 0
 328 258 328 259 328 261 c 0
 328 318 313 364 258 364 c 0
 194 364 174 313 174 238 c 0
 174 178 201 135 252 135 c 0
 275 135 286 140 302 153 c 1
82 331 m 1
 7 406 l 1
 100 499 l 1
 174 425 l 1
 196 433 222 437 251 437 c 0
 286 437 315 432 338 424 c 1
 407 493 l 1
 500 399 l 1
 427 327 l 1
 433 306 437 281 437 260 c 0
 437 221 431 185 416 153 c 1
 490 79 l 1
 396 -14 l 1
 313 69 l 1
 295 65 276 62 253 62 c 2
 252 62 l 2
 224 62 198 65 177 71 c 1
 97 -10 l 1
 4 83 l 1
 79 159 l 1
 71 180 67 205 67 232 c 0
 67 270 72 303 82 331 c 1
EndSplineSet
EndChar
StartChar: yen
Encoding: 165 165 150
Width: 517
VWidth: 0
Flags: HW
HStem: -3 10G<180 302> 158 110<42 181 305 455> 312 106<41 110 379 454> 656 10G<99 124 364 389>
VStem: 180 122<-3 157 268 305>
LayerCount: 2
Fore
SplineSet
180 -3 m 1
 180 67 l 2
 180 86 181 121 181 158 c 1
 166 158 151 158 136 158 c 0
 107 158 76 157 42 155 c 1
 42 264 l 1
 95 267 140 268 183 268 c 1
 183 280 183 290 183 299 c 1
 182 300 180 303 179 305 c 1
 140 306 96 309 40 312 c 1
 40 327 40 351 40 374 c 0
 40 391 41 407 41 418 c 1
 66 417 89 416 110 415 c 1
 67 486 22 566 7 597 c 1
 114 666 l 1
 134 627 208 484 250 416 c 1
 298 485 354 629 373 672 c 1
 484 605 l 1
 470 578 423 493 379 417 c 1
 401 417 426 417 454 417 c 1
 455 310 l 1
 400 310 358 308 314 307 c 1
 311 302 307 297 305 294 c 1
 305 285 305 276 305 267 c 1
 355 266 401 264 455 264 c 1
 455 155 l 1
 401 155 353 157 303 157 c 1
 302 114 302 76 302 62 c 2
 302 -3 l 1
 180 -3 l 1
EndSplineSet
EndChar
StartChar: brokenbar
Encoding: 166 166 164
Width: 517
VWidth: 32
Flags: HW
VStem: 175 133<-95 263 380 729>
LayerCount: 2
Fore
SplineSet
172 380 m 1
 171 497 170 610 170 683 c 2
 170 729 l 1
 302 729 l 1
 302 658 l 2
 302 587 304 484 305 380 c 1
 172 380 l 1
307 263 m 1
 307 208 308 155 308 109 c 2
 308 36 l 2
 308 -20 307 -48 305 -97 c 1
 172 -96 l 1
 174 -66 175 -45 175 -18 c 0
 175 5 174 32 174 74 c 0
 174 129 173 195 173 263 c 1
 307 263 l 1
EndSplineSet
EndChar
StartChar: section
Encoding: 167 167 159
Width: 517
VWidth: 1
Flags: HW
HStem: -139 98<188 280> 570 98<201 293>
VStem: 19 121<285 354> 70 122<448 560> 70 107<-28 16> 290 122<-31 81> 304 107<513 557> 343 121<176 244>
LayerCount: 2
Fore
SplineSet
318 173 m 1xe1
 341 187 343 193 343 209 c 1
 342 219 337 231 325 242 c 0
 268 295 203 332 164 356 c 1
 141 342 139 335 139 319 c 1
 140 309 145 298 157 287 c 0
 214 235 259 209 313 176 c 1
 318 173 l 1xe1
90 431 m 1
 90 431 70 451 70 512 c 0
 70 614 166 665 241 668 c 0
 244 668 247 668 250 668 c 0
 348 668 409 603 411 513 c 1
 304 513 l 1xd2
 304 553 276 570 244 570 c 1
 228 570 192 562 192 515 c 0
 192 514 192 511 192 509 c 0
 192 488 194 459 223 440 c 0
 290 396 355 354 407 306 c 0
 453 264 463 246 463 199 c 0xd1
 463 142 436 116 398 88 c 1
 398 88 412 56 412 17 c 0
 412 -85 315 -136 240 -139 c 0
 237 -139 234 -139 231 -139 c 0
 133 -139 72 -74 70 16 c 1
 178 16 l 1
 178 -24 205 -42 237 -42 c 1
 253 -42 290 -33 290 14 c 0
 290 15 290 18 290 20 c 0xcc
 290 41 288 70 259 89 c 0
 192 133 127 175 75 223 c 0
 29 265 19 283 19 330 c 0
 19 399 90 431 90 431 c 1
EndSplineSet
EndChar
StartChar: copyright
Encoding: 169 169 165
Width: 517
VWidth: 2
Flags: HW
HStem: 19 86<187 344> 146 81<242 322> 351 80<244 319> 474 85<187 344>
VStem: 8 84<202 377> 141 95<229 347> 435 84<200 382>
LayerCount: 2
Fore
SplineSet
92 290 m 0
 92 187 169 105 265 105 c 0
 361 105 435 187 435 290 c 0
 435 393 361 474 265 474 c 0
 169 474 92 393 92 290 c 0
8 289 m 0
 8 438 122 560 263 560 c 0
 404 560 519 438 519 289 c 0
 519 140 404 19 263 19 c 0
 122 19 8 140 8 289 c 0
270 351 m 0
 248 351 235 322 235 285 c 0
 235 259 245 226 269 226 c 1
 285 226 295 231 303 254 c 1
 387 213 l 1
 353 153 299 146 268 146 c 0
 209 146 141 182 141 283 c 0
 141 371 192 431 270 431 c 0
 305 431 359 412 380 367 c 1
 299 324 l 1
 291 343 288 351 270 351 c 0
EndSplineSet
EndChar
StartChar: ordfeminine
Encoding: 170 170 193
Width: 517
VWidth: 2
Flags: HW
HStem: 248 82<69 438> 368 82<170 285> 535 75<174 301> 632 10G<117 139> 663 88<118 287>
VStem: 62 104<455 525>
LayerCount: 2
Fore
SplineSet
69 330 m 1
 438 330 l 1
 438 248 l 1
 69 248 l 1
 69 330 l 1
167 485 m 0
 167 464 186 450 206 450 c 0
 252 450 291 462 312 506 c 1
 295 527 266 535 229 535 c 0
 186 535 167 517 167 485 c 0
72 714 m 1
 120 744 180 750 236 750 c 1
 343 750 405 690 406 586 c 0
 406 521 l 3
 406 500 408 473 418 459 c 0
 424 450 433 445 448 438 c 1
 398 364 l 1
 375 379 356 385 339 421 c 1
 306 381 260 368 187 368 c 0
 118 368 62 416 62 481 c 0
 62 592 128 609 218 609 c 0
 264 609 292 597 312 578 c 1
 305 625 285 663 237 663 c 0
 184 663 155 655 123 632 c 1
 72 714 l 1
EndSplineSet
EndChar
StartChar: guillemotleft
Encoding: 171 171 157
Width: 517
VWidth: 2
Flags: HW
LayerCount: 2
Fore
SplineSet
209 276 m 1
 279 339 346 419 357 487 c 1
 469 452 l 1
 449 360 383 299 322 246 c 1
 384 188 438 130 460 46 c 1
 354 4 l 1
 335 77 286 151 209 220 c 1
 209 276 l 1
12 281 m 1
 82 344 149 424 160 492 c 1
 271 457 l 1
 251 365 186 304 125 251 c 1
 187 193 241 136 263 52 c 1
 156 9 l 1
 137 82 89 156 12 225 c 1
 12 281 l 1
EndSplineSet
EndChar
StartChar: uni00AD
Encoding: 173 173 195
Width: 517
VWidth: 2
Flags: HW
HStem: 202 119<43 476>
LayerCount: 2
Fore
SplineSet
40 319 m 1
 62 320 87 321 111 321 c 0
 160 321 209 319 242 319 c 0
 262 319 281 319 300 319 c 0
 340 319 415 318 467 318 c 1
 476 318 l 1
 476 199 l 1
 467 199 l 1
 401 200 302 200 241 200 c 0
 220 200 176 202 127 202 c 0
 99 202 70 201 43 200 c 1
 43 259 l 1
 40 319 l 1
EndSplineSet
EndChar
StartChar: registered
Encoding: 174 174 166
Width: 517
VWidth: 2
Flags: HW
HStem: 19 86<186 344> 366 72<244 311> 474 85<187 344>
VStem: 8 84<201 377> 160 85<144 241 308 366> 313 76<310 363> 435 84<200 382>
LayerCount: 2
Fore
SplineSet
8 289 m 0
 8 438 122 560 263 560 c 0
 404 560 519 438 519 289 c 0
 519 140 404 19 263 19 c 0
 122 19 8 140 8 289 c 0
322 251 m 1
 340 226 370 202 394 188 c 1
 323 130 l 1
 294 147 255 208 249 241 c 1
 245 241 l 1
 245 138 l 1
 167 138 l 1
 195 117 228 105 265 105 c 0
 361 105 435 187 435 290 c 0
 435 393 361 474 265 474 c 0
 169 474 92 393 92 290 c 0
 92 230 119 178 160 144 c 1
 160 359 l 2
 160 385 159 404 158 428 c 1
 197 434 232 438 262 438 c 0
 335 438 389 414 389 335 c 0
 389 295 360 263 322 251 c 1
313 341 m 0
 313 356 300 366 263 366 c 0
 255 366 248 364 243 362 c 1
 244 315 l 1
 250 312 261 308 276 308 c 0
 310 308 313 327 313 341 c 0
EndSplineSet
EndChar
StartChar: macron
Encoding: 175 175 176
Width: 517
VWidth: -16
Flags: HW
HStem: 570 95<109 353>
VStem: 109 244<570 662>
LayerCount: 2
Fore
SplineSet
353 665 m 1
 353 570 l 1
 345 570 l 0
 317 569 268 566 232 566 c 0
 196 566 151 567 118 568 c 0
 109 568 l 1
 109 665 l 1
 118 664 l 0
 150 663 206 662 251 662 c 0
 281 662 323 665 345 665 c 0
 353 665 l 1
EndSplineSet
EndChar
StartChar: degree
Encoding: 176 176 175
Width: 517
VWidth: -3
Flags: HW
HStem: 385 94<197 277> 579 94<197 277>
VStem: 93 94<489 569> 287 94<488 569>
LayerCount: 2
Fore
SplineSet
93 529 m 0
 93 609 157 673 237 673 c 0
 317 673 381 609 381 529 c 0
 381 449 317 385 237 385 c 0
 157 385 93 449 93 529 c 0
187 529 m 0
 187 501 209 479 237 479 c 0
 265 479 287 501 287 529 c 0
 287 557 265 579 237 579 c 0
 209 579 187 557 187 529 c 0
EndSplineSet
EndChar
StartChar: plusminus
Encoding: 177 177 145
Width: 517
VWidth: -2
Flags: HW
HStem: 80 120<31 189 312 469> 307 115<24 189 312 468>
VStem: 189 123<201 307 422 596>
LayerCount: 2
Fore
SplineSet
23 417 m 1
 46 421 61 422 93 422 c 0
 99 422 105 422 112 422 c 2
 190 422 l 1
 190 596 l 1
 311 597 l 1
 310 422 l 1
 372 422 398 421 428 421 c 0
 441 421 455 421 468 421 c 1
 468 307 l 1
 461 307 l 2
 458 307 415 308 312 309 c 1
 312 273 312 237 312 201 c 1
 357 201 420 200 460 200 c 2
 469 200 l 1
 469 80 l 1
 460 80 l 1
 394 81 277 82 216 82 c 0
 183 82 105 81 31 77 c 1
 31 137 l 1
 28 197 l 1
 83 200 142 201 189 201 c 1
 189 307 l 1
 173 307 159 307 146 307 c 0
 81 307 52 307 24 303 c 1
 23 417 l 1
EndSplineSet
EndChar
StartChar: uni00B2
Encoding: 178 178 196
Width: 517
VWidth: 31
Flags: HW
HStem: 375 83<230 407> 664 82<220 300>
VStem: 305 104<592 659>
LayerCount: 2
Fore
SplineSet
99 645 m 1
 111 718 189 746 262 746 c 0
 334 746 408 717 408 633 c 0
 408 561 367 539 281 495 c 0
 245 476 233 473 230 458 c 1
 407 460 l 1
 407 375 l 1
 103 375 l 1
 103 391 102 406 102 422 c 0
 102 444 103 460 116 481 c 0
 133 508 192 541 233 562 c 0
 295 594 305 605 305 629 c 0
 305 645 287 664 263 664 c 0
 222 664 216 642 211 621 c 1
 99 645 l 1
EndSplineSet
EndChar
StartChar: uni00B3
Encoding: 179 179 197
Width: 517
VWidth: 31
Flags: HW
HStem: 368 82<178 297> 485 10G<144 167> 536 64<221 288> 639 10G<169 184> 666 81<183 290>
VStem: 291 103<601 664> 302 102<456 527>
LayerCount: 2
Fore
SplineSet
153 495 m 1xfa
 181 464 205 450 250 450 c 0
 290 450 302 469 302 495 c 1xfa
 302 527 274 536 220 536 c 1
 221 601 l 1
 221 601 249 600 255 600 c 0
 282 600 291 614 291 638 c 0
 291 658 276 666 252 666 c 0
 220 666 192 654 177 639 c 1
 119 711 l 1
 145 732 189 747 248 747 c 2
 253 747 l 2
 334 747 393 723 393 647 c 0xfc
 393 604 373 585 346 575 c 1
 384 555 404 537 404 490 c 0
 404 396 345 368 250 368 c 0
 179 368 127 376 85 422 c 1
 153 495 l 1xfa
EndSplineSet
EndChar
StartChar: acute
Encoding: 180 180 174
Width: 517
VWidth: -20
Flags: HW
HStem: 619 216
VStem: 97 276
LayerCount: 2
Fore
SplineSet
97 704 m 1
 167 727 252 781 308 834 c 1
 374 750 l 1
 320 695 211 642 141 619 c 1
 97 704 l 1
EndSplineSet
EndChar
StartChar: uni00B5
Encoding: 181 181 169
Width: 517
VWidth: 2
Flags: HW
HStem: -8 10G<415 438> 1 100<158 278> 488 10G<56 148>
VStem: 32 119<-193 4 107 428> 317 125<140 488>
LayerCount: 2
Fore
SplineSet
153 4 m 1x78
 151 -194 l 25
 29 -193 l 1
 32 112 l 3
 32 152 32 199 32 246 c 0
 32 351 30 456 21 484 c 1
 143 498 l 1
 154 453 150 325 151 146 c 1
 157 113 166 101 208 101 c 1x78
 305 101 317 181 317 204 c 1
 317 488 l 1
 443 488 l 1
 442 149 l 1
 443 124 475 91 500 81 c 1
 430 -8 l 1xb8
 399 6 378 29 368 53 c 1
 331 15 274 2 201 1 c 1
 197 1 l 2
 183 1 168 2 153 4 c 1x78
EndSplineSet
EndChar
StartChar: paragraph
Encoding: 182 182 170
Width: 517
VWidth: 0
Flags: HW
HStem: -5 10G<338 444> 543 105<287 340>
VStem: 18 266<328 542> 172 112<37 218> 340 104<-4 543>
LayerCount: 2
Fore
SplineSet
340 508 m 2xe8
 340 543 l 1
 335 543 308 543 297 543 c 0
 292 543 287 543 283 543 c 1xe8
 283 398 284 254 284 109 c 0
 284 64 266 -1 247 -20 c 1
 146 30 l 1
 157 51 172 69 172 108 c 2
 172 215 l 1xd8
 87 221 18 306 18 451 c 0
 18 496 27 541 53 573 c 0
 109 642 193 648 303 648 c 0
 368 648 386 645 444 645 c 1
 444 -4 l 1
 338 -5 l 1
 338 162 340 295 340 508 c 2xe8
EndSplineSet
EndChar
StartChar: cedilla
Encoding: 184 184 198
Width: 517
VWidth: 5
Flags: HW
HStem: -194 84<202 306> -58 86<219 307>
VStem: 308 109<-107 -61>
LayerCount: 2
Fore
SplineSet
328 27 m 1
 328 23 327 -8 327 -9 c 1
 374 -11 417 -39 417 -95 c 0
 417 -158 361 -194 284 -194 c 0
 252 -194 207 -186 180 -168 c 1
 209 -96 l 1
 225 -105 246 -110 271 -110 c 0
 289 -110 307 -105 308 -86 c 1
 308 -85 l 2
 308 -71 295 -58 272 -58 c 0
 249 -58 233 -59 219 -64 c 1
 219 28 l 1
 328 27 l 1
EndSplineSet
EndChar
StartChar: uni00B9
Encoding: 185 185 199
Width: 517
VWidth: 31
Flags: HW
VStem: 260 105<375 625>
LayerCount: 2
Fore
SplineSet
251 746 m 1
 365 738 l 1
 365 375 l 1
 260 375 l 1
 260 625 l 1
 225 586 189 557 128 536 c 1
 93 634 l 1
 163 653 214 681 251 746 c 1
EndSplineSet
EndChar
StartChar: ordmasculine
Encoding: 186 186 200
Width: 517
VWidth: 2
Flags: HW
HStem: 248 82<69 438> 370 85<195 308> 660 85<196 314>
VStem: 73 99<476 636> 333 99<480 640>
LayerCount: 2
Fore
SplineSet
69 330 m 1
 438 330 l 1
 438 248 l 1
 69 248 l 1
 69 330 l 1
333 570 m 0
 333 625 315 660 253 660 c 0
 203 660 172 630 172 563 c 0
 172 491 193 455 246 455 c 1
 305 455 333 480 333 570 c 0
245 370 m 1
 131 370 73 443 73 561 c 0
 73 693 158 745 237 745 c 0
 370 745 431 680 431 578 c 0
 431 423 370 370 245 370 c 1
EndSplineSet
EndChar
StartChar: onequarter
Encoding: 188 188 201
Width: 517
VWidth: 0
Flags: HW
HStem: -81 81<185 264 363 426> 253 82<38 474>
VStem: 260 105<375 625> 262 103<-154 -81> 270 93<-147 -81 5 115>
LayerCount: 2
Fore
SplineSet
38 335 m 1xc0
 474 335 l 1
 474 253 l 1
 38 253 l 1
 38 335 l 1xc0
EndSplineSet
Refer: 745 8324 N 1 0 0 1 0 0 2
Refer: 199 185 N 1 0 0 1 0 0 2
EndChar
StartChar: onehalf
Encoding: 189 189 202
Width: 517
VWidth: 0
Flags: HW
HStem: -152 83<230 407> 136 82<220 300> 253 82<38 474>
VStem: 260 105<375 625> 305 104<64 132>
LayerCount: 2
Fore
SplineSet
38 335 m 1xe0
 474 335 l 1
 474 253 l 1
 38 253 l 1
 38 335 l 1xe0
EndSplineSet
Refer: 743 8322 N 1 0 0 1 0 0 2
Refer: 199 185 N 1 0 0 1 0 0 2
EndChar
StartChar: threequarters
Encoding: 190 190 203
Width: 517
VWidth: 0
Flags: HW
HStem: -81 81<185 264 363 426> 253 82<38 474> 368 82<178 297> 485 10G<144 167> 536 64<221 288> 639 10G<169 184> 666 81<183 290>
VStem: 262 103<-154 -81> 270 93<-147 -81 5 115> 291 103<601 664> 302 102<456 527>
LayerCount: 2
Fore
SplineSet
38 335 m 1xfe
 474 335 l 1
 474 253 l 1
 38 253 l 1
 38 335 l 1xfe
EndSplineSet
Refer: 745 8324 N 1 0 0 1 0 0 2
Refer: 197 179 N 1 0 0 1 0 0 2
EndChar
StartChar: Aring
Encoding: 197 197 76
Width: 517
VWidth: 0
Flags: HW
HStem: 0 10G<3 131 366 501> 137 109<191 318> 762 69<215 294>
VStem: 3 127<0 85> 120 92<705 758> 296 93<705 758> 366 135<0 110>
AnchorPoint: "above_accent" 441 651 basechar 0
LayerCount: 2
Fore
SplineSet
254 762 m 0xec
 228 762 212 747 212 732 c 0
 212 717 229 701 254 701 c 0
 279 701 296 717 296 732 c 0
 296 747 280 762 254 762 c 0xec
318 246 m 1
 305 316 256 412 256 487 c 1
 253 405 208 305 189 237 c 1
 218 243 277 244 318 246 c 1
120 732 m 0
 120 789 183 832 255 832 c 0
 327 832 389 789 389 732 c 0xec
 389 691 360 660 314 645 c 1
 477 119 l 2
 489 79 501 39 501 0 c 1
 366 0 l 1
 366 29 361 56 354 82 c 2
 338 137 l 1
 264 136 223 138 164 123 c 1
 149 79 l 2
 139 49 131 21 130 0 c 1
 3 0 l 1xf2
 5 30 16 70 29 109 c 2
 203 644 l 1
 154 658 120 690 120 732 c 0
EndSplineSet
EndChar
StartChar: AE
Encoding: 198 198 82
Width: 517
VWidth: 0
Flags: HW
HStem: -2 102<339 464> 110 102<143 215> 313 102<315 420> 544 102<296 468>
AnchorPoint: "above_accent" 294 646 basechar 0
LayerCount: 2
Fore
SplineSet
492 16 m 1
 469 4 438 -2 401 -2 c 2
 234 -2 l 1
 229 74 224 108 224 108 c 1
 215 109 208 110 201 110 c 0
 187 110 148 109 131 105 c 1
 123 70 119 35 114 0 c 1
 0 0 l 1
 11 89 87 437 133 646 c 1
 204 645 l 1
 225 646 251 646 280 646 c 0
 300 646 320 646 341 646 c 2
 468 646 l 1
 468 545 l 1
 460 545 l 2
 419 545 425 544 365 544 c 2
 296 544 l 1
 308 413 l 1
 333 413 327 415 369 415 c 2
 420 415 l 1
 420 313 l 1
 369 313 l 2
 329 313 337 312 315 312 c 1
 339 99 l 1
 416 99 l 1
 446 99 464 111 464 111 c 1
 492 16 l 1
215 212 m 1
 194 487 l 1
 173 392 156 299 143 209 c 1
 157 210 190 212 215 212 c 1
EndSplineSet
EndChar
StartChar: Ccedilla
Encoding: 199 199 83
Width: 517
VWidth: 2
Flags: HW
HStem: -216 84<209 313> -80 176<227 313> 551 100<223 334>
VStem: 27 128<181 457> 314 109<-129 -83>
LayerCount: 2
Fore
SplineSet
276 551 m 0
 220 551 155 485 155 307 c 0
 155 173 212 97 264 97 c 2
 271 97 l 2
 332 97 350 128 373 191 c 1
 493 125 l 1
 464 63 404 19 334 4 c 1
 334 -3 334 -30 334 -31 c 1
 381 -33 423 -61 423 -117 c 0
 423 -180 368 -216 291 -216 c 0
 259 -216 213 -207 186 -189 c 1
 215 -118 l 1
 231 -127 253 -132 278 -132 c 0
 296 -132 313 -127 314 -108 c 1
 314 -107 l 2
 314 -93 302 -80 279 -80 c 0
 256 -80 240 -81 226 -86 c 1
 226 3 l 1
 186 10 146 26 115 57 c 1
 56 118 27 200 27 311 c 0
 27 437 67 515 92 553 c 0
 127 606 194 650 279 650 c 0
 347 650 433 620 476 541 c 1
 362 479 l 1
 338 540 318 551 276 551 c 0
EndSplineSet
EndChar
StartChar: Eth
Encoding: 208 208 152
Width: 517
VWidth: 0
Flags: HW
HStem: -5 100<158 284> 357 103<3 37 160 284> 550 100<160 263>
VStem: 37 123<97 357 460 549> 343 130<156 426>
LayerCount: 2
Fore
SplineSet
197 550 m 2
 182 550 l 2
 174 550 168 550 160 549 c 1
 160 536 161 521 161 506 c 0
 161 486 160 475 160 460 c 1
 284 460 l 1
 285 358 l 1
 160 357 l 1
 160 238 158 137 158 97 c 1
 201 96 178 95 207 95 c 0
 208 95 l 0
 228 95 298 96 330 172 c 0
 339 194 343 239 343 266 c 0
 343 452 291 550 197 550 c 2
37 460 m 1
 37 477 l 2
 37 540 35 600 31 643 c 1
 71 647 93 650 141 650 c 0
 273 650 349 610 409 521 c 1
 450 459 473 371 473 283 c 0
 473 249 469 216 463 184 c 0
 440 66 361 7 273 -1 c 0
 246 -3 221 -5 194 -5 c 0
 153 -5 89 -1 33 -1 c 1
 33 16 33 14 34 62 c 1
 34 84 37 221 37 357 c 1
 3 357 l 1
 3 460 l 1
 37 460 l 1
EndSplineSet
EndChar
StartChar: multiply
Encoding: 215 215 128
Width: 517
VWidth: 2
Flags: HW
LayerCount: 2
Fore
SplineSet
97 488 m 1
 138 459 202 380 244 338 c 1
 395 483 l 1
 479 398 l 1
 327 253 l 1
 398 180 417 157 479 93 c 1
 396 13 l 1
 329 86 362 50 247 172 c 1
 101 19 l 1
 16 107 l 1
 161 259 l 1
 93 329 42 387 15 408 c 1
 97 488 l 1
EndSplineSet
EndChar
StartChar: Oslash
Encoding: 216 216 127
Width: 517
VWidth: 0
Flags: HW
HStem: -8 99<189 297> 560 99<203 302> 688 10G<401 423>
VStem: 18 127<231 471> 351 127<167 396>
AnchorPoint: "above_accent" 251 646 basechar 0
LayerCount: 2
Fore
SplineSet
432 551 m 1
 459 500 477 425 478 316 c 1
 478 311 l 2
 478 229 462 152 439 106 c 0
 402 34 330 -8 249 -8 c 0
 212 -8 171 0 135 17 c 1
 94 -56 l 1
 16 -5 l 1
 32 23 48 52 64 80 c 1
 30 133 18 203 18 283 c 0
 18 455 47 533 81 580 c 0
 113 625 179 658 255 659 c 1
 287 659 329 653 368 626 c 1
 381 650 395 673 408 697 c 1
 486 648 l 1
 432 551 l 1
188 113 m 1
 205 95 222 91 249 91 c 0
 288 91 312 121 327 159 c 1
 340 188 351 264 351 312 c 1
 351 321 l 2
 351 344 349 372 347 399 c 1
 188 113 l 1
312 525 m 1
 295 551 276 560 254 560 c 0
 222 560 205 548 185 513 c 0
 162 472 145 408 145 289 c 0
 145 272 146 251 148 230 c 1
 203 329 258 427 312 525 c 1
EndSplineSet
EndChar
StartChar: Thorn
Encoding: 222 222 204
Width: 517
VWidth: 0
Flags: HW
HStem: -5 10G<51 173> 214 102<173 313> 482 103<174 321> 639 10G<148 174>
VStem: 51 122<-4 216 317 480 585 645> 349 128<347 456>
LayerCount: 2
Fore
SplineSet
349 405 m 0
 349 464 291 482 251 482 c 0
 247 482 l 1
 217 482 196 480 174 480 c 1
 174 445 l 2
 174 354 173 317 173 317 c 1
 191 317 208 316 224 316 c 0
 281 316 349 327 349 405 c 0
173 -5 m 1
 51 -4 l 1
 51 645 l 1
 103 645 123 648 174 648 c 1
 174 585 l 1
 180 585 186 585 192 585 c 0
 302 585 385 579 441 510 c 0
 467 478 477 457 477 412 c 0
 477 311 416 214 248 214 c 0
 225 214 199 215 173 216 c 1
 173 85 173 73 173 -5 c 1
EndSplineSet
EndChar
StartChar: germandbls
Encoding: 223 223 167
Width: 517
VWidth: 0
Flags: HW
HStem: -1 98<287 344> 310 101<184 256> 548 101<163 256>
VStem: 33 122<128 540> 182 100<99 156> 271 119<424 532> 355 119<103 258>
LayerCount: 2
Fore
SplineSet
33 490 m 0xf4
 33 566 89 648 190 648 c 0
 305 648 390 607 390 493 c 1xf4
 390 433 368 398 327 380 c 1
 397 368 475 323 475 186 c 0
 475 37 412 -1 305 -1 c 0
 214 -1 182 47 182 146 c 0
 182 150 183 153 183 157 c 1
 282 156 l 1
 282 125 284 97 315 97 c 0
 341 97 355 121 355 193 c 0xfa
 355 246 325 310 184 310 c 1
 184 410 l 1
 265 410 271 442 271 490 c 0
 271 532 231 548 202 548 c 1
 169 548 154 524 154 492 c 0
 154 416 157 311 157 220 c 0
 157 200 157 181 157 162 c 0
 157 123 156 86 146 57 c 0
 133 17 82 -4 55 -18 c 1
 10 103 l 1
 20 108 29 114 33 127 c 0
 37 140 37 157 37 194 c 0
 37 201 37 210 37 219 c 0
 37 310 33 405 33 490 c 0xf4
EndSplineSet
EndChar
StartChar: ae
Encoding: 230 230 65
Width: 517
VWidth: 2
Flags: HW
HStem: 0 102<320 387> 2 77<133 190> 218 101<316 386> 248 75<136 203> 395 103<109 194 321 376>
VStem: 11 114<83 245> 204 112<104 218 319 386>
AnchorPoint: "above_accent" 251 541 basechar 0
LayerCount: 2
Fore
SplineSet
316 330 m 2x2e
 316 319 l 1
 335 319 366 319 387 322 c 1
 384 373 372 395 343 395 c 0
 323 395 316 372 316 330 c 2x2e
125 157 m 0
 125 104 138 79 157 79 c 0
 201 79 199 146 204 160 c 1
 204 231 l 1
 183 243 179 248 153 248 c 0x5e
 137 248 125 206 125 157 c 0
353 0 m 0xae
 276 0 257 36 247 47 c 1
 232 30 202 2 152 2 c 0
 121 2 89 9 63 28 c 0
 23 56 11 103 11 151 c 0
 11 233 42 323 142 323 c 0x5e
 180 323 185 315 204 307 c 1
 204 354 202 395 150 395 c 2
 146 395 l 2
 120 395 111 385 97 343 c 1
 0 383 l 1
 34 474 88 497 146 497 c 0
 173 497 196 496 226 473 c 1
 235 465 244 453 250 444 c 1
 258 457 287 497 337 497 c 1
 435 497 483 388 487 278 c 1
 487 222 l 1
 439 220 372 218 332 218 c 0
 326 218 320 218 316 218 c 1
 315 134 l 1
 323 113 329 102 348 102 c 0
 385 102 391 120 394 142 c 1
 486 106 l 1
 486 106 463 0 353 0 c 0xae
EndSplineSet
EndChar
StartChar: ccedilla
Encoding: 231 231 81
Width: 517
VWidth: 5
Flags: HW
HStem: -210 84<192 296> -74 174<210 296> 394 103<207 338>
VStem: 35 125<149 343> 297 109<-123 -77>
LayerCount: 2
Fore
SplineSet
160 258 m 0
 160 102 242 100 265 100 c 2
 271 100 l 2
 320 100 346 131 369 171 c 1
 479 105 l 1
 451 42 400 8 318 -1 c 1
 318 -11 317 -25 317 -26 c 1
 364 -28 407 -56 407 -112 c 0
 407 -175 351 -210 274 -210 c 0
 242 -210 196 -202 169 -184 c 1
 199 -112 l 1
 215 -121 237 -126 262 -126 c 0
 280 -126 296 -122 297 -103 c 1
 297 -102 l 2
 297 -88 286 -74 263 -74 c 0
 240 -74 223 -76 209 -81 c 1
 209 0 l 1
 177 4 145 15 118 36 c 1
 55 85 35 160 35 257 c 0
 35 423 121 497 275 497 c 0
 321 497 369 488 400 467 c 0
 429 447 451 419 462 394 c 1
 355 344 l 1
 350 363 335 394 267 394 c 0
 195 394 160 328 160 258 c 0
EndSplineSet
EndChar
StartChar: eth
Encoding: 240 240 205
Width: 517
VWidth: 2
Flags: HW
HStem: 0 103<194 310> 683 10G<402 430>
VStem: 42 123<135 304> 346 123<143 357>
LayerCount: 2
Fore
SplineSet
334 360 m 1
 214 360 165 313 165 219 c 0
 165 150 195 103 236 103 c 0
 319 103 346 146 346 247 c 0
 346 308 340 337 334 360 c 1
166 595 m 1
 155 612 116 646 115 650 c 1
 222 705 l 1
 237 685 262 651 276 634 c 1
 427 692 l 1
 456 594 l 1
 327 562 l 1
 414 457 469 375 469 246 c 0
 469 81 393 0 236 0 c 2
 235 0 l 1
 102 0 42 82 42 219 c 0
 42 346 101 443 281 455 c 1
 277 460 237 503 223 518 c 1
 178 504 120 481 81 467 c 1
 52 565 l 1
 52 565 136 584 166 595 c 1
EndSplineSet
EndChar
StartChar: divide
Encoding: 247 247 146
Width: 517
VWidth: 2
Flags: HW
HStem: 1 138<174 328> 202 119<35 468> 370 137<174 328>
VStem: 174 154<1 139 370 507>
LayerCount: 2
Fore
SplineSet
174 507 m 1
 328 507 l 1
 328 370 l 1
 174 370 l 1
 174 507 l 1
174 139 m 1
 328 139 l 1
 328 1 l 1
 174 1 l 1
 174 139 l 1
32 319 m 1
 54 320 79 321 103 321 c 0
 152 321 201 319 234 319 c 0
 254 319 273 319 292 319 c 0
 332 319 407 318 459 318 c 1
 468 318 l 1
 468 199 l 1
 459 199 l 1
 393 200 294 200 233 200 c 0
 212 200 168 202 119 202 c 0
 91 202 62 201 35 200 c 1
 35 259 l 1
 32 319 l 1
EndSplineSet
EndChar
StartChar: oslash
Encoding: 248 248 140
Width: 517
VWidth: 2
Flags: HW
HStem: -3 99<195 298> 405 99<197 295>
VStem: 35 123<239 359> 334 125<136 286>
AnchorPoint: "above_accent" 249 541 basechar 0
LayerCount: 2
Fore
SplineSet
305 121 m 1
 328 146 334 197 334 259 c 0
 334 262 334 264 334 267 c 0
 334 274 334 280 334 286 c 1
 187 126 l 1
 202 107 222 96 248 96 c 0
 275 96 287 103 305 121 c 1
414 521 m 1
 487 453 l 1
 435 396 l 1
 452 358 459 308 459 265 c 0
 459 126 413 -3 249 -3 c 2
 248 -3 l 2
 187 -3 141 12 107 39 c 1
 71 0 l 1
 0 65 l 1
 51 121 l 1
 40 152 35 188 35 227 c 0
 35 408 104 504 247 504 c 0
 300 504 340 494 371 474 c 1
 414 521 l 1
296 392 m 1
 285 401 272 405 254 405 c 0
 181 405 158 338 158 239 c 1
 296 392 l 1
EndSplineSet
EndChar
StartChar: thorn
Encoding: 254 254 206
Width: 517
VWidth: 0
Flags: HW
HStem: -4 98<201 305> 396 98<208 315> 630 10G<66 154>
VStem: 51 120<-194 28 125 359> 51 110<450 626> 337 125<128 375>
LayerCount: 2
Fore
SplineSet
51 361 m 1xec
 51 515 l 2
 51 556 45 595 40 627 c 1
 151 640 l 1
 155 628 161 610 161 591 c 0
 161 450 l 1xec
 188 480 229 494 284 494 c 0
 418 494 462 400 462 269 c 0
 462 105 427 -4 250 -4 c 0
 201 -4 178 14 164 29 c 1
 166 9 170 -9 171 -30 c 1
 171 -74 l 2xf4
 171 -120 175 -161 178 -194 c 1
 57 -198 l 1
 53 -162 50 -115 50 -71 c 2
 51 361 l 1xec
337 259 m 0
 337 353 319 396 276 396 c 0
 213 396 192 363 170 320 c 1
 171 152 l 1xf4
 190 124 215 94 252 94 c 0
 308 94 337 129 337 259 c 0
EndSplineSet
EndChar
StartChar: Aogonek
Encoding: 260 260 209
Width: 517
VWidth: 15
Flags: HW
HStem: -245 96<324 448> 0 10G<3 131> 137 109<191 318> 637 10G<201 316>
VStem: 3 127<0 85> 199 122<-143 -78>
LayerCount: 2
Fore
SplineSet
502 0 m 1
 385 -49 321 -70 321 -121 c 0
 321 -142 348 -149 379 -149 c 0
 407 -149 427 -135 442 -124 c 1
 502 -193 l 1
 481 -216 424 -245 375 -245 c 0
 286 -245 199 -217 199 -125 c 0
 199 -28 314 -6 363 40 c 1
 361 54 358 68 354 82 c 2
 338 137 l 1
 264 136 223 138 164 123 c 1
 149 79 l 2
 139 49 131 21 130 0 c 1
 3 0 l 1
 5 30 16 70 29 109 c 2
 204 647 l 1
 313 647 l 1
 477 119 l 2
 489 80 501 40 501 1 c 1
 502 0 l 1
318 246 m 1
 305 316 256 412 256 487 c 1
 253 405 208 305 189 237 c 1
 218 243 277 244 318 246 c 1
EndSplineSet
EndChar
StartChar: aogonek
Encoding: 261 261 210
Width: 517
VWidth: 15
Flags: HW
HStem: -245 96<288 413> -5 98<159 270> 229 98<172 296> 400 102<157 286>
VStem: 22 124<106 205> 163 122<-144 -89> 313 119<135 211 304 371>
LayerCount: 2
Fore
SplineSet
146 155 m 0
 146 107 180 92 211 92 c 0
 265 92 304 142 313 169 c 1
 313 192 l 1
 295 213 262 229 231 229 c 0
 199 229 146 209 146 155 c 0
352 49 m 1
 315 11 275 -5 186 -5 c 0
 103 -5 22 58 22 147 c 0
 22 191 37 234 66 264 c 0
 112 311 162 327 231 327 c 0
 262 327 294 317 313 304 c 1
 313 385 257 400 228 400 c 0
 172 400 142 371 116 333 c 1
 21 387 l 1
 68 476 144 501 231 502 c 1
 341 502 433 436 433 320 c 2
 433 154 l 2
 433 109 442 84 470 62 c 1
 380 -79 285 -72 285 -122 c 0
 285 -143 313 -149 344 -149 c 0
 372 -149 391 -136 406 -125 c 1
 467 -193 l 1
 446 -216 388 -245 339 -245 c 0
 250 -245 163 -218 163 -126 c 0
 163 -38 352 -25 352 49 c 1
EndSplineSet
EndChar
StartChar: dcaron
Encoding: 271 271 211
Width: 517
VWidth: 15
Flags: HW
HStem: -3 88<165 247> 397 98<170 258> 680 10G<294 410 446 487>
VStem: 22 117<114 363> 290 112<132 365 456 683>
LayerCount: 2
Fore
SplineSet
139 233 m 0
 139 140 158 84 207 84 c 0
 235 84 267 120 290 170 c 1
 290 333 l 1
 275 360 247 397 214 397 c 0
 172 397 139 361 139 233 c 0
22 224 m 0
 22 410 77 495 198 495 c 0
 250 495 284 468 301 454 c 1
 293 492 290 518 290 562 c 3
 290 606 292 653 296 689 c 1
 410 685 l 1
 407 652 403 611 403 565 c 0
 403 428 402 252 402 130 c 0
 402 126 402 123 402 119 c 0
 402 78 407 35 411 3 c 1
 321 -6 l 1
 321 -6 301 24 301 45 c 1
 283 19 247 -3 190 -3 c 0
 75 -3 22 74 22 224 c 0
539 666 m 1
 524 610 514 555 497 480 c 1
 425 497 l 1
 432 568 442 638 450 689 c 1
 539 666 l 1
EndSplineSet
EndChar
StartChar: dcroat
Encoding: 273 273 213
Width: 517
VWidth: 0
Flags: HW
HStem: -3 88<198 285> 397 98<203 297> 534 95<195 333 454 474> 680 10G<337 459>
VStem: 45 125<115 359> 331 120<134 363 455 534 628 684>
LayerCount: 2
Fore
SplineSet
170 233 m 0
 170 140 189 84 242 84 c 0
 272 84 306 120 331 170 c 1
 331 333 l 1
 315 360 285 397 250 397 c 0
 205 397 170 361 170 233 c 0
45 224 m 0
 45 410 105 495 233 495 c 0
 289 495 325 468 343 454 c 1
 337 483 333 506 332 534 c 1
 195 534 l 1
 195 628 l 1
 333 628 l 1
 334 650 336 671 338 689 c 1
 459 685 l 1
 457 668 455 649 454 628 c 1
 474 628 l 1
 474 534 l 1
 452 534 l 1
 452 403 451 242 451 130 c 0
 451 126 451 123 451 119 c 0
 451 78 455 35 460 3 c 1
 365 -6 l 1
 365 -6 343 24 343 45 c 1
 324 19 286 -3 225 -3 c 0
 102 -3 45 74 45 224 c 0
EndSplineSet
EndChar
StartChar: Eogonek
Encoding: 280 280 218
Width: 517
VWidth: 15
Flags: HW
HStem: -245 95<279 404> 0 100<175 274> 315 99<176 341> 546 100<176 434>
VStem: 50 126<100 315 415 546> 154 122<-143 -82>
LayerCount: 2
Fore
SplineSet
50 644 m 1xf8
 77 646 111 646 149 646 c 0
 164 646 180 646 197 646 c 2
 251 646 l 2
 324 646 390 645 426 645 c 2
 434 645 l 1
 434 546 l 1
 176 546 l 1
 176 415 l 1
 341 415 l 1
 341 315 l 1
 176 315 l 1
 176 300 l 2xf8
 176 199 175 139 175 100 c 1
 378 101 l 2
 405 101 439 114 439 114 c 1
 474 17 l 1
 339 -61 276 -72 276 -122 c 0
 276 -143 304 -149 335 -149 c 0
 363 -149 382 -136 397 -125 c 1
 458 -193 l 1
 437 -216 379 -245 330 -245 c 0
 241 -245 154 -217 154 -125 c 0xf4
 154 -64 198 -43 274 0 c 1
 50 0 l 1
 50 644 l 1xf8
EndSplineSet
EndChar
StartChar: eogonek
Encoding: 281 281 219
Width: 517
VWidth: 15
Flags: HW
HStem: -245 96<258 383> -5 101<200 243> 212 96<198 330> 399 99<199 304>
VStem: 38 126<136 197 296 360> 133 122<-144 -83> 330 127<308 373>
LayerCount: 2
Fore
SplineSet
164 296 m 1xfa
 219 306 265 308 330 308 c 1
 328 372 293 399 250 399 c 0
 200 399 167 353 164 296 c 1xfa
249 499 m 0
 405 499 458 397 458 233 c 0
 458 223 457 212 457 212 c 1
 318 210 214 203 164 193 c 1xfa
 172 139 203 96 248 96 c 0
 300 96 317 101 347 144 c 1
 444 81 l 1
 374 -30 255 -70 255 -122 c 0
 255 -143 282 -149 313 -149 c 0
 341 -149 361 -136 376 -125 c 1
 437 -193 l 1
 416 -216 358 -245 309 -245 c 0
 220 -245 133 -218 133 -126 c 0xf6
 133 -72 188 -47 243 -5 c 1
 105 -4 38 100 38 252 c 0
 38 392 111 499 249 499 c 0
EndSplineSet
EndChar
StartChar: Hbar
Encoding: 294 294 232
Width: 517
VWidth: 0
Flags: HW
HStem: 0 10G<29 155 330 454> 292 105<157 330> 484 101<0 29 155 329 454 493> 636 7G<29 155 329 454>
VStem: 29 125<0 283 383 484 585 645> 330 125<0 292 397 484 585 643>
LayerCount: 2
Fore
SplineSet
29 585 m 1
 29 645 l 1
 155 646 l 1
 155 585 l 1
 329 585 l 1
 329 603 329 621 329 643 c 1
 454 643 l 1
 454 585 l 1
 493 585 l 1
 493 484 l 1
 454 484 l 1
 454 0 l 1
 330 0 l 1
 330 292 l 1
 314 292 l 2
 243 292 212 291 154 278 c 1
 154 107 155 90 155 0 c 1
 29 0 l 1
 29 484 l 1
 0 484 l 1
 0 585 l 1
 29 585 l 1
330 484 m 1
 154 484 l 1
 154 383 l 1
 199 393 228 397 287 397 c 2
 330 397 l 1
 330 432 330 461 330 484 c 1
EndSplineSet
EndChar
StartChar: hbar
Encoding: 295 295 233
Width: 517
VWidth: 0
Flags: HW
HStem: 0 10G<68 188> 396 98<223 327> 544 101<0 65 189 349> 679 10G<62 183>
VStem: 68 120<0 362 455 544 645 684> 355 119<12 366>
LayerCount: 2
Fore
SplineSet
475 276 m 2
 475 106 l 2
 475 66 478 30 488 11 c 1
 377 -16 l 1
 366 0 355 32 355 86 c 2
 355 240 l 2
 355 391 316 396 271 396 c 0
 236 396 204 360 188 333 c 1
 188 0 l 1
 68 0 l 1
 69 544 l 1
 0 544 l 1
 0 645 l 1
 65 645 l 1
 64 659 63 673 62 685 c 1
 183 689 l 1
 184 676 186 661 187 645 c 1
 349 645 l 1
 349 544 l 1
 189 544 l 1
 188 510 185 486 178 454 c 1
 196 468 231 494 287 494 c 0
 409 494 475 433 475 276 c 2
EndSplineSet
EndChar
StartChar: Iogonek
Encoding: 302 302 240
Width: 517
VWidth: 15
Flags: HW
HStem: -244 96<241 366> -1 108<65 179 345 414> 543 104<67 179 304 416>
VStem: 116 122<-143 -71> 179 125<107 546>
LayerCount: 2
Fore
SplineSet
64 646 m 1xe8
 140 648 190 649 237 649 c 0
 288 649 337 648 417 647 c 1
 416 544 l 1
 356 544 350 547 304 547 c 1
 304 107 l 1xe8
 326 107 319 107 344 107 c 0
 366 107 389 106 414 105 c 1
 415 -0 l 1
 294 -32 238 -71 238 -121 c 0
 238 -142 266 -148 297 -148 c 0
 325 -148 344 -135 359 -124 c 1
 420 -192 l 1
 399 -215 341 -244 292 -244 c 0
 203 -244 116 -217 116 -125 c 0xf0
 116 -67 155 -38 227 2 c 1
 190 2 134 -1 65 -1 c 1
 65 104 l 1
 107 106 125 106 153 106 c 2
 179 106 l 1
 179 546 l 1
 147 546 119 546 67 543 c 1
 64 646 l 1xe8
EndSplineSet
EndChar
StartChar: iogonek
Encoding: 303 303 241
Width: 517
VWidth: 15
Flags: HW
HStem: -245 95<309 433> 397 98<61 173> 577 110<161 303>
VStem: 161 142<577 687> 173 125<94 134 134 397> 184 122<-143 -78>
LayerCount: 2
Fore
SplineSet
161 687 m 1xf0
 303 687 l 1
 303 577 l 1
 161 577 l 1
 161 687 l 1xf0
173 495 m 2xe8
 297 495 l 1
 297 362 298 134 298 134 c 2xe8
 298 103 306 89 351 89 c 0
 396 89 426 105 455 133 c 1
 502 41 l 1
 501 40 500 39 499 38 c 0
 374 -62 306 -63 306 -121 c 0
 306 -140 334 -149 365 -149 c 0
 393 -149 412 -135 427 -124 c 1
 488 -193 l 1
 467 -216 409 -245 360 -245 c 0
 271 -245 184 -217 184 -125 c 0xe4
 184 -70 226 -47 288 -7 c 1
 259 -4 233 2 218 10 c 0
 176 33 173 72 173 101 c 2
 173 397 l 1
 149 397 105 394 59 383 c 1
 44 474 l 1
 90 488 134 495 173 495 c 2xe8
EndSplineSet
EndChar
StartChar: dotlessi
Encoding: 305 305 177
Width: 517
VWidth: 0
Flags: HW
HStem: -9 98<301 427> 397 98<61 173>
VStem: 173 125<94 134 134 397>
AnchorPoint: "above_accent" 238 541 basechar 0
LayerCount: 2
Fore
SplineSet
173 495 m 2
 297 495 l 1
 297 362 298 134 298 134 c 1
 298 103 306 89 351 89 c 0
 396 89 426 105 455 133 c 1
 502 41 l 1
 460 6 387 -9 326 -9 c 0
 284 -9 239 -2 218 10 c 0
 176 33 173 72 173 101 c 2
 173 397 l 1
 149 397 105 394 59 383 c 1
 44 474 l 1
 90 488 134 495 173 495 c 2
EndSplineSet
EndChar
StartChar: IJ
Encoding: 306 306 243
Width: 517
VWidth: 0
Flags: HW
HStem: 0 104<5 45 170 197 331 376> 541 105<174 198 274 368 479 515> 546 103<6 45 170 198>
VStem: 5 192<2 105 547 646> 45 125<107 546> 202 115<116 212> 389 119<108 506>
LayerCount: 2
Fore
SplineSet
357 0 m 0xc6
 242 0 203 105 202 212 c 1
 316 212 l 1
 319 137 335 104 354 104 c 0
 384 104 389 148 389 312 c 0
 389 358 382 495 362 539 c 1
 338 539 341 541 327 541 c 1
 289 540 284 535 274 532 c 1
 261 636 l 1
 272 639 283 645 326 646 c 1
 379 646 459 646 516 646 c 1
 515 540 l 1
 497 540 503 541 479 541 c 1
 490 483 507 366 507 312 c 0
 507 127 489 0 357 0 c 0xc6
5 646 m 1
 47 648 74 649 100 649 c 0
 128 649 154 648 198 647 c 1
 198 544 l 1
 170 547 l 1
 170 107 l 1xae
 197 105 l 1
 197 -0 l 1
 174 2 158 2 141 2 c 0
 128 2 116 2 100 2 c 0
 80 2 47 -1 5 -1 c 1
 5 104 l 1xb6
 24 105 34 106 45 106 c 1
 45 546 l 1xae
 6 543 l 1
 5 646 l 1
EndSplineSet
EndChar
StartChar: ij
Encoding: 307 307 244
Width: 517
VWidth: 0
Flags: HW
HStem: -190 99<196 346> -9 98<208 292> 388 91<16 82 273 359> 397 98<19 82 276 359> 577 110<70 213 339 480>
VStem: 70 143<577 687> 82 125<89 397> 339 142<577 687> 359 124<-80 397>
LayerCount: 2
Fore
SplineSet
82 495 m 2xda
 207 495 l 1
 207 134 l 1
 207 103 207 89 236 89 c 0
 265 89 270 90 289 118 c 1
 333 41 l 1
 306 6 259 -9 220 -9 c 0
 194 -9 149 -2 128 10 c 0
 86 33 82 72 82 101 c 2
 82 397 l 1
 77 397 73 397 70 397 c 0xda
 58 397 55 396 18 388 c 1
 3 479 l 1xea
 49 493 43 495 82 495 c 2xda
483 -38 m 1xd880
 483 -113 444 -190 304 -190 c 3
 291 -190 279 -190 266 -190 c 0
 220 -190 169 -183 72 -119 c 1
 146 -34 l 1
 208 -91 259 -92 290 -92 c 0
 293 -92 l 0
 296 -92 300 -92 302 -92 c 3
 361 -92 358 -40 359 -23 c 1
 359 397 l 1
 354 397 350 397 345 397 c 0xd880
 328 397 311 396 274 388 c 1
 260 479 l 1xe880
 306 493 320 495 359 495 c 2
 483 495 l 1
 483 -38 l 1xd880
339 687 m 1xc9
 480 687 l 1
 480 577 l 1
 339 577 l 1
 339 687 l 1xc9
70 687 m 1xcc
 213 687 l 1
 213 577 l 1
 70 577 l 1
 70 687 l 1xcc
EndSplineSet
EndChar
StartChar: Lcaron
Encoding: 317 317 254
Width: 517
VWidth: 15
Flags: HW
HStem: -1 103<202 464> 630 10G<363 425> 637 10G<77 202>
VStem: 77 125<101 647> 342 91<446 535>
LayerCount: 2
Fore
SplineSet
475 622 m 1xd8
 460 566 450 512 433 437 c 1
 342 447 l 1
 349 518 359 589 367 640 c 1
 475 622 l 1xd8
EndSplineSet
Refer: 35 76 N 1 0 0 1 0 0 2
EndChar
StartChar: lcaron
Encoding: 318 318 255
Width: 517
VWidth: 15
Flags: HW
HStem: -9 98<302 427> 495 10G<373 465> 586 98<50 173>
VStem: 173 125<94 134 134 586> 365 91<505 594>
LayerCount: 2
Fore
SplineSet
498 680 m 1
 483 624 473 570 456 495 c 1
 365 505 l 1
 372 576 382 647 390 698 c 1
 498 680 l 1
EndSplineSet
Refer: 12 108 N 1 0 0 1 0 0 2
EndChar
StartChar: Lslash
Encoding: 321 321 258
Width: 517
VWidth: 0
Flags: HW
HStem: -1 103<254 464> 488 10G<349 373> 637 10G<130 254>
VStem: 130 124<101 250 438 647>
LayerCount: 2
Fore
SplineSet
130 250 m 1
 66 216 l 1
 16 311 l 1
 130 372 l 1
 130 647 l 1
 254 647 l 1
 254 438 l 1
 368 498 l 1
 418 402 l 1
 254 316 l 1
 254 101 l 1
 410 101 l 1
 439 102 444 104 465 111 c 1
 500 15 l 1
 477 7 448 -1 411 -1 c 2
 130 -1 l 1
 130 250 l 1
EndSplineSet
EndChar
StartChar: lslash
Encoding: 322 322 259
Width: 517
VWidth: 0
Flags: HW
HStem: -9 98<297 422> 601 98<55 168>
VStem: 167 125<94 134 134 272 460 601>
LayerCount: 2
Fore
SplineSet
168 698 m 2
 292 698 l 1
 292 651 292 549 292 460 c 1
 408 521 l 1
 458 426 l 1
 292 338 l 1
 292 218 293 134 293 134 c 2
 293 103 301 89 346 89 c 0
 391 89 421 105 450 133 c 1
 497 41 l 1
 455 6 382 -9 321 -9 c 0
 279 -9 234 -2 213 10 c 0
 171 33 168 72 168 101 c 2
 167 272 l 1
 107 240 l 1
 57 335 l 1
 167 394 l 1
 168 601 l 1
 144 601 99 598 53 587 c 1
 39 678 l 1
 85 692 129 698 168 698 c 2
EndSplineSet
EndChar
StartChar: Eng
Encoding: 330 330 266
Width: 517
VWidth: 0
Flags: HW
HStem: -193 108<191 297> -1 10G<37 160> 531 102<216 320> 634 10G<84 121>
VStem: 37 124<0 464> 342 123<-40 512>
LayerCount: 2
Fore
SplineSet
264 633 m 1
 406 633 463 538 463 420 c 0
 463 307 465 196 465 81 c 2
 465 64 l 2
 465 -61 452 -193 208 -193 c 2
 191 -193 l 1
 191 -85 l 1
 330 -85 342 -28 342 52 c 2
 342 416 l 2
 342 506 321 531 263 531 c 0
 212 531 178 458 160 425 c 1
 160 0 l 1
 37 -1 l 1
 37 517 l 2
 37 573 18 615 18 615 c 1
 117 644 l 1
 126 625 134 610 137 572 c 1
 174 609 207 633 264 633 c 1
EndSplineSet
EndChar
StartChar: eng
Encoding: 331 331 267
Width: 517
VWidth: 2
Flags: HW
HStem: -199 107<202 263> 0 10G<49 172> 400 101<215 308>
VStem: 49 123<0 360> 312 123<-41 396>
LayerCount: 2
Fore
SplineSet
165 453 m 1
 192 477 239 501 293 501 c 0
 373 501 436 469 436 389 c 2
 436 136 l 1
 436 -58 404 -199 202 -199 c 1
 202 -92 l 1
 307 -92 312 16 312 93 c 2
 312 341 l 2
 312 377 308 400 275 400 c 0
 244 400 213 381 171 345 c 1
 172 0 l 1
 49 0 l 1
 49 345 l 2
 49 432 45 444 33 490 c 1
 146 514 l 1
 151 502 162 477 165 453 c 1
EndSplineSet
EndChar
StartChar: OE
Encoding: 338 338 149
Width: 517
VWidth: 0
Flags: HW
HStem: -4 100<169 213 335 459> 314 100<335 437> 550 99<174 213 335 470>
VStem: 5 125<144 484> 213 122<101 314 415 550>
LayerCount: 2
Fore
SplineSet
213 97 m 1
 213 550 l 1
 160 550 131 464 131 282 c 0
 131 172 157 96 204 96 c 0
 212 96 207 97 213 97 c 1
396 101 m 1
 425 102 438 105 460 113 c 1
 493 16 l 1
 441 2 380 0 326 -0 c 0
 303 0 278 0 251 0 c 1
 243 -3 196 -4 189 -4 c 0
 40 2 5 143 5 292 c 0
 5 505 53 649 217 649 c 0
 230 649 243 648 256 646 c 1
 285 647 315 647 346 647 c 0
 388 647 430 647 470 647 c 1
 470 550 l 1
 425 550 429 551 394 551 c 0
 377 551 358 550 335 550 c 1
 335 415 l 1
 437 415 l 1
 437 314 l 1
 335 314 l 1
 335 215 335 140 335 101 c 1
 396 101 l 1
EndSplineSet
EndChar
StartChar: oe
Encoding: 339 339 95
Width: 517
VWidth: 2
Flags: HW
HStem: 0 102<141 190 320 389> 218 101<316 386> 396 100<149 195 320 376>
VStem: 12 111<115 368> 201 115<109 218 319 393>
LayerCount: 2
Fore
SplineSet
486 106 m 1
 486 106 445 0 346 0 c 0
 301 0 264 19 238 46 c 1
 226 30 200 0 164 0 c 0
 137 0 103 2 64 44 c 0
 14 98 12 185 12 224 c 0
 12 246 12 286 17 310 c 1
 27 370 58 497 160 497 c 0
 199 497 217 484 237 466 c 0
 242 462 247 458 249 455 c 1
 260 473 281 497 337 497 c 0
 435 497 483 388 487 278 c 1
 487 222 l 1
 439 220 372 218 332 218 c 0
 326 218 320 218 316 218 c 1
 315 134 l 1
 323 113 329 102 348 102 c 0
 385 102 391 120 394 142 c 1
 486 106 l 1
316 330 m 2
 316 319 l 1
 335 319 366 319 387 322 c 1
 384 373 375 395 337 395 c 0
 317 395 316 372 316 330 c 2
161 102 m 0
 186 102 200 136 200 165 c 2
 201 341 l 2
 201 352 199 396 164 396 c 0
 150 396 124 335 123 231 c 0
 123 228 123 226 123 223 c 0
 123 177 136 102 161 102 c 0
EndSplineSet
EndChar
StartChar: Scedilla
Encoding: 350 350 284
Width: 517
VWidth: 15
Flags: HW
HStem: -219 84<182 286> -1 99<175 199 308 321> 546 103<169 297>
VStem: 13 129<130 205> 25 131<443 530> 287 109<-132 -86> 350 126<125 247>
LayerCount: 2
Fore
SplineSet
113 343 m 0xf2
 59 367 25 412 25 491 c 0
 25 598 104 648 229 648 c 0
 230 648 233 648 234 648 c 0
 351 648 447 608 469 526 c 1
 335 477 l 1
 313 526 271 546 237 546 c 0
 195 546 156 528 156 495 c 0
 156 447 183 436 211 425 c 0
 271 402 307 397 371 367 c 1
 424 341 476 290 476 193 c 0xea
 476 69 402 14 308 -0 c 1
 308 -9 307 -34 307 -35 c 1
 354 -37 396 -65 396 -121 c 0
 396 -184 341 -219 264 -219 c 0
 232 -219 186 -211 159 -193 c 1
 188 -121 l 1
 204 -130 226 -135 251 -135 c 0
 269 -135 286 -130 287 -111 c 1
 287 -110 l 2xe4
 287 -96 275 -83 252 -83 c 0
 229 -83 213 -84 199 -89 c 1
 199 -1 l 1
 62 18 13 105 13 206 c 1
 143 205 l 1
 143 135 174 98 248 98 c 0
 301 98 350 116 350 187 c 0
 350 240 316 267 277 284 c 0
 220 309 178 313 113 343 c 0xf2
EndSplineSet
EndChar
StartChar: scedilla
Encoding: 351 351 285
Width: 517
VWidth: 15
Flags: HW
HStem: -225 84<164 268> -88 177<182 269> 405 98<180 311>
VStem: 31 124<103 161> 55 124<342 399> 270 109<-138 -91> 315 124<104 193>
LayerCount: 2
Fore
SplineSet
122 268 m 0xf2
 82 288 55 327 55 381 c 0
 55 472 148 502 233 502 c 0
 301 502 376 495 430 436 c 1
 343 356 l 1
 317 384 281 405 234 405 c 0
 194 405 179 394 179 375 c 0
 179 361 181 351 195 342 c 1
 320 291 439 275 439 136 c 0xea
 439 57 369 14 317 0 c 0
 308 -2 299 -4 290 -5 c 1
 290 -7 290 -13 290 -18 c 0
 290 -28 290 -39 290 -40 c 1
 337 -42 379 -70 379 -126 c 0
 379 -189 323 -225 246 -225 c 0
 214 -225 169 -216 142 -198 c 1
 171 -126 l 1
 187 -135 209 -141 234 -141 c 0
 252 -141 269 -136 270 -117 c 1
 270 -116 l 2xe4
 270 -102 258 -88 235 -88 c 0
 212 -88 196 -90 182 -95 c 1
 182 -6 l 1
 87 10 31 71 31 161 c 1
 155 161 l 1
 155 108 178 89 231 89 c 0
 260 89 315 99 315 142 c 0
 315 171 305 187 281 203 c 1
 247 224 167 246 122 268 c 0xf2
EndSplineSet
EndChar
StartChar: Tcommaaccent
Encoding: 354 354 288
Width: 517
VWidth: 15
Flags: HW
HStem: -219 84<165 269> 546 101<19 173 300 444>
VStem: 173 127<-4 546> 271 109<-132 -86>
LayerCount: 2
Fore
SplineSet
173 -4 m 1xe0
 173 546 l 1
 76 546 56 545 19 545 c 1
 19 646 l 1
 79 646 300 647 392 647 c 0
 428 647 462 642 474 639 c 1
 444 540 l 1
 444 540 419 546 390 546 c 2
 300 546 l 1
 300 -4 l 1xe0
 291 -4 l 1
 291 -14 291 -33 291 -34 c 1
 338 -36 380 -64 380 -120 c 0
 380 -183 324 -219 247 -219 c 0
 215 -219 170 -211 143 -193 c 1
 172 -121 l 1
 188 -130 210 -135 235 -135 c 0
 253 -135 270 -130 271 -111 c 1
 271 -110 l 2xd0
 271 -96 259 -83 236 -83 c 0
 213 -83 197 -84 183 -89 c 1
 183 -4 l 1
 173 -4 l 1xe0
EndSplineSet
EndChar
StartChar: tcommaaccent
Encoding: 355 355 289
Width: 517
VWidth: 15
Flags: HW
HStem: -217 84<190 294> -81 177<209 294> 396 100<24 24 25 71 195 381>
VStem: 66 123<115 396 498 607> 295 109<-130 -84>
LayerCount: 2
Fore
SplineSet
189 212 m 1
 189 193 l 2
 189 128 209 105 250 98 c 0
 259 97 275 96 281 96 c 0
 313 96 328 102 340 109 c 0
 365 123 371 157 374 166 c 1
 476 117 l 1
 471 103 445 49 390 17 c 0
 369 5 344 0 316 -2 c 1
 316 -12 315 -32 315 -33 c 1
 362 -35 405 -63 405 -119 c 0
 405 -182 349 -217 272 -217 c 0
 240 -217 194 -209 167 -191 c 1
 197 -119 l 1
 213 -128 235 -133 260 -133 c 0
 278 -133 294 -128 295 -109 c 1
 295 -108 l 2
 295 -94 284 -81 261 -81 c 0
 238 -81 222 -82 208 -87 c 1
 208 1 l 1
 153 9 109 29 85 80 c 0
 68 115 66 152 66 194 c 2
 66 215 l 1
 67 259 69 316 71 396 c 1
 64 396 l 2
 50 396 37 394 24 391 c 1
 16 490 l 1
 28 494 49 496 65 496 c 2
 73 496 l 1
 73 530 73 576 73 610 c 1
 196 607 l 1
 196 575 195 531 195 498 c 1
 248 498 378 496 382 496 c 1
 381 396 l 1
 314 396 259 397 194 397 c 1
 191 315 191 261 189 212 c 1
EndSplineSet
EndChar
StartChar: tcaron
Encoding: 357 357 291
Width: 517
VWidth: 15
Flags: HW
HStem: -3 99<231 371> 393 100<214 423>
VStem: 87 123<115 393 495 607> 331 91<545 634>
LayerCount: 2
Fore
SplineSet
463 721 m 1
 448 665 439 610 422 535 c 1
 331 545 l 1
 338 616 348 687 356 738 c 1
 463 721 l 1
EndSplineSet
Refer: 19 116 N 1 0 0 1 0 0 2
EndChar
StartChar: Tbar
Encoding: 358 358 292
Width: 517
VWidth: 0
Flags: HW
HStem: -4 10G<173 300> 246 106<62 173 300 402> 546 101<19 173 300 444>
VStem: 173 127<-4 246 352 546>
LayerCount: 2
Fore
SplineSet
173 246 m 1
 62 246 l 1
 62 352 l 1
 173 352 l 1
 173 546 l 1
 76 546 56 545 19 545 c 1
 19 646 l 1
 79 646 300 647 392 647 c 0
 428 647 462 642 474 639 c 1
 444 540 l 1
 444 540 419 546 390 546 c 2
 300 546 l 1
 300 352 l 1
 402 352 l 1
 402 246 l 1
 300 246 l 1
 300 -4 l 1
 173 -4 l 1
 173 246 l 1
EndSplineSet
EndChar
StartChar: tbar
Encoding: 359 359 293
Width: 517
VWidth: 0
Flags: HW
HStem: -3 99<251 391> 211 100<10 107 232 349> 393 100<234 443>
VStem: 107 123<115 211 312 393 495 607>
LayerCount: 2
Fore
SplineSet
230 211 m 1
 230 193 l 2
 230 128 249 105 290 98 c 0
 299 97 316 96 322 96 c 0
 354 96 368 102 380 109 c 0
 405 123 412 156 415 166 c 1
 516 117 l 1
 511 103 485 49 430 18 c 0
 402 1 365 -3 323 -3 c 0
 233 -3 161 8 126 80 c 0
 109 115 107 152 107 194 c 2
 107 211 l 1
 10 211 l 1
 10 312 l 1
 109 312 l 1
 109 336 110 362 111 393 c 1
 104 393 l 2
 90 393 77 391 64 387 c 1
 56 487 l 1
 68 491 90 493 106 493 c 2
 113 493 l 1
 113 527 114 576 114 610 c 1
 236 607 l 1
 236 575 235 528 235 495 c 1
 288 495 441 493 445 493 c 1
 443 393 l 1
 376 393 299 394 234 394 c 1
 233 363 232 336 232 312 c 1
 349 312 l 1
 349 211 l 1
 230 211 l 1
EndSplineSet
EndChar
StartChar: Uogonek
Encoding: 370 370 304
Width: 517
VWidth: 15
Flags: HW
HStem: -246 96<252 377> 649 0G<33 160 340 431>
VStem: 33 123<139 649> 127 122<-144 -73> 338 125<150 646>
LayerCount: 2
Fore
SplineSet
342 659 m 1xe8
 466 646 l 1
 463 622 462 604 462 583 c 0
 462 579 462 574 462 569 c 0
 462 497 463 433 463 378 c 2
 463 350 l 2
 463 234 461 123 406 59 c 0
 337 -23 249 -63 249 -122 c 0
 249 -143 277 -150 308 -150 c 0
 336 -150 355 -136 370 -125 c 1
 431 -194 l 1
 410 -217 352 -246 303 -246 c 0
 214 -246 127 -218 127 -126 c 0xd8
 127 -71 157 -44 202 -3 c 1
 82 11 41 91 33 223 c 0
 31 261 30 321 30 388 c 0
 30 473 31 570 34 649 c 1
 160 649 l 1
 158 567 156 455 156 363 c 0
 156 339 156 315 156 294 c 0
 156 263 157 237 159 219 c 0
 166 173 171 100 239 98 c 1
 337 102 338 211 338 351 c 0
 338 413 336 485 336 569 c 0
 336 604 337 628 342 659 c 1xe8
EndSplineSet
EndChar
StartChar: uogonek
Encoding: 371 371 305
Width: 517
VWidth: 15
Flags: HW
HStem: -246 96<290 415> 1 100<154 275> 488 10G<49 141 317 443>
VStem: 24 120<108 428> 165 122<-144 -90> 317 125<140 499>
LayerCount: 2
Fore
SplineSet
368 53 m 1
 331 15 267 2 194 1 c 1
 189 1 l 2
 115 1 24 26 24 112 c 0
 24 152 25 199 25 246 c 0
 25 351 23 456 14 484 c 1
 135 498 l 1
 146 453 143 325 144 146 c 1
 150 113 159 101 201 101 c 1
 275 104 317 142 317 204 c 2
 317 499 l 1
 443 499 l 1
 442 149 l 1
 443 124 475 91 500 81 c 1
 394 -76 287 -72 287 -122 c 0
 287 -143 315 -150 346 -150 c 0
 374 -150 393 -136 408 -125 c 1
 469 -194 l 1
 448 -217 390 -246 341 -246 c 0
 252 -246 165 -218 165 -126 c 0
 165 -29 298 -35 368 53 c 1
EndSplineSet
EndChar
StartChar: longs
Encoding: 383 383 317
Width: 517
VWidth: 0
Flags: HW
HStem: 0 10G<158 284> 394 100<64 158> 594 98<296 414>
VStem: 158 125<0 394 494 581>
LayerCount: 2
Fore
SplineSet
414 589 m 1
 401 593 372 594 353 594 c 0
 289 594 283 558 283 529 c 3
 283 516 284 494 284 494 c 1
 284 0 l 1
 158 0 l 1
 158 394 l 1
 64 394 l 1
 64 494 l 1
 158 494 l 1
 158 502 158 511 158 520 c 0
 158 583 191 692 345 692 c 0
 375 692 414 691 437 686 c 1
 414 589 l 1
EndSplineSet
EndChar
StartChar: uni0180
Encoding: 384 384 575
Width: 517
VWidth: 0
Flags: HW
HStem: -3 88<251 338> 397 98<238 333> 545 100<0 81 205 309> 680 10G<77 198>
VStem: 85 120<134 363 456 545 645 684> 366 125<115 357>
LayerCount: 2
Fore
SplineSet
366 233 m 0
 366 361 331 397 286 397 c 0
 251 397 221 360 205 333 c 1
 205 170 l 1
 230 120 264 84 294 84 c 0
 347 84 366 140 366 233 c 0
491 224 m 0
 491 74 434 -3 311 -3 c 0
 250 -3 212 19 193 45 c 1
 193 24 171 -6 171 -6 c 1
 76 3 l 1
 81 35 85 78 85 119 c 0
 85 123 85 126 85 130 c 0
 85 246 84 411 84 545 c 1
 0 545 l 1
 0 645 l 1
 81 645 l 1
 80 660 78 673 77 685 c 1
 198 689 l 1
 199 675 201 661 202 645 c 1
 309 645 l 1
 309 545 l 1
 205 545 l 1
 204 511 201 486 193 454 c 1
 211 468 247 495 303 495 c 0
 436 495 491 406 491 224 c 0
EndSplineSet
EndChar
StartChar: uni0190
Encoding: 400 400 428
Width: 517
VWidth: 0
Flags: HW
HStem: 0 91<173 360> 308 100<202 307> 499 10G<407 431> 541 92<192 384>
VStem: 18 125<122 270> 44 124<438 519>
LayerCount: 2
Fore
SplineSet
483 77 m 1xf8
 448 51 380 0 254 0 c 0
 165 0 120 17 80 52 c 0
 35 93 18 141 18 190 c 0xf8
 18 277 59 338 133 356 c 1
 78 374 44 428 44 481 c 0
 44 576 129 633 271 633 c 2
 277 633 l 2
 391 633 443 603 479 583 c 1
 425 499 l 1
 390 520 343 541 272 541 c 0
 213 541 167 518 167 481 c 0xf4
 167 426 241 408 295 408 c 2
 298 408 l 1
 307 408 l 1
 307 307 l 1
 294 307 282 308 269 308 c 0
 175 308 142 268 142 189 c 0
 142 134 166 91 254 91 c 0
 347 91 399 133 424 155 c 1
 483 77 l 1xf8
EndSplineSet
EndChar
StartChar: uni0191
Encoding: 401 401 339
Width: 517
VWidth: 0
Flags: HW
HStem: 313 105<195 357> 544 102<195 452>
VStem: 68 127<-9 312 418 544>
LayerCount: 2
Fore
SplineSet
198 38 m 1
 195 -53 162 -148 -0 -148 c 1
 -0 -19 l 1
 51 -19 64 -3 68 42 c 1
 68 646 l 1
 402 646 l 2
 452 646 474 638 491 630 c 1
 453 531 l 1
 440 538 429 544 381 544 c 1
 347 544 l 2
 296 544 284 544 195 544 c 1
 195 418 l 1
 254 418 235 419 295 419 c 0
 339 419 371 410 391 401 c 1
 358 303 l 1
 340 311 315 313 293 313 c 0
 272 313 262 313 252 313 c 0
 237 313 227 313 195 312 c 1
 195 263 198 115 198 38 c 1
EndSplineSet
EndChar
StartChar: florin
Encoding: 402 402 340
Width: 517
VWidth: 0
Flags: HW
HStem: -166 119<47 112> 394 100<71 141 267 420> 594 98<279 383>
VStem: 141 125<-20 394 494 581>
LayerCount: 2
Fore
SplineSet
266 62 m 1
 264 -58 202 -166 46 -166 c 1
 47 -47 l 1
 116 -47 139 -15 141 67 c 1
 141 394 l 1
 71 394 l 1
 71 494 l 1
 141 494 l 1
 141 502 141 511 141 520 c 0
 141 583 173 692 327 692 c 0
 423 692 462 668 500 592 c 1
 396 545 l 1
 383 585 366 594 336 594 c 0
 272 594 266 558 266 529 c 0
 266 516 267 494 267 494 c 1
 300 494 320 494 356 494 c 0
 407 494 427 488 442 484 c 1
 421 388 l 1
 411 391 400 394 373 394 c 2
 266 394 l 1
 266 62 l 1
EndSplineSet
EndChar
StartChar: uni01A4
Encoding: 420 420 973
Width: 517
VWidth: 0
Flags: HW
HStem: -0 10G<159 278> 215 105<278 340> 540 102<126 159 279 344>
VStem: 7 109<453 530> 159 120<0 216 320 538> 364 124<340 518>
LayerCount: 2
Back
SplineSet
348.6328125 443.84765625 m 4
 348.6328125 543.45703125 291.50390625 545.41015625 251.46484375 545.41015625 c 4
 247.0703125 545.41015625 l 5
 217.28515625 545.41015625 195.80078125 543.45703125 173.828125 542.96875 c 5
 173.828125 508.30078125 l 6
 173.828125 416.9921875 172.8515625 316.89453125 172.8515625 316.89453125 c 5
 190.4296875 316.40625 207.51953125 315.91796875 223.6328125 315.91796875 c 4
 280.2734375 315.91796875 348.6328125 330.078125 348.6328125 443.84765625 c 4
172.8515625 0 m 5
 50.78125 0 l 5
 50.78125 644.53125 l 5
 108.3984375 644.53125 126.953125 648.4375 191.89453125 648.4375 c 4
 301.7578125 648.4375 385.25390625 642.08984375 441.40625 573.2421875 c 4
 467.7734375 541.015625 476.5625 496.09375 476.5625 451.171875 c 4
 476.5625 292.96875 416.015625 214.35546875 248.046875 214.35546875 c 4
 224.609375 214.35546875 199.21875 214.84375 172.8515625 215.8203125 c 5
 172.8515625 84.9609375 172.8515625 77.63671875 172.8515625 0 c 5
EndSplineSet
Fore
SplineSet
364 439 m 0
 364 528 327 540 279 540 c 1
 279 498 l 2
 279 409 278 320 278 320 c 1
 337 320 364 335 364 439 c 0
278 -0 m 1
 159 0 l 1
 159 538 l 1
 128 536 117 520 117 453 c 1
 7 453 l 1
 7 593 57 621 146 635 c 0
 172 639 197 642 262 642 c 0
 413 642 488 578 488 442 c 0
 488 296 441 215 330 215 c 0
 307 215 298 215 278 216 c 1
 278 88 278 76 278 -0 c 1
EndSplineSet
EndChar
StartChar: uni01EA
Encoding: 490 490 515
Width: 517
VWidth: 0
Flags: HW
HStem: -247 96<233 358> 560 99<203 301>
VStem: 18 127<144 471> 108 122<-146 -89> 351 127<167 481>
LayerCount: 2
Fore
SplineSet
255 659 m 1xe8
 334 659 476 624 478 316 c 1
 478 311 l 2
 478 229 462 152 439 106 c 1
 375 -30 230 -74 230 -124 c 0
 230 -145 258 -151 289 -151 c 0
 317 -151 337 -137 352 -126 c 1
 412 -195 l 1
 391 -218 333 -247 284 -247 c 0
 195 -247 108 -220 108 -128 c 0xd8
 108 -81 167 -47 224 -7 c 1
 170 -2 111 19 77 62 c 0
 33 117 18 193 18 283 c 0
 18 455 47 533 81 580 c 0
 113 625 179 658 255 659 c 1xe8
171 135 m 0
 194 99 213 91 249 91 c 0
 288 91 312 121 327 159 c 1
 340 188 351 264 351 312 c 1
 351 321 l 2
 351 373 347 446 329 493 c 0
 309 545 283 560 254 560 c 0
 222 560 205 548 185 513 c 0
 162 472 145 408 145 289 c 0xe8
 145 242 151 167 171 135 c 0
EndSplineSet
EndChar
StartChar: uni01EB
Encoding: 491 491 516
Width: 517
VWidth: 0
Flags: HW
HStem: -246 96<212 337> 405 99<197 304>
VStem: 35 123<137 360> 87 122<-145 -85> 334 125<133 371>
LayerCount: 2
Fore
SplineSet
398 56 m 1xe8
 301 -52 209 -73 209 -123 c 0
 209 -144 237 -150 268 -150 c 0
 296 -150 315 -136 330 -125 c 1
 391 -194 l 1
 370 -217 312 -246 263 -246 c 0
 174 -246 87 -219 87 -127 c 0xd8
 87 -64 139 -45 203 0 c 1
 84 17 35 104 35 227 c 0
 35 408 104 504 247 504 c 0
 343 504 397 470 431 406 c 0
 451 367 459 312 459 265 c 0
 459 184 443 107 398 56 c 1xe8
305 121 m 1
 328 146 334 197 334 259 c 0
 334 262 334 264 334 267 c 0
 333 344 316 405 254 405 c 0
 180 405 158 337 158 235 c 0xe8
 158 154 189 96 248 96 c 1
 275 96 287 103 305 121 c 1
EndSplineSet
EndChar
StartChar: uni0228
Encoding: 552 552 484
Width: 517
VWidth: 0
Flags: HW
HStem: -216 84<194 298> -1 108<179 211 319 457> 344 108<180 354> 595 109<180 451>
VStem: 48 132<107 344 452 595> 299 109<-129 -83>
LayerCount: 2
Fore
SplineSet
48 702 m 1
 77 704 112 704 152 704 c 0
 168 704 185 704 203 704 c 2
 259 704 l 2
 335 704 405 703 443 703 c 2
 451 703 l 1
 451 595 l 1
 180 595 l 1
 180 452 l 1
 354 452 l 1
 354 344 l 1
 180 344 l 1
 180 327 l 2
 180 217 179 149 179 107 c 1
 393 108 l 2
 422 108 457 123 457 123 c 1
 494 17 l 1
 470 10 447 -1 397 -1 c 2
 319 -1 l 1
 319 -11 319 -30 319 -31 c 1
 366 -33 409 -61 409 -117 c 0
 409 -180 353 -216 276 -216 c 0
 244 -216 198 -208 171 -190 c 1
 201 -118 l 1
 217 -127 238 -132 263 -132 c 0
 281 -132 298 -127 299 -108 c 1
 299 -107 l 2
 299 -93 287 -80 264 -80 c 0
 241 -80 225 -81 211 -86 c 1
 211 -1 l 1
 48 -1 l 1
 48 702 l 1
EndSplineSet
EndChar
StartChar: uni0229
Encoding: 553 553 485
Width: 517
VWidth: 0
Flags: HW
HStem: -220 84<182 286> -83 179<204 286> 212 96<203 335> 399 99<204 308>
VStem: 43 126<134 197 296 360> 288 109<-132 -86> 335 127<308 373>
LayerCount: 2
Fore
SplineSet
169 296 m 1xfa
 224 306 270 308 335 308 c 1
 333 372 297 399 254 399 c 0
 204 399 172 353 169 296 c 1xfa
253 499 m 0
 409 499 462 397 462 233 c 0xfa
 462 223 462 212 462 212 c 1
 323 210 219 203 169 193 c 1
 177 139 208 96 253 96 c 0
 305 96 322 101 352 144 c 1
 449 81 l 1
 422 39 384 9 308 -1 c 1
 308 -10 307 -34 307 -35 c 1
 354 -37 397 -65 397 -121 c 0
 397 -184 341 -220 264 -220 c 0
 232 -220 187 -211 160 -193 c 1
 189 -121 l 1
 205 -130 226 -136 251 -136 c 0
 269 -136 287 -130 288 -111 c 1
 288 -110 l 2xfc
 288 -96 275 -83 252 -83 c 0
 229 -83 213 -84 199 -89 c 1
 199 0 l 1
 94 22 43 119 43 252 c 0
 43 392 115 499 253 499 c 0
EndSplineSet
EndChar
StartChar: uni0237
Encoding: 567 567 332
Width: 517
VWidth: 0
Flags: HW
HStem: -190 98<169 274> -14 10G<103 135> 397 98<175 287>
VStem: 287 124<-80 397>
AnchorPoint: "above_accent" 342 539 basechar 0
LayerCount: 2
Fore
SplineSet
411 -38 m 1
 411 -113 372 -190 232 -190 c 3
 172 -190 96 -176 34 -76 c 1
 114 -4 l 1
 156 -75 190 -92 221 -92 c 0
 224 -92 227 -92 229 -92 c 3
 288 -92 286 -40 287 -23 c 1
 287 397 l 1
 263 397 218 394 172 383 c 1
 158 474 l 1
 204 488 248 495 287 495 c 2
 411 495 l 1
 411 -38 l 1
EndSplineSet
EndChar
StartChar: gravecomb
Encoding: 768 768 322
Width: 517
VWidth: -20
Flags: HW
HStem: 534 216
VStem: 94 276
AnchorPoint: "above_accent" 219 527 mark 0
LayerCount: 2
Fore
SplineSet
371 619 m 1
 327 534 l 1
 257 557 148 611 94 666 c 1
 160 750 l 1
 216 697 301 642 371 619 c 1
EndSplineSet
EndChar
StartChar: acutecomb
Encoding: 769 769 323
Width: 517
VWidth: -20
Flags: HW
HStem: 534 216
VStem: 97 276
AnchorPoint: "above_accent" 244 527 mark 0
LayerCount: 2
Fore
SplineSet
97 619 m 1
 167 642 252 697 308 750 c 1
 374 666 l 1
 320 611 211 557 141 534 c 1
 97 619 l 1
EndSplineSet
EndChar
StartChar: uni0302
Encoding: 770 770 324
Width: 517
VWidth: -4
Flags: HW
HStem: 564 218
AnchorPoint: "above_accent" 252 552 mark 0
LayerCount: 2
Fore
SplineSet
253 782 m 1
 438 640 l 1
 371 564 l 1
 253 662 l 1
 142 566 l 1
 73 637 l 1
 253 782 l 1
EndSplineSet
EndChar
StartChar: tildecomb
Encoding: 771 771 325
Width: 517
VWidth: -5
Flags: HW
HStem: 562 87<282 359> 626 88<146 226>
AnchorPoint: "above_accent" 244 541 mark 0
LayerCount: 2
Fore
SplineSet
166 714 m 0x40
 271 714 280 649 324 649 c 0
 348 649 363 664 366 698 c 1
 453 672 l 1
 443 625 414 562 335 562 c 0x80
 238 562 228 626 179 626 c 0
 158 626 140 608 136 577 c 1
 46 615 l 1
 62 660 97 714 166 714 c 0x40
EndSplineSet
EndChar
StartChar: uni0304
Encoding: 772 772 326
Width: 517
VWidth: -16
Flags: HW
HStem: 629 95<116 360>
VStem: 116 244<629 722>
AnchorPoint: "above_accent" 232 579 mark 0
LayerCount: 2
Fore
SplineSet
360 724 m 1
 360 629 l 1
 352 629 l 0
 324 628 276 626 240 626 c 0
 204 626 158 626 125 627 c 0
 116 628 l 1
 116 724 l 1
 125 723 l 0
 157 722 213 722 258 722 c 0
 288 722 330 724 352 724 c 0
 360 724 l 1
EndSplineSet
EndChar
StartChar: uni0305
Encoding: 773 773 327
Width: 517
VWidth: -16
Flags: HW
HStem: 627 99<42 429>
AnchorPoint: "above_accent" 226 576 mark 0
LayerCount: 2
Fore
SplineSet
429 725 m 1
 429 626 l 1
 42 627 l 1
 42 726 l 1
 429 725 l 1
EndSplineSet
EndChar
StartChar: uni0306
Encoding: 774 774 328
Width: 517
VWidth: -5
Flags: HW
HStem: 562 89<190 313>
AnchorPoint: "above_accent" 246 541 mark 0
LayerCount: 2
Fore
SplineSet
249 651 m 0
 302 651 334 682 337 720 c 1
 444 706 l 1
 432 620 369 562 252 562 c 1
 142 562 77 600 54 710 c 1
 161 725 l 1
 174 668 212 651 249 651 c 0
EndSplineSet
EndChar
StartChar: uni0307
Encoding: 775 775 330
Width: 517
VWidth: -13
Flags: HW
HStem: 578 120<152 290>
VStem: 152 139<578 698>
AnchorPoint: "above_accent" 224 541 mark 0
LayerCount: 2
Fore
SplineSet
151 698 m 1
 290 698 l 1
 291 578 l 1
 152 578 l 1
 151 698 l 1
EndSplineSet
EndChar
StartChar: uni0308
Encoding: 776 776 329
Width: 517
VWidth: -13
Flags: HW
HStem: 578 117<71 208 276 414>
VStem: 71 136<578 695> 276 138<578 694>
AnchorPoint: "above_accent" 240 541 mark 0
LayerCount: 2
Fore
SplineSet
276 695 m 1
 414 694 l 1
 414 578 l 1
 276 578 l 1
 276 695 l 1
71 695 m 1
 208 695 l 1
 208 578 l 1
 71 578 l 1
 71 695 l 1
EndSplineSet
EndChar
StartChar: uni030A
Encoding: 778 778 331
Width: 517
VWidth: -3
Flags: HW
HStem: 624 64<215 294> 750 69<215 294>
VStem: 120 92<693 745> 296 93<693 745>
AnchorPoint: "above_accent" 254 607 mark 0
LayerCount: 2
Fore
SplineSet
254 750 m 0
 228 750 212 734 212 719 c 0
 212 704 229 688 254 688 c 0
 279 688 296 704 296 719 c 0
 296 734 280 750 254 750 c 0
120 719 m 0
 120 776 183 819 255 819 c 0
 327 819 389 776 389 719 c 0
 389 663 333 624 255 624 c 0
 180 624 120 663 120 719 c 0
EndSplineSet
EndChar
StartChar: uni030B
Encoding: 779 779 333
Width: 517
VWidth: -20
Flags: HW
HStem: 558 266
AnchorPoint: "above_accent" 205 547 mark 0
LayerCount: 2
Fore
SplineSet
230 628 m 1
 287 674 342 755 376 824 c 1
 475 762 l 1
 443 692 360 604 302 558 c 1
 230 628 l 1
43 631 m 1
 100 677 155 759 189 828 c 1
 287 766 l 1
 255 696 173 608 115 562 c 1
 43 631 l 1
EndSplineSet
EndChar
StartChar: uni030C
Encoding: 780 780 334
Width: 517
VWidth: -4
Flags: HW
HStem: 589 218
AnchorPoint: "above_accent" 254 571 mark 0
LayerCount: 2
Fore
SplineSet
255 589 m 1
 76 734 l 1
 146 801 l 1
 255 709 l 1
 372 807 l 1
 439 731 l 1
 255 589 l 1
EndSplineSet
EndChar
StartChar: uni030F
Encoding: 783 783 335
Width: 517
VWidth: -20
Flags: HW
HStem: 571 266
AnchorPoint: "above_accent" 250 557 mark 0
LayerCount: 2
Fore
SplineSet
282 641 m 1
 210 571 l 1
 152 617 70 705 38 775 c 1
 136 837 l 1
 170 768 225 687 282 641 c 1
469 645 m 1
 397 575 l 1
 339 621 257 709 225 779 c 1
 323 841 l 1
 357 772 412 691 469 645 c 1
EndSplineSet
EndChar
StartChar: uni0311
Encoding: 785 785 494
Width: 517
VWidth: -5
Flags: HW
HStem: 663 10G<95 173 340 413> 736 89<195 317>
AnchorPoint: "above_accent" 249 630 mark 0
LayerCount: 2
Fore
SplineSet
254 736 m 0
 217 736 179 720 166 663 c 1
 59 678 l 1
 82 788 147 826 257 826 c 0
 374 826 437 768 449 682 c 1
 342 667 l 1
 339 705 307 736 254 736 c 0
EndSplineSet
EndChar
StartChar: uni0312
Encoding: 786 786 508
Width: 517
VWidth: -20
Flags: HW
HStem: 604 205
VStem: 193 93<734 793>
AnchorPoint: "above_accent" 195 564 mark 0
LayerCount: 2
Fore
SplineSet
140 626 m 1
 159 681 171 734 193 808 c 1
 286 792 l 1
 277 723 264 654 254 604 c 1
 140 626 l 1
EndSplineSet
EndChar
StartChar: uni0313
Encoding: 787 787 496
Width: 517
VWidth: 12
Flags: HW
HStem: 537 243
VStem: 214 107<672 780> 242 80<611 672>
AnchorPoint: "above_accent" 260 539 mark 0
LayerCount: 2
Fore
SplineSet
214 780 m 1xc0
 321 780 l 1
 321 675 l 2xc0
 321 601 289 564 226 537 c 1
 200 599 l 1
 229 613 242 624 242 672 c 1xa0
 214 672 l 1
 214 780 l 1xc0
EndSplineSet
EndChar
StartChar: uni0314
Encoding: 788 788 497
Width: 517
VWidth: 12
Flags: HW
HStem: 537 243
VStem: 206 107<672 780> 206 80<611 672>
AnchorPoint: "above_accent" 260 539 mark 0
LayerCount: 2
Fore
SplineSet
313 780 m 1xc0
 313 672 l 1xc0
 285 672 l 1xa0
 285 624 298 613 327 599 c 1
 301 537 l 1
 238 564 206 601 206 675 c 2
 206 780 l 1
 313 780 l 1xc0
EndSplineSet
EndChar
StartChar: uni0326
Encoding: 806 806 519
Width: 517
VWidth: 12
Flags: HW
HStem: -258 260
VStem: 190 132<-106 2> 218 104<-183 -106>
AnchorPoint: "cedilla_accent" 249 26 mark 0
LayerCount: 2
Fore
SplineSet
190 2 m 1xc0
 322 2 l 1
 322 -103 l 2xc0
 322 -177 308 -208 246 -258 c 1
 181 -197 l 1
 207 -176 218 -160 218 -106 c 1xa0
 190 -106 l 1
 190 2 l 1xc0
EndSplineSet
EndChar
StartChar: uni0328
Encoding: 808 808 511
Width: 517
VWidth: 15
Flags: HW
HStem: -225 96<222 347>
VStem: 97 122<-123 -68>
LayerCount: 2
Fore
SplineSet
401 52 m 1
 314 -58 219 -51 219 -101 c 0
 219 -122 247 -129 278 -129 c 0
 306 -129 325 -115 340 -104 c 1
 401 -173 l 1
 380 -196 322 -225 273 -225 c 0
 184 -225 97 -197 97 -105 c 0
 97 -8 216 -19 286 53 c 1
 401 52 l 1
EndSplineSet
EndChar
StartChar: tonos
Encoding: 900 900 392
Width: 517
VWidth: -20
Flags: HW
HStem: 597 222
VStem: 236 115<745 794>
AnchorPoint: "above_accent" 222 585 mark 0
LayerCount: 2
Fore
SplineSet
159 651 m 1
 205 708 217 743 236 818 c 1
 352 792 l 1
 336 717 295 654 249 597 c 1
 159 651 l 1
EndSplineSet
EndChar
StartChar: Gamma
Encoding: 915 915 370
Width: 517
VWidth: 0
Flags: HW
HStem: 0 10G<73 197> 546 103<197 460>
VStem: 73 124<0 546>
LayerCount: 2
Fore
SplineSet
73 648 m 1
 406 648 l 2
 443 648 473 640 496 632 c 1
 461 536 l 1
 440 543 434 545 405 546 c 1
 197 546 l 1
 197 0 l 1
 73 0 l 1
 73 648 l 1
EndSplineSet
EndChar
StartChar: Delta
Encoding: 916 916 384
Width: 517
VWidth: 0
Flags: HW
HStem: 0 97<151 341> 637 10G<197 312>
LayerCount: 2
Fore
SplineSet
341 97 m 1
 326 171 252 413 252 487 c 1
 249 406 171 167 151 97 c 1
 341 97 l 1
73 0 m 1
 -4 19 l 1
 200 647 l 1
 309 647 l 1
 494 21 l 1
 427 0 l 1
 73 0 l 1
EndSplineSet
EndChar
StartChar: Theta
Encoding: 920 920 374
Width: 517
VWidth: 0
Flags: HW
HStem: -8 99<195 307> 300 99<178 334> 560 99<209 311>
VStem: 18 132<145 469> 178 156<300 399> 362 131<167 481>
LayerCount: 2
Fore
SplineSet
263 659 m 1
 344 659 492 624 494 316 c 1
 494 311 l 2
 494 229 478 152 454 106 c 0
 416 34 340 -8 257 -8 c 0
 195 -8 120 12 79 62 c 0
 34 117 18 193 18 283 c 0
 18 455 48 533 83 580 c 0
 117 625 184 658 263 659 c 1
177 135 m 0
 200 99 220 91 257 91 c 0
 297 91 321 121 337 159 c 1
 351 188 361 264 362 312 c 1
 362 321 l 2
 362 373 357 446 339 493 c 0
 319 545 293 560 263 560 c 0
 230 560 210 548 190 513 c 0
 166 472 149 408 149 289 c 0
 149 242 156 167 177 135 c 0
178 399 m 1
 334 399 l 1
 334 300 l 1
 178 300 l 1
 178 399 l 1
EndSplineSet
EndChar
StartChar: Lambda
Encoding: 923 923 385
Width: 517
VWidth: 0
Flags: HW
HStem: -13 10G<78 117 365 408> 637 10G<197 312>
LayerCount: 2
Fore
SplineSet
185 237 m 1
 115 -13 l 1
 -4 19 l 1
 200 647 l 1
 309 647 l 1
 494 21 l 1
 368 -10 l 1
 307 246 l 1
 294 316 252 412 252 487 c 1
 249 405 204 305 185 237 c 1
EndSplineSet
EndChar
StartChar: Xi
Encoding: 926 926 386
Width: 517
VWidth: 0
Flags: HW
HStem: -1 100<45 435> 315 99<152 336> 546 100<45 430>
VStem: 152 184<315 415>
LayerCount: 2
Back
SplineSet
49.8046875 644.04296875 m 1
 77.1484375 645.99609375 111.328125 645.99609375 149.4140625 645.99609375 c 0
 164.55078125 645.99609375 180.6640625 645.99609375 197.265625 645.99609375 c 2
 250.9765625 645.99609375 l 2
 323.73046875 645.99609375 390.13671875 644.53125 426.26953125 644.53125 c 2
 434.08203125 644.53125 l 1
 434.08203125 545.8984375 l 1
 175.78125 545.8984375 l 1
 175.78125 414.55078125 l 1
 340.8203125 414.55078125 l 1
 340.8203125 315.4296875 l 1
 175.78125 315.4296875 l 1
 175.78125 300.29296875 l 2
 175.78125 199.21875 174.8046875 136.71875 174.8046875 98.14453125 c 1
 377.9296875 99.12109375 l 2
 405.2734375 99.12109375 438.96484375 112.3046875 438.96484375 112.3046875 c 1
 474.12109375 15.13671875 l 1
 450.68359375 8.7890625 430.6640625 -1.46484375 382.8125 -1.46484375 c 2
 49.8046875 -1.46484375 l 1
 49.8046875 644.04296875 l 1
EndSplineSet
Fore
SplineSet
152 415 m 1
 336 415 l 1
 336 315 l 1
 152 315 l 1
 152 415 l 1
45 644 m 1
 72 646 107 646 145 646 c 0
 160 646 176 646 193 646 c 2
 247 646 l 2
 320 646 386 645 422 645 c 2
 430 645 l 1
 430 546 l 1
 44 546 l 1
 45 644 l 1
45 98 m 1
 374 99 l 2
 401 99 435 112 435 112 c 1
 470 15 l 1
 447 9 426 -1 378 -1 c 2
 45 -1 l 1
 45 98 l 1
EndSplineSet
EndChar
StartChar: Pi
Encoding: 928 928 387
Width: 517
VWidth: 0
Flags: HW
HStem: 0 10G<63 188 326 453> 537 96<189 317 441 492>
VStem: 63 125<0 531> 317 124<7 537>
LayerCount: 2
Fore
SplineSet
188 0 m 1
 63 0 l 1
 63 531 l 1
 49 529 36 526 21 523 c 1
 0 618 l 1
 45 628 103 633 162 633 c 2
 492 633 l 1
 492 537 l 1
 441 537 l 1
 441 185 l 2
 441 123 446 61 453 4 c 1
 331 -2 l 1
 322 57 317 125 317 188 c 2
 317 537 l 1
 248 537 l 2
 227 537 208 537 189 537 c 1
 188 0 l 1
EndSplineSet
EndChar
StartChar: Sigma
Encoding: 931 931 388
Width: 517
VWidth: 0
Flags: HW
HStem: 0 98<209 457> 546 100<206 452>
LayerCount: 2
Fore
SplineSet
261 321 m 1
 29 554 l 1
 86 646 l 1
 97 647 106 646 115 646 c 0
 129 646 144 646 167 646 c 0
 182 646 198 646 215 646 c 2
 270 646 l 2
 342 646 408 645 445 645 c 2
 452 645 l 1
 452 546 l 1
 206 546 l 1
 396 354 l 1
 393 276 l 1
 209 98 l 1
 271 98 334 99 396 99 c 0
 423 99 457 112 457 112 c 1
 493 15 l 1
 470 9 449 -1 401 -1 c 2
 86 0 l 1
 29 89 l 1
 261 321 l 1
EndSplineSet
EndChar
StartChar: Phi
Encoding: 934 934 389
Width: 517
VWidth: 0
Flags: HW
HStem: 0 10G<176 316> 633 10G<178 316>
VStem: 6 112<209 408> 178 140<0 74 172 457 569 643> 392 112<219 414>
LayerCount: 2
Fore
SplineSet
178 172 m 1
 178 457 l 1
 176 455 172 453 170 451 c 0
 139 423 118 376 118 293 c 0
 118 260 130 211 155 188 c 0
 161 182 170 176 178 172 c 1
318 168 m 1
 336 177 350 189 360 203 c 1
 378 223 392 276 392 310 c 1
 392 316 l 2
 392 353 383 401 360 434 c 0
 347 452 333 464 317 472 c 1
 317 389 318 316 318 191 c 2
 318 168 l 1
178 71 m 1
 138 79 102 94 77 117 c 0
 31 159 6 218 6 287 c 0
 6 419 45 479 81 516 c 0
 102 537 136 555 178 566 c 1
 178 595 178 614 178 643 c 1
 316 643 l 1
 316 573 l 1
 399 559 502 505 504 313 c 1
 504 309 l 2
 504 246 481 187 457 151 c 0
 428 109 378 81 318 69 c 1
 318 46 317 25 315 0 c 1
 176 0 l 1
 178 35 178 47 178 71 c 1
EndSplineSet
EndChar
StartChar: Psi
Encoding: 936 936 390
Width: 517
VWidth: 2
Flags: HW
HStem: 0 10G<208 330> 215 105<164 210 333 373> 688 10G<214 329>
VStem: 22 121<338 688> 214 115<0 215 320 697> 395 125<342 691>
LayerCount: 2
Fore
SplineSet
22 410 m 0
 22 442 22 472 22 499 c 0
 22 591 22 655 11 689 c 1
 133 704 l 1
 142 666 143 606 143 513 c 0
 143 488 143 481 143 451 c 0
 143 371 145 320 211 320 c 1
 212 437 214 543 214 647 c 2
 214 697 l 1
 329 697 l 1
 329 620 l 2
 329 524 328 433 327 320 c 1
 393 320 395 377 395 547 c 1
 395 596 392 649 388 691 c 1
 514 700 l 1
 519 657 521 602 521 567 c 0
 521 560 521 554 521 549 c 0
 521 362 518 216 333 216 c 1
 332 141 330 67 329 0 c 1
 208 0 l 1
 210 33 210 117 210 146 c 0
 210 168 210 192 210 215 c 1
 77 215 22 312 22 410 c 0
EndSplineSet
EndChar
StartChar: Omega
Encoding: 937 937 391
Width: 517
VWidth: 0
Flags: HW
HStem: 0 105<14 99 403 504> 546 106<203 320>
VStem: 5 130<215 469> 383 128<232 468>
LayerCount: 2
Fore
SplineSet
198 0 m 1
 14 0 l 1
 13 106 l 1
 99 106 l 1
 53 153 5 210 5 362 c 0
 5 554 119 652 263 652 c 0
 384 652 511 584 511 355 c 2
 511 350 l 2
 511 218 449 159 403 106 c 1
 444 106 l 2
 473 106 504 120 504 120 c 1
 526 16 l 1
 502 9 485 0 448 0 c 0
 447 0 446 0 445 0 c 2
 307 0 l 1
 284 103 l 1
 327 146 383 209 383 351 c 2
 383 360 l 2
 383 450 342 546 265 546 c 0
 194 546 135 482 135 361 c 0
 135 234 155 186 226 105 c 1
 198 0 l 1
EndSplineSet
EndChar
StartChar: alpha
Encoding: 945 945 341
Width: 517
VWidth: 1
Flags: HW
HStem: -3 101<182 241> 398 99<178 240> 497 10G<382 421>
VStem: 26 124<133 366>
AnchorPoint: "above_accent" 254 541 basechar 0
LayerCount: 2
Fore
SplineSet
415 241 m 1xb0
 427 203 430 175 446 128 c 0
 455 100 471 88 503 75 c 1
 453 -16 l 1
 391 0 363 43 354 72 c 0
 351 83 347 94 344 105 c 1
 312 33 277 -3 213 -3 c 0
 72 -3 26 126 26 257 c 0
 26 436 119 497 204 497 c 0xd0
 285 497 327 451 350 375 c 1
 365 423 373 461 391 506 c 1
 498 472 l 1
 466 410 440 323 415 241 c 1xb0
149 256 m 0
 149 100 208 97 213 97 c 2
 217 97 l 2
 243 97 262 159 282 242 c 1
 260 347 244 398 208 398 c 0
 184 398 149 357 149 256 c 0
EndSplineSet
EndChar
StartChar: beta
Encoding: 946 946 342
Width: 517
VWidth: 0
Flags: HW
HStem: 0 97<236 352> 310 101<198 270> 548 101<178 268>
VStem: 46 123<166 540> 51 114<-138 55> 284 120<426 532> 369 120<114 259>
LayerCount: 2
Back
SplineSet
32.71484375 489.74609375 m 4xf4
 32.71484375 565.91796875 89.35546875 648.4375 190.4296875 648.4375 c 4
 305.6640625 648.4375 389.6484375 606.93359375 389.6484375 492.67578125 c 5xf4
 389.6484375 432.6171875 367.67578125 397.94921875 327.1484375 380.37109375 c 5
 397.4609375 368.1640625 474.609375 322.75390625 474.609375 186.03515625 c 4
 474.609375 37.109375 412.109375 -0.9765625 304.6875 -0.9765625 c 4
 213.37890625 -0.9765625 182.12890625 46.38671875 182.12890625 145.5078125 c 4
 182.12890625 149.4140625 182.6171875 153.3203125 182.6171875 157.2265625 c 5
 282.2265625 156.25 l 5
 282.2265625 125.48828125 284.66796875 97.16796875 315.4296875 97.16796875 c 4
 341.796875 97.16796875 355.46875 120.60546875 355.46875 192.87109375 c 4xfa
 355.46875 246.09375 324.21875 309.5703125 183.59375 309.5703125 c 5
 183.59375 410.15625 l 5
 264.16015625 410.15625 270.5078125 441.89453125 270.5078125 489.74609375 c 4
 270.5078125 531.25 230.46875 547.8515625 201.66015625 547.8515625 c 5
 168.9453125 547.8515625 154.296875 523.92578125 154.296875 491.69921875 c 4
 154.296875 415.52734375 156.73828125 311.03515625 156.73828125 219.7265625 c 4
 156.73828125 200.1953125 157.2265625 180.6640625 157.2265625 161.62109375 c 4
 157.2265625 122.55859375 155.76171875 85.9375 145.99609375 57.12890625 c 4
 132.8125 17.08984375 82.51953125 -4.39453125 55.17578125 -18.06640625 c 5
 10.25390625 103.02734375 l 5
 20.01953125 107.91015625 28.80859375 114.74609375 32.71484375 127.44140625 c 4
 36.62109375 140.13671875 37.109375 157.71484375 37.109375 194.3359375 c 4
 37.109375 201.66015625 37.109375 209.47265625 37.109375 218.75 c 4
 37.109375 310.05859375 32.71484375 404.78515625 32.71484375 489.74609375 c 4xf4
EndSplineSet
Fore
SplineSet
165 55 m 1xea
 165 41 165 29 165 19 c 0
 165 -42 163 -99 159 -146 c 1
 44 -138 l 1
 49 -89 51 -36 51 18 c 0xea
 51 109 46 405 46 490 c 0
 46 566 100 648 197 648 c 0
 297 648 404 622 404 493 c 0xf4
 404 406 360 391 343 380 c 1
 425 365 489 311 489 187 c 0
 489 25 419 0 300 0 c 0
 299 0 297 0 296 0 c 0
 234 0 209 19 165 55 c 1xea
301 97 m 0
 361 97 369 142 369 189 c 0xf2
 369 278 297 310 198 310 c 1
 198 411 l 1
 266 411 284 431 284 490 c 0
 284 517 263 548 216 548 c 0
 187 548 169 529 169 485 c 0xf4
 169 436 171 312 171 194 c 1
 219 109 270 97 301 97 c 0
EndSplineSet
EndChar
StartChar: gamma
Encoding: 947 947 343
Width: 517
VWidth: 6
Flags: HW
HStem: 400 108<15 71>
VStem: 229 126<-184 70>
LayerCount: 2
Fore
SplineSet
229 -184 m 1
 229 -132 228 -5 219 33 c 0
 191 154 128 284 82 361 c 0
 65 390 58 393 52 396 c 0
 45 400 34 400 22 400 c 0
 20 400 17 400 15 400 c 1
 15 508 l 1
 31 508 49 508 63 506 c 0
 94 501 131 493 160 448 c 0
 207 374 253 269 287 171 c 1
 323 277 389 518 389 518 c 1
 500 481 l 1
 500 481 399 189 352 7 c 1
 355 -33 355 -85 355 -142 c 0
 355 -156 355 -171 355 -185 c 1
 229 -184 l 1
EndSplineSet
EndChar
StartChar: delta
Encoding: 948 948 344
Width: 517
VWidth: 2
Flags: HW
HStem: 0 96<203 305> 577 96<160 354>
VStem: 40 123<139 320 525 574> 339 122<132 303>
LayerCount: 2
Back
SplineSet
305.17578125 120.60546875 m 1
 328.125 145.99609375 334.47265625 196.77734375 334.47265625 258.7890625 c 0
 334.47265625 261.71875 334.47265625 263.671875 334.47265625 266.6015625 c 0
 333.49609375 343.26171875 316.40625 405.2734375 253.90625 405.2734375 c 0
 180.17578125 405.2734375 158.203125 336.9140625 158.203125 235.3515625 c 0
 158.203125 154.296875 188.96484375 96.19140625 248.046875 96.19140625 c 1
 274.90234375 96.6796875 287.59765625 103.02734375 305.17578125 120.60546875 c 1
247.55859375 -2.9296875 m 1
 96.19140625 -2.9296875 35.15625 89.84375 35.15625 226.5625 c 0
 35.15625 407.71484375 104.00390625 503.90625 246.58203125 503.90625 c 0
 342.7734375 503.90625 396.484375 470.21484375 430.6640625 405.76171875 c 0
 450.68359375 367.1875 459.47265625 312.01171875 459.47265625 265.13671875 c 0
 459.47265625 125.9765625 412.59765625 -2.9296875 248.53515625 -2.9296875 c 2
 247.55859375 -2.9296875 l 1
EndSplineSet
Fore
SplineSet
251 365 m 1
 170 349 163 271 163 229 c 0
 163 179 179 97 257 97 c 0
 340 97 339 209 339 247 c 0
 339 276 313 331 251 365 c 1
461 246 m 0
 461 119 414 0 257 0 c 2
 256 0 l 1
 123 0 40 90 40 227 c 0
 40 320 77 402 134 417 c 1
 112 428 104 437 91 447 c 0
 69 465 40 502 40 539 c 0
 40 655 132 673 235 673 c 0
 296 673 364 660 423 646 c 1
 402 542 l 1
 337 560 278 577 231 577 c 0
 189 577 159 574 159 551 c 0
 159 537 179 527 195 519 c 0
 324 456 461 409 461 246 c 0
EndSplineSet
EndChar
StartChar: epsilon
Encoding: 949 949 345
Width: 517
VWidth: 0
Flags: HW
HStem: -2 96<206 412> 229 96<214 357> 403 97<193 424>
VStem: 57 130<114 204 348 394>
AnchorPoint: "above_accent" 273 541 basechar 0
LayerCount: 2
Fore
SplineSet
513 67 m 1
 478 41 396 -2 287 -2 c 0
 198 -2 153 7 116 36 c 0
 78 66 57 115 57 147 c 0
 57 210 86 267 160 285 c 1
 85 293 57 337 57 385 c 0
 57 475 170 500 278 500 c 2
 285 500 l 2
 399 500 454 470 463 464 c 1
 430 378 l 1
 418 385 350 403 279 403 c 0
 223 403 188 397 188 372 c 0
 188 337 294 325 342 325 c 2
 346 325 l 1
 348 325 l 1
 357 325 l 1
 357 229 l 1
 344 229 332 229 319 229 c 0
 221 229 187 204 187 149 c 0
 187 125 211 94 299 94 c 0
 381 94 433 122 458 144 c 1
 513 67 l 1
EndSplineSet
EndChar
StartChar: zeta
Encoding: 950 950 346
Width: 517
VWidth: 0
Flags: HW
HStem: -169 97<322 375> 0 105<222 381> 564 96<108 314> 662 10G<440 476> 681 10G<90 109>
VStem: 67 126<138 324> 385 108<-58 -4>
LayerCount: 2
Fore
SplineSet
100 690 m 1
 120 669 137 660 176 660 c 0
 257 660 409 663 473 672 c 1
 513 568 l 1
 429 527 193 394 193 246 c 0
 193 157 219 105 264 105 c 0
 266 105 348 105 350 105 c 0
 451 105 493 45 493 -32 c 0
 493 -145 367 -164 323 -169 c 1
 306 -73 l 1
 347 -67 385 -57 385 -38 c 0
 385 -2 359 0 316 0 c 0
 313 0 311 0 307 0 c 0
 305 0 241 0 239 0 c 0
 140 0 67 86 67 246 c 0
 67 420 196 484 315 568 c 1
 252 565 248 564 186 564 c 0
 130 564 72 574 34 622 c 1
 100 690 l 1
EndSplineSet
EndChar
StartChar: eta
Encoding: 951 951 347
Width: 517
VWidth: 2
Flags: HW
HStem: 0 10G<54 177> 400 101<225 337>
VStem: 54 123<0 360> 342 123<-151 396>
AnchorPoint: "above_accent" 260 541 basechar 0
LayerCount: 2
Fore
SplineSet
465 145 m 1
 466 -30 l 2
 466 -62 472 -129 481 -152 c 1
 365 -183 l 1
 356 -144 342 -112 342 -33 c 2
 342 103 l 1
 342 350 l 2
 342 386 330 400 297 400 c 0
 266 400 218 381 176 345 c 1
 177 0 l 1
 54 0 l 1
 54 345 l 2
 54 432 50 444 38 490 c 1
 151 514 l 1
 156 502 167 477 170 453 c 1
 197 477 260 501 314 501 c 0
 394 501 465 477 465 397 c 2
 465 145 l 1
EndSplineSet
EndChar
StartChar: theta
Encoding: 952 952 348
Width: 517
VWidth: 0
Flags: HW
HStem: -8 99<189 297> 284 108<152 348> 573 99<203 301>
VStem: 18 128<145 277 386 484> 349 129<159 284 393 490>
LayerCount: 2
Fore
SplineSet
171 135 m 0
 194 99 213 91 249 91 c 0
 288 91 312 121 327 159 c 1
 337 181 346 240 349 284 c 1
 342 284 333 284 325 284 c 0
 283 284 232 283 146 276 c 1
 147 230 153 162 171 135 c 0
255 672 m 1
 334 672 476 632 478 324 c 1
 478 318 l 2
 478 236 462 152 439 106 c 0
 402 34 330 -8 249 -8 c 0
 189 -8 117 12 77 62 c 0
 33 117 18 201 18 291 c 0
 18 463 47 546 81 593 c 0
 113 638 179 671 255 672 c 1
348 393 m 1
 346 432 340 477 329 506 c 0
 309 558 283 573 254 573 c 0
 222 573 205 561 185 526 c 0
 168 497 155 451 149 386 c 1
 214 392 271 393 319 393 c 0
 329 393 339 393 348 393 c 1
EndSplineSet
EndChar
StartChar: iota
Encoding: 953 953 349
Width: 517
VWidth: 0
Flags: HW
HStem: -9 99<311 390> 397 98<66 178>
VStem: 178 125<97 145 145 397>
AnchorPoint: "above_accent" 240 541 basechar 0
LayerCount: 2
Fore
SplineSet
178 495 m 2
 302 495 l 1
 302 362 303 145 303 145 c 2
 303 114 320 90 348 90 c 0
 380 90 400 110 412 164 c 1
 512 121 l 1
 479 28 429 -9 331 -9 c 0
 284 -9 242 4 223 20 c 0
 194 45 178 77 178 139 c 2
 178 397 l 1
 154 397 109 394 63 383 c 1
 49 474 l 1
 95 488 139 495 178 495 c 2
EndSplineSet
EndChar
StartChar: kappa
Encoding: 954 954 350
Width: 517
VWidth: 0
Flags: HW
HStem: 0 2G<44 170 376 406> 489 10G<44 170>
VStem: 44 126<0 172 330 499>
LayerCount: 2
Fore
SplineSet
288 279 m 1
 347 221 478 121 503 54 c 1
 388 -8 l 1
 366 46 275 136 212 199 c 1
 212 199 185 168 170 133 c 1
 170 0 l 1
 44 0 l 1
 44 499 l 1
 170 499 l 1
 170 330 l 1
 220 401 403 507 428 517 c 1
 497 418 l 1
 397 372 317 315 288 279 c 1
EndSplineSet
EndChar
StartChar: lambda
Encoding: 955 955 351
Width: 517
VWidth: 6
Flags: HW
HStem: 0 119<392 476> 575 103<122 177>
LayerCount: 2
Fore
SplineSet
112 -6 m 1
 0 51 l 1
 35 116 153 301 200 471 c 1
 182 555 175 575 149 575 c 0
 124 575 119 557 119 538 c 1
 16 539 l 1
 16 643 64 678 169 678 c 0
 242 678 284 637 300 582 c 2
 412 199 l 2
 434 122 438 119 448 119 c 0
 461 119 468 140 468 140 c 1
 510 29 l 1
 474 5 465 0 415 0 c 0
 369 0 330 20 293 162 c 0
 283 202 273 246 256 308 c 1
 207 174 183 124 112 -6 c 1
EndSplineSet
EndChar
StartChar: nu
Encoding: 957 957 353
Width: 517
VWidth: 2
Flags: HW
HStem: -4 10G<172 253>
VStem: 369 125<214 450>
LayerCount: 2
Fore
SplineSet
107 515 m 1
 190 377 235 248 268 123 c 1
 351 182 369 239 369 344 c 0
 369 413 346 452 336 475 c 1
 452 515 l 1
 480 466 494 410 494 354 c 0
 494 92 335 -4 172 -4 c 1
 172 122 65 362 3 451 c 1
 107 515 l 1
EndSplineSet
EndChar
StartChar: xi
Encoding: 958 958 354
Width: 517
VWidth: 0
Flags: HW
HStem: -169 97<325 378> 0 105<196 384> 323 96<319 393> 564 96<114 219> 662 10G<386 422> 688 10G<90 107>
VStem: 49 126<128 226> 138 130<434 499> 387 108<-57 -5>
LayerCount: 2
Fore
SplineSet
98 697 m 1xfd80
 118 676 140 660 180 660 c 0
 260 660 354 663 418 672 c 1
 460 575 l 1
 406 552 268 511 268 471 c 0xfd80
 268 426 320 419 393 419 c 1
 393 323 l 1
 264 291 175 247 175 166 c 0
 175 148 194 105 267 105 c 0
 268 105 351 105 352 105 c 0
 433 105 495 66 495 -32 c 0
 495 -136 386 -163 326 -169 c 1
 309 -73 l 1
 350 -67 387 -58 387 -38 c 0
 387 -11 374 0 331 0 c 0
 327 0 324 0 321 0 c 0
 319 0 243 0 241 0 c 0
 143 0 49 29 49 159 c 0xfe80
 49 282 155 349 212 367 c 1
 191 372 138 390 138 472 c 0
 138 516 175 549 220 567 c 1
 220 567 192 564 177 564 c 0
 120 564 72 577 35 617 c 1
 98 697 l 1xfd80
EndSplineSet
EndChar
StartChar: pi
Encoding: 960 960 356
Width: 517
VWidth: 2
Flags: HW
HStem: -4 103<408 473> 396 103<36 85 208 282 405 422>
VStem: 85 123<62 392> 282 124<100 396>
LayerCount: 2
Fore
SplineSet
372 498 m 1
 407 498 418 513 434 534 c 1
 518 444 l 1
 480 401 452 397 405 396 c 1
 405 149 l 2
 405 113 412 99 422 99 c 0
 437 99 447 107 463 133 c 1
 518 28 l 1
 493 1 451 -4 417 -4 c 0
 332 -4 282 36 282 128 c 2
 282 396 l 1
 208 396 l 1
 208 271 l 2
 208 131 182 24 175 -4 c 1
 50 6 l 1
 59 39 85 128 85 272 c 2
 85 392 l 1
 67 392 56 391 35 381 c 1
 17 487 l 1
 38 495 65 498 95 498 c 9
 372 498 l 1
EndSplineSet
EndChar
StartChar: rho
Encoding: 961 961 357
Width: 517
VWidth: 0
Flags: HW
HStem: -3 104<215 311> 399 104<207 308>
VStem: 50 124<-164 45 153 360> 343 135<136 361>
LayerCount: 2
Fore
SplineSet
343 252 m 0
 343 254 343 258 343 260 c 0
 343 334 322 399 256 399 c 0
 208 399 173 358 173 260 c 0
 173 158 215 101 263 101 c 0
 329 101 343 171 343 252 c 0
50 274 m 2
 50 417 137 504 265 504 c 0
 361 504 415 470 449 406 c 0
 469 367 478 312 478 265 c 0
 478 126 440 -3 283 -3 c 2
 282 -3 l 2
 215 -3 192 8 160 47 c 1
 172 9 172 -30 172 -48 c 0
 172 -112 191 -154 203 -184 c 1
 78 -214 l 1
 64 -184 49 -102 49 -34 c 2
 50 274 l 2
EndSplineSet
EndChar
StartChar: sigma1
Encoding: 962 962 358
Width: 517
VWidth: 1
Flags: HW
HStem: -169 97<322 375> 5 104<227 377> 394 103<234 365>
VStem: 62 125<154 343> 384 108<-57 -6>
LayerCount: 2
Fore
SplineSet
187 258 m 0
 187 153 232 110 270 108 c 0
 271 108 353 104 354 104 c 0
 435 100 493 66 493 -32 c 0
 493 -136 383 -163 323 -169 c 1
 306 -73 l 1
 347 -67 384 -58 384 -38 c 0
 384 -11 371 -2 328 0 c 0
 325 0 321 0 318 0 c 0
 316 0 241 5 239 5 c 0
 208 6 170 17 145 36 c 1
 82 85 62 160 62 257 c 0
 62 423 149 497 303 497 c 0
 349 497 396 488 427 467 c 0
 456 447 479 419 490 394 c 1
 382 344 l 1
 377 363 362 394 294 394 c 0
 222 394 187 328 187 258 c 0
EndSplineSet
EndChar
StartChar: sigma
Encoding: 963 963 359
Width: 517
VWidth: 2
Flags: HW
HStem: -3 99<200 303> 405 99<204 307>
VStem: 40 123<138 360> 339 125<136 383>
LayerCount: 2
Fore
SplineSet
439 397 m 1
 456 359 464 308 464 265 c 0
 464 126 417 -3 253 -3 c 2
 252 -3 l 2
 101 -3 40 90 40 227 c 0
 40 407 108 503 248 504 c 0
 249 504 250 504 251 504 c 0
 313 504 481 498 506 494 c 1
 502 393 l 1
 487 395 464 396 439 397 c 1
310 121 m 1
 333 146 339 197 339 259 c 0
 339 262 339 264 339 267 c 0
 338 329 330 361 307 404 c 1
 307 404 270 405 259 405 c 0
 185 405 163 337 163 235 c 0
 163 154 194 96 253 96 c 1
 280 96 292 103 310 121 c 1
EndSplineSet
EndChar
StartChar: tau
Encoding: 964 964 360
Width: 517
VWidth: 0
Flags: HW
HStem: -1 107<319 385> 403 95<69 135 135 185 312 486>
VStem: 180 126<114 403>
LayerCount: 2
Fore
SplineSet
278 498 m 1
 338 498 l 2
 361 498 385 498 406 498 c 2
 478 498 l 1
 486 498 l 1
 486 402 l 1
 338 403 l 1
 312 403 l 1
 308 303 308 264 306 215 c 1
 306 195 l 2
 306 116 329 106 349 106 c 0
 377 106 384 119 398 156 c 1
 495 114 l 1
 485 87 446 -1 350 -1 c 0
 222 -1 180 53 180 194 c 2
 180 215 l 1
 182 266 182 309 185 403 c 1
 175 403 135 402 135 402 c 2
 101 402 92 396 68 380 c 1
 15 456 l 1
 39 477 85 498 132 498 c 2
 278 498 l 1
EndSplineSet
EndChar
StartChar: upsilon
Encoding: 965 965 361
Width: 517
VWidth: 2
Flags: HW
HStem: -2 102<194 291> 494 10G<74 166 408 452>
VStem: 45 126<125 488> 348 130<173 430>
AnchorPoint: "above_accent" 243 541 basechar 0
LayerCount: 2
Fore
SplineSet
45 178 m 0
 45 207 45 238 45 267 c 0
 45 367 44 459 34 490 c 1
 162 504 l 1
 170 469 171 380 171 280 c 0
 171 253 171 250 171 222 c 0
 171 163 185 100 233 100 c 0
 261 100 290 111 317 151 c 0
 345 193 348 211 348 327 c 0
 348 372 326 429 313 470 c 1
 437 512 l 1
 467 465 478 369 478 337 c 0
 478 335 478 333 478 331 c 0
 478 325 478 319 478 313 c 0
 478 220 464 148 380 60 c 0
 349 28 291 -2 211 -2 c 0
 117 -2 45 81 45 178 c 0
EndSplineSet
EndChar
StartChar: phi
Encoding: 966 966 362
Width: 517
VWidth: 0
Flags: HW
HStem: 408 100<311 375>
VStem: 18 110<152 413> 189 117<-193 -2 97 403> 386 111<151 401>
LayerCount: 2
Fore
SplineSet
308 -5 m 1
 309 -105 310 -184 310 -194 c 1
 190 -193 l 1
 189 -183 189 -103 189 -4 c 1
 144 4 106 28 76 65 c 0
 32 119 18 190 18 278 c 0
 18 389 45 478 90 518 c 1
 182 459 l 1
 142 418 128 374 128 280 c 0
 128 209 151 112 189 97 c 1
 189 312 l 2
 189 466 264 508 334 508 c 0
 402 508 497 494 497 309 c 2
 497 303 l 2
 497 223 484 132 461 87 c 0
 430 27 372 5 308 -5 c 1
307 96 m 1
 372 112 385 198 386 305 c 1
 386 314 l 2
 386 397 369 408 335 408 c 2
 335 408 l 2
 316 408 306 401 306 314 c 0
 306 245 307 180 307 96 c 1
EndSplineSet
EndChar
StartChar: chi
Encoding: 967 967 363
Width: 517
VWidth: 6
Flags: HW
HStem: -194 111<409 463> 401 107<15 90>
LayerCount: 2
Fore
SplineSet
192 182 m 1
 192 182 137 319 101 368 c 0
 80 396 53 401 15 401 c 1
 15 508 l 1
 27 508 38 508 48 508 c 0
 98 508 129 504 168 456 c 0
 219 393 252 281 252 281 c 1
 297 379 365 516 365 516 c 1
 460 468 l 1
 460 468 389 318 310 155 c 1
 340 71 406 -83 432 -83 c 0
 438 -83 439 -81 442 -73 c 1
 513 -122 l 1
 510 -141 486 -194 436 -194 c 0
 336 -194 276 -19 249 38 c 1
 138 -196 l 1
 32 -140 l 1
 192 182 l 1
EndSplineSet
EndChar
StartChar: psi
Encoding: 968 968 364
Width: 517
VWidth: 2
Flags: HW
HStem: -2 99<153 189 306 331> 494 4G<40 125 192 308 436 482>
VStem: 23 107<118 489> 189 117<-191 -2 104 498> 388 114<175 465>
LayerCount: 2
Back
SplineSet
302.001953125 95.703125 m 5
 367.431640625 111.81640625 380.10546875 197.830078125 381.103515625 304.6875 c 5
 381.103515625 313.96484375 l 6
 381.103515625 396.484375 364.501953125 407.71484375 330.56640625 407.71484375 c 6
 330.078125 407.71484375 l 6
 311.767578125 407.71484375 301.025390625 401.85546875 301.025390625 314.453125 c 4
 301.025390625 245.1171875 301.513671875 180.17578125 302.001953125 95.703125 c 5
302.490234375 -5.37109375 m 5
 303.466796875 -104.98046875 304.443359375 -184.08203125 304.931640625 -194.3359375 c 5
 185.791015625 -193.359375 l 5
 184.814453125 -183.10546875 184.814453125 -103.02734375 184.814453125 -3.90625 c 5
 139.892578125 4.39453125 101.318359375 28.3203125 71.533203125 64.94140625 c 4
 27.587890625 118.65234375 12.939453125 189.94140625 12.939453125 277.83203125 c 4
 12.939453125 389.16015625 39.306640625 477.9296875 84.716796875 517.48046875 c 5
 177.001953125 458.88671875 l 5
 137.451171875 417.87109375 123.291015625 373.53515625 123.291015625 279.78515625 c 4
 123.291015625 208.880859375 146.728515625 111.81640625 184.814453125 97.16796875 c 5
 184.814453125 312.5 l 6
 184.814453125 466.30859375 259.27734375 507.8125 329.58984375 507.8125 c 4
 397.4609375 507.8125 492.431640625 493.1640625 492.431640625 308.59375 c 6
 492.431640625 303.22265625 l 6
 492.431640625 223.14453125 479.736328125 132.8125 456.298828125 87.40234375 c 4
 425.048828125 27.34375 366.943359375 4.39453125 302.490234375 -5.37109375 c 5
EndSplineSet
Fore
SplineSet
23 179 m 0
 23 208 23 239 23 268 c 0
 23 368 22 460 12 491 c 1
 121 504 l 1
 129 469 131 380 131 280 c 0
 131 253 131 246 131 218 c 0
 131 139 152 97 189 97 c 1
 189 236 192 339 192 453 c 2
 192 498 l 1
 308 498 l 1
 308 427 l 2
 308 312 306 232 306 104 c 1
 372 123 388 234 388 360 c 0
 388 405 376 447 360 481 c 1
 473 511 l 1
 491 470 502 398 502 366 c 0
 502 364 502 362 502 360 c 0
 502 354 502 348 502 342 c 0
 502 249 500 135 416 47 c 0
 394 24 367 14 306 4 c 1
 306 -61 l 2
 306 -117 305 -144 303 -193 c 1
 187 -193 l 1
 189 -163 189 -142 189 -115 c 0
 189 -92 189 -64 189 -22 c 0
 189 -15 189 -9 189 -2 c 1
 188 -2 188 -2 187 -2 c 0
 80 -2 23 82 23 179 c 0
EndSplineSet
EndChar
StartChar: omega
Encoding: 969 969 365
Width: 517
VWidth: 2
Flags: HW
HStem: -6 104<148 192 311 364> 498 15G<50 98 421 472>
VStem: 16 113<112 392> 196 111<98 334> 382 117<115 399>
AnchorPoint: "above_accent" 224 541 basechar 0
LayerCount: 2
Fore
SplineSet
195 334 m 1
 308 343 l 1
 307 301 307 255 307 210 c 1
 307 206 308 202 308 198 c 0
 309 110 311 98 325 98 c 0
 363 98 382 132 382 205 c 0
 382 309 375 398 333 462 c 1
 446 507 l 1
 499 419 500 284 500 215 c 0
 500 106 467 -6 347 -6 c 0
 291 -6 267 10 255 51 c 1
 241 16 225 -5 160 -5 c 0
 50 -5 16 108 16 217 c 0
 16 299 23 423 77 512 c 1
 185 463 l 1
 145 401 129 330 129 229 c 0
 129 146 148 96 174 96 c 0
 195 96 196 140 196 193 c 0
 196 197 196 202 196 207 c 0
 196 259 196 285 195 334 c 1
EndSplineSet
EndChar
StartChar: uni03CF
Encoding: 975 975 421
Width: 517
VWidth: 0
Flags: HW
HStem: -178 86<305 378> -2 10G<37 163> 642 10G<37 163 380 400>
VStem: 37 126<-2 254 425 652> 392 112<-77 26>
LayerCount: 2
Fore
SplineSet
37 -2 m 1
 37 652 l 1
 163 652 l 1
 163 425 l 1
 213 496 371 654 389 672 c 1
 485 585 l 1
 396 519 312 418 283 382 c 1
 342 324 479 113 504 46 c 1
 502 -64 487 -178 305 -178 c 1
 305 -91 l 1
 384 -91 392 -61 392 -16 c 1
 370 38 268 217 205 280 c 1
 205 280 178 250 163 215 c 1
 163 -2 l 1
 121 -2 79 -2 37 -2 c 1
EndSplineSet
EndChar
StartChar: uni03D0
Encoding: 976 976 413
Width: 517
VWidth: 0
Flags: HW
HStem: 0 99<223 344> 309 101<163 258> 547 102<181 263>
VStem: 39 123<174 306 409 529> 276 119<429 532> 360 121<114 258>
LayerCount: 2
Back
SplineSet
287.109375 97.16796875 m 4xf8
 346.6796875 97.16796875 355.46875 142.08984375 355.46875 188.96484375 c 4xf4
 355.46875 278.3203125 283.203125 309.5703125 184.5703125 309.5703125 c 5
 184.5703125 410.64453125 l 5
 252.44140625 410.64453125 270.5078125 431.15234375 270.5078125 489.74609375 c 4
 270.5078125 516.6015625 248.53515625 547.8515625 202.1484375 547.8515625 c 5
 172.8515625 547.8515625 155.2734375 528.80859375 155.2734375 484.86328125 c 4
 155.2734375 436.03515625 156.73828125 312.5 157.2265625 194.3359375 c 5
 204.58984375 108.88671875 256.022460938 97.16796875 287.109375 97.16796875 c 4xf8
150.87890625 54.6875 m 5
 150.87890625 40.52734375 150.87890625 28.80859375 150.87890625 19.04296875 c 4
 150.87890625 -41.50390625 149.4140625 -99.12109375 145.5078125 -146.484375 c 5
 30.2734375 -138.18359375 l 5
 35.15625 -89.35546875 36.62109375 -36.1328125 36.62109375 18.06640625 c 4
 36.62109375 109.375 32.2265625 404.78515625 32.2265625 489.74609375 c 4
 32.2265625 565.91796875 86.42578125 648.4375 183.59375 648.4375 c 4
 282.71484375 648.4375 390.13671875 622.0703125 390.13671875 493.1640625 c 4xf8
 390.13671875 406.25 345.703125 391.6015625 328.61328125 380.37109375 c 5
 410.64453125 365.966796875 475.09765625 310.791015625 475.09765625 186.767578125 c 4
 475.09765625 24.4140625 404.78515625 0 285.64453125 0 c 4
 284.66796875 0 283.203125 0 282.2265625 0 c 4
 219.23828125 0 194.82421875 19.04296875 150.87890625 54.6875 c 5
EndSplineSet
Fore
SplineSet
39 359 m 0xf4
 39 564 98 648 207 648 c 0
 296 648 396 615 396 494 c 0xf8
 396 444 379 398 332 380 c 1
 416 367 481 308 481 186 c 0
 481 52 432 0 270 0 c 0
 66 0 39 162 39 359 c 0xf4
160 409 m 1
 238 409 276 417 276 491 c 0
 276 530 243 547 207 547 c 0
 179 547 160 492 160 409 c 1
162 302 m 1
 162 154 219 99 277 99 c 0
 349 99 360 128 360 193 c 0xf4
 360 272 290 309 224 309 c 0
 208 309 185 307 162 302 c 1
EndSplineSet
EndChar
StartChar: theta1
Encoding: 977 977 414
Width: 517
VWidth: 0
Flags: HW
HStem: -8 99<195 306> 275 111<166 361> 557 103<195 329>
VStem: 17 125<159 249> 30 118<403 513> 362 127<167 274 384 481>
LayerCount: 2
Fore
SplineSet
364 384 m 1xec
 356 485 360 557 262 557 c 0
 202 557 147 513 147 453 c 0
 147 397 188 387 243 387 c 0
 331 387 339 386 364 384 c 1xec
30 450 m 0
 30 569 119 659 260 659 c 0
 339 659 487 624 489 316 c 1
 489 311 l 2
 489 229 467 152 444 106 c 0
 407 34 335 -8 254 -8 c 0
 194 -8 122 12 82 62 c 0
 48 104 25 183 17 248 c 1
 142 272 l 1xf4
 146 231 157 163 172 139 c 0
 190 110 215 91 254 91 c 0
 296 91 322 121 338 159 c 1
 349 181 358 230 362 274 c 1
 349 274 335 275 320 275 c 0
 166 275 30 292 30 450 c 0
EndSplineSet
EndChar
StartChar: Upsilon1
Encoding: 978 978 415
Width: 517
VWidth: 1
Flags: HW
HStem: 0 10G<189 317> 507 10G<416 475> 662 10G<371 455> 676 10G<44 95>
VStem: 189 127<0 401> 417 93<522 557>
AnchorPoint: "above_accent" 249 674 basechar 0
LayerCount: 2
Fore
SplineSet
250 498 m 1
 281 569 331 672 412 672 c 0
 499 672 510 614 510 525 c 0
 510 524 510 523 510 522 c 1
 417 507 l 1
 416 528 414 555 414 561 c 1
 405 555 317 442 317 315 c 2
 317 0 l 1
 189 0 l 1
 189 311 l 2
 189 399 110 543 13 567 c 1
 47 686 l 1
 144 665 224 567 250 498 c 1
EndSplineSet
EndChar
StartChar: phi1
Encoding: 981 981 418
Width: 517
VWidth: 2
Flags: HW
HStem: 662 10G<181 313>
VStem: 6 115<153 344> 181 132<-197 6 111 388 496 672> 375 122<146 359>
LayerCount: 2
Fore
SplineSet
182 388 m 1
 137 362 121 306 121 235 c 0
 121 178 143 133 185 111 c 1
 185 197 183 296 182 388 c 1
185 2 m 1
 59 23 6 109 6 227 c 0
 6 381 63 473 181 497 c 1
 181 547 181 591 181 626 c 2
 181 672 l 1
 313 672 l 1
 313 601 l 2
 313 572 313 538 313 500 c 1
 386 489 432 457 463 406 c 0
 486 367 497 312 497 265 c 0
 497 143 456 30 319 3 c 1
 319 -21 l 2
 319 -77 318 -148 316 -197 c 1
 183 -197 l 1
 185 -167 186 -102 186 -75 c 0
 186 -55 185 -32 185 2 c 1
333 121 m 1
 366 146 375 197 375 259 c 0
 375 262 375 264 375 267 c 0
 374 325 360 374 315 395 c 1
 316 301 318 198 318 111 c 1
 323 114 328 118 333 121 c 1
EndSplineSet
EndChar
StartChar: omega1
Encoding: 982 982 419
Width: 517
VWidth: 2
Flags: HW
HStem: -6 104<148 192 311 364> 401 98<18 53 164 348 461 501>
VStem: 16 113<112 350> 196 111<98 334> 382 117<115 345>
LayerCount: 2
Fore
SplineSet
17 497 m 1
 44 499 85 499 123 499 c 0
 138 499 154 499 171 499 c 2
 225 499 l 2
 298 499 458 497 494 497 c 2
 501 497 l 1
 501 401 l 1
 461 401 l 1
 487 334 500 264 500 215 c 0
 500 106 467 -6 347 -6 c 0
 291 -6 267 10 255 51 c 1
 241 16 225 -5 160 -5 c 0
 50 -5 16 108 16 217 c 0
 16 274 28 338 53 401 c 1
 18 401 l 1
 17 497 l 1
195 334 m 1
 308 343 l 1
 307 301 307 255 307 210 c 1
 307 206 308 202 308 198 c 0
 309 110 311 98 325 98 c 0
 363 98 382 132 382 205 c 0
 382 282 365 346 339 401 c 1
 175 401 l 1
 150 354 129 301 129 229 c 0
 129 146 148 96 174 96 c 0
 195 96 196 140 196 193 c 0
 196 197 196 202 196 207 c 0
 196 259 196 285 195 334 c 1
EndSplineSet
EndChar
StartChar: uni03D7
Encoding: 983 983 420
Width: 517
VWidth: 0
Flags: HW
HStem: -178 91<313 402> 0 97<339 417> 402 96<104 199>
VStem: 154 118<299 401> 246 117<97 202> 418 85<-73 18>
LayerCount: 2
Fore
SplineSet
10 409 m 1xf4
 10 409 48 498 158 498 c 0
 240 498 271 451 271 380 c 0xf4
 271 348 264 319 253 297 c 1
 253 297 283 329 314 354 c 2
 323 361 l 1
 340 429 372 499 438 499 c 0
 491 499 503 461 503 429 c 0
 503 375 431 326 381 287 c 1
 367 249 363 213 363 169 c 2
 363 164 l 2
 363 131 363 97 382 97 c 0
 398 97 417 116 433 140 c 1
 503 93 l 1
 503 83 l 2
 503 61 503 40 503 20 c 0
 503 -105 491 -178 312 -178 c 1
 313 -87 l 1
 412 -87 418 -76 418 13 c 0
 418 14 418 17 418 18 c 1
 405 8 388 0 360 0 c 0
 313 0 246 6 246 94 c 0xec
 246 142 257 181 268 203 c 1
 245 186 241 184 210 159 c 1
 203 153 l 1
 181 84 132 0 65 0 c 2
 64 0 l 2
 33 0 11 23 11 67 c 0
 11 143 63 172 113 211 c 1
 127 249 154 310 154 354 c 0
 154 399 144 402 131 402 c 0
 118 402 98 376 78 344 c 1
 10 409 l 1xf4
EndSplineSet
EndChar
StartChar: uni03D8
Encoding: 984 984 422
Width: 517
VWidth: 0
Flags: HW
HStem: -154 246<184 298> 560 99<195 298>
VStem: 5 127<159 464> 184 120<-154 4> 355 125<170 472>
LayerCount: 2
Fore
SplineSet
163 139 m 0
 181 110 206 91 245 91 c 0
 287 91 313 121 329 159 c 1
 344 188 355 264 355 312 c 1
 355 321 l 2
 355 373 348 442 329 489 c 0
 308 541 282 560 250 560 c 0
 216 560 196 548 175 513 c 0
 151 472 132 408 132 289 c 0
 132 242 143 172 163 139 c 0
250 659 m 1
 329 659 478 624 480 316 c 1
 480 311 l 2
 480 229 458 152 435 106 c 1
 408 53 360 15 304 0 c 1
 304 -154 l 1
 184 -154 l 1
 184 -1 l 1
 141 8 99 28 73 62 c 0
 29 117 5 193 5 283 c 0
 5 455 43 533 77 580 c 0
 109 625 174 658 250 659 c 1
EndSplineSet
EndChar
StartChar: uni03D9
Encoding: 985 985 423
Width: 517
VWidth: 2
Flags: HW
HStem: -154 250<200 305> 405 99<202 309>
VStem: 40 123<138 360> 186 120<-154 7> 339 125<134 371>
LayerCount: 2
Fore
SplineSet
186 4 m 1
 83 28 40 113 40 227 c 0
 40 408 108 504 251 504 c 0
 347 504 402 470 436 406 c 0
 456 367 464 312 464 265 c 0
 464 142 428 27 306 2 c 1
 306 -154 l 1
 186 -154 l 1
 186 4 l 1
310 121 m 1
 333 146 339 197 339 259 c 0
 339 262 339 264 339 267 c 0
 338 344 321 405 259 405 c 0
 185 405 163 337 163 235 c 0
 163 154 194 96 253 96 c 1
 280 96 292 103 310 121 c 1
EndSplineSet
EndChar
StartChar: uni03DA
Encoding: 986 986 425
Width: 517
VWidth: 1
Flags: HW
HStem: -186 97<257 323> 542 104<274 477> 551 100<219 475>
VStem: 23 128<163 457> 336 113<-74 -25>
LayerCount: 2
Fore
SplineSet
236 91 m 0xb8
 355 67 449 52 449 -46 c 0
 449 -109 402 -185 257 -186 c 1
 246 -89 l 1
 302 -82 336 -74 336 -48 c 0
 336 -13 244 -9 203 -1 c 1
 76 29 23 157 23 311 c 0
 23 437 63 515 88 553 c 0
 123 606 190 650 275 650 c 0xb8
 337 650 377 646 450 646 c 0
 458 646 468 646 477 646 c 1
 478 542 l 1xd8
 413 549 314 551 272 551 c 0
 216 551 151 485 151 307 c 0
 151 182 189 101 236 91 c 0xb8
EndSplineSet
EndChar
StartChar: uni03DB
Encoding: 987 987 424
Width: 517
VWidth: 1
Flags: HW
HStem: -186 97<272 339> 394 104<213 489>
VStem: 40 125<153 343> 351 113<-74 -24>
LayerCount: 2
Fore
SplineSet
218 -1 m 0
 198 2 153 15 123 36 c 0
 58 83 40 160 40 257 c 0
 40 423 126 497 280 497 c 0
 350 497 394 499 440 499 c 0
 456 499 472 498 489 498 c 1
 490 392 l 1
 478 394 420 394 362 394 c 0
 329 394 296 394 271 394 c 0
 199 394 165 328 165 258 c 0
 165 124 229 103 258 96 c 0
 385 63 464 37 464 -46 c 0
 464 -109 417 -185 272 -186 c 1
 261 -89 l 1
 317 -82 351 -74 351 -48 c 0
 351 -13 261 -8 218 -1 c 0
EndSplineSet
EndChar
StartChar: uni03DD
Encoding: 989 989 427
Width: 517
VWidth: 0
Flags: HW
HStem: -169 118<29 121> 394 100<280 434> 594 98<292 455>
VStem: 154 125<-17 394 494 581>
LayerCount: 2
Fore
SplineSet
280 73 m 2
 280 -51 254 -169 70 -169 c 0
 55 -169 40 -169 23 -167 c 1
 29 -48 l 1
 43 -50 55 -51 67 -51 c 0
 128 -51 154 -4 154 73 c 2
 154 520 l 2
 154 583 187 692 341 692 c 0
 437 692 450 685 493 663 c 1
 448 568 l 1
 412 590 394 594 350 594 c 0
 286 594 279 558 279 529 c 0
 279 516 280 494 280 494 c 1
 313 494 334 494 370 494 c 0
 421 494 441 488 456 484 c 1
 435 388 l 1
 425 391 414 394 387 394 c 2
 279 394 l 1
 280 73 l 2
EndSplineSet
EndChar
StartChar: afii10051
Encoding: 1026 1026 747
Width: 517
VWidth: 0
Flags: HW
HStem: 0 10G<96 223> 300 104<224 342> 522 103<11 100 224 362>
VStem: 101 122<0 295 395 522> 365 125<16 275>
LayerCount: 2
Fore
SplineSet
365 200 m 0
 365 260 350 300 274 300 c 0
 247 300 223 295 223 295 c 1
 223 252 223 221 223 175 c 0
 223 124 223 76 223 42 c 0
 223 23 223 8 223 0 c 1
 214 0 205 0 196 0 c 0
 178 0 113 0 96 0 c 1
 96 95 101 197 101 400 c 0
 101 453 100 478 100 522 c 1
 11 522 l 1
 11 523 l 1
 11 625 l 1
 170 625 l 1
 191 625 212 625 233 625 c 0
 276 625 320 625 362 625 c 1
 362 522 l 1
 224 522 l 1
 224 504 224 511 224 493 c 0
 224 457 224 435 224 395 c 1
 239 399 258 404 282 404 c 0
 416 404 490 343 490 192 c 0
 490 56 459 -114 334 -137 c 1
 290 -28 l 1
 328 -11 365 -16 365 200 c 0
EndSplineSet
EndChar
StartChar: afii10053
Encoding: 1028 1028 749
Width: 517
Flags: HW
HStem: -6 103<214 367> 271 103<149 366> 545 103<212 359>
VStem: 20 127<174 266 366 458>
LayerCount: 2
Fore
SplineSet
400 155 m 1
 498 82 l 1
 458 33 398 -6 280 -6 c 0
 112 -6 20 137 20 310 c 0
 20 600 196 647 274 647 c 0
 400 647 463 599 495 555 c 1
 385 486 l 1
 366 525 346 545 278 545 c 0
 205 545 147 481 147 366 c 1
 170 369 242 373 366 373 c 1
 366 271 l 1
 250 271 180 270 147 263 c 1
 147 158 213 96 277 96 c 0
 348 96 378 117 400 155 c 1
EndSplineSet
EndChar
StartChar: afii10058
Encoding: 1033 1033 754
Width: 517
Flags: HW
HStem: -14 10G<18 88> -2 103<336 384> 312 103<339 426> 531 103<183 228>
VStem: 73 110<365 531> 229 110<100 294 393 531> 396 116<106 310>
LayerCount: 2
Fore
SplineSet
364 312 m 0
 348 312 338 294 338 294 c 1
 337 178 336 139 336 102 c 1
 342 101 352 100 357 100 c 0
 378 100 396 121 396 200 c 0
 396 283 390 312 364 312 c 0
14 95 m 1
 16 95 18 95 20 95 c 0
 53 95 73 128 73 633 c 1
 218 633 l 2
 235 633 210 633 225 633 c 0
 263 633 311 633 338 631 c 1
 338 522 l 2
 338 445 321 393 321 393 c 1
 336 411 362 415 386 415 c 0
 464 415 512 352 512 192 c 0
 512 51 429 -2 345 -2 c 0
 299 -2 284 0 227 0 c 1
 227 94 229 196 229 398 c 2
 229 400 l 2
 229 436 228 476 228 531 c 1
 183 531 l 1
 171 17 151 -14 25 -14 c 0
 23 -14 21 -14 19 -14 c 1
 14 95 l 1
EndSplineSet
EndChar
StartChar: afii10059
Encoding: 1034 1034 755
Width: 517
Flags: HW
HStem: -2 103<336 384> 289 103<141 228> 312 103<338 425> 624 9G<29 141 228 247>
VStem: 29 111<0 289 391 632> 228 110<100 289 392 631> 396 116<106 306>
LayerCount: 2
Fore
SplineSet
354 312 m 0xbe
 344 312 338 294 338 294 c 1
 337 178 336 139 336 102 c 1
 342 101 352 100 357 100 c 0
 378 100 396 121 396 200 c 0
 396 283 388 312 354 312 c 0xbe
228 633 m 1
 266 633 311 633 338 631 c 1
 338 533 l 2
 338 472 322 390 322 390 c 1
 339 411 362 415 384 415 c 0xbe
 463 415 512 352 512 192 c 0
 512 51 429 -2 345 -2 c 0
 299 -2 284 0 227 0 c 1
 227 75 229 157 229 289 c 1
 141 289 l 1
 141 124 142 88 142 0 c 1
 29 0 l 1
 29 632 l 1
 141 633 l 1
 141 391 l 1
 228 391 l 1xde
 228 633 l 1
EndSplineSet
EndChar
StartChar: afii10060
Encoding: 1035 1035 756
Width: 517
VWidth: 0
Flags: HW
HStem: -2 2G<98 225 365 404> 297 103<226 336> 522 103<11 101 227 362>
VStem: 102 123<0 292 391 522> 354 125<24 275>
LayerCount: 2
Fore
SplineSet
371 -12 m 1
 360 6 354 27 354 67 c 1
 354 200 l 0
 354 283 324 297 274 297 c 0
 247 297 226 292 226 292 c 1
 226 249 225 221 225 175 c 0
 225 124 225 76 225 42 c 0
 225 23 225 8 225 0 c 1
 216 0 222 0 213 0 c 0
 195 0 115 0 98 0 c 1
 98 95 102 197 102 400 c 0
 102 453 101 478 101 522 c 1
 11 522 l 1
 11 523 l 1
 11 625 l 1
 170 625 l 1
 191 625 212 625 233 625 c 0
 276 625 320 625 362 625 c 1
 362 522 l 1
 227 522 l 1
 227 504 227 511 227 493 c 0
 227 457 227 431 227 391 c 1
 239 396 261 399 282 399 c 0
 402 399 478 337 478 192 c 0
 479 82 l 1
 479 52 483 37 489 23 c 1
 371 -12 l 1
EndSplineSet
EndChar
StartChar: afii10145
Encoding: 1039 1039 760
Width: 517
Flags: HW
HStem: 0 103<170 194 307 330> 623 10G<47 170 331 455>
VStem: 46 125<103 633> 194 112<-155 0> 330 125<103 633>
LayerCount: 2
Fore
SplineSet
170 103 m 1
 330 103 l 1
 331 633 l 1
 455 633 l 1
 454 77 l 1
 454 0 l 1
 307 0 l 0
 307 -155 l 1
 194 -155 l 1
 194 0 l 1
 142 0 98 0 46 -0 c 1
 47 633 l 1
 170 633 l 1
 170 103 l 1
EndSplineSet
EndChar
StartChar: afii10018
Encoding: 1041 1041 762
Width: 517
VWidth: 0
Flags: HW
HStem: -2 103<171 309> 297 103<174 305> 532 103<137 403>
VStem: 52 124<101 296 399 530> 337 127<129 267>
LayerCount: 2
Fore
SplineSet
414 623 m 1
 403 521 l 17
 353 531 295 532 230 532 c 0
 178 532 173 531 173 531 c 1
 174 513 175 490 175 467 c 0
 175 434 174 435 174 399 c 1
 195 399 221 399 242 399 c 0
 387 399 464 327 464 192 c 0
 464 82 392 11 310 1 c 0
 291 -1 271 -2 252 -2 c 0
 210 -2 167 0 114 0 c 2
 47 0 l 1
 47 95 52 199 52 402 c 0
 52 486 50 565 46 627 c 1
 86 630 110 634 165 634 c 1
 302 634 375 634 414 623 c 1
238 297 m 0
 220 297 191 297 173 296 c 1
 172 180 171 141 171 104 c 1
 191 102 199 100 236 100 c 0
 314 100 337 139 337 200 c 0
 337 253 314 297 238 297 c 0
EndSplineSet
EndChar
StartChar: afii10021
Encoding: 1044 1044 765
Width: 517
Flags: HW
HStem: -1 101<167 301> 531 103<222 299>
VStem: 6 112<-140 -3> 99 123<310 531> 299 125<100 531> 374 112<-144 -1>
LayerCount: 2
Fore
SplineSet
299 398 m 1xd8
 299 531 l 1
 222 531 l 1
 214 287 199 220 167 100 c 1
 301 100 l 1
 301 140 299 214 299 311 c 2
 299 398 l 1xd8
486 -145 m 1xc4
 374 -144 l 1
 375 -1 l 1
 337 -1 118 -3 118 -3 c 1
 118 -5 118 -9 118 -11 c 0
 118 -63 127 -140 127 -140 c 1
 16 -148 l 1
 11 -104 6 -3 6 52 c 0xe4
 6 69 5 85 5 100 c 1
 32 100 l 1
 85 245 99 332 99 599 c 0
 99 610 99 621 99 633 c 1
 174 633 249 633 325 633 c 0
 363 633 398 633 425 631 c 1
 425 100 l 1xd8
 486 100 l 1
 486 -145 l 1xc4
EndSplineSet
EndChar
StartChar: afii10024
Encoding: 1046 1046 767
Width: 517
Flags: HW
HStem: -2 10G<-12 118 193 299 377 506> 638 1G<83 136 193 299 367 413>
VStem: 193 106<-2 287 389 639> 382 124<2 98>
AnchorPoint: "above_accent" 245 646 basechar 0
LayerCount: 2
Fore
SplineSet
312 287 m 1
 299 287 l 1
 299 -2 l 1
 193 -2 l 1
 193 287 l 1
 182 287 l 1
 153 196 124 62 113 -3 c 1
 -12 2 l 1
 7 92 58 248 89 335 c 1
 55 453 54 531 -8 601 c 1
 107 647 l 1
 166 562 165 447 181 389 c 1
 193 389 l 1
 193 639 l 1
 299 639 l 1
 299 389 l 1
 312 389 l 1
 328 447 344 557 390 647 c 1
 502 601 l 1
 452 525 442 453 408 335 c 1
 439 246 494 88 506 2 c 1
 382 -3 l 1
 373 61 341 198 312 287 c 1
EndSplineSet
EndChar
StartChar: afii10025
Encoding: 1047 1047 768
Width: 517
Flags: HW
HStem: -3 103<136 318> 297 103<159 294> 543 103<128 294>
VStem: 317 127<422 520> 343 127<124 250>
AnchorPoint: "above_accent" 218 646 basechar 0
LayerCount: 2
Fore
SplineSet
158 400 m 1xe8
 194 400 192 399 216 399 c 0
 290 399 317 429 317 479 c 0
 317 516 275 543 228 543 c 0
 152 543 132 530 84 485 c 1
 22 592 l 1
 93 638 147 646 233 646 c 0
 331 646 444 589 444 476 c 0xf0
 444 417 424 380 375 350 c 1
 429 324 471 272 471 172 c 0
 471 50 403 -3 230 -3 c 0
 150 -3 96 4 22 45 c 1
 86 159 l 1
 145 108 172 100 230 100 c 0
 318 100 343 134 343 174 c 0
 343 259 290 297 217 297 c 0
 193 297 195 296 159 296 c 1
 158 400 l 1xe8
EndSplineSet
EndChar
StartChar: afii10026
Encoding: 1048 1048 769
Width: 517
VWidth: 0
Flags: HW
HStem: 0 10G<35 171 331 451> 630 10G<37 156 306 450>
VStem: 37 119<155 362 362 638> 329 120<0 391 565 639>
AnchorPoint: "above_accent" 243 646 basechar 0
LayerCount: 2
Fore
SplineSet
330 640 m 1
 450 639 l 1
 450 613 450 579 450 551 c 0
 450 439 448 315 448 205 c 0
 448 185 448 166 448 147 c 0
 448 91 449 42 451 0 c 1
 333 0 l 1
 329 83 329 146 329 237 c 0
 329 290 345 391 345 391 c 1
 288 270 208 82 171 0 c 1
 35 -0 l 1
 37 638 l 1
 156 640 l 1
 156 566 156 362 156 362 c 2
 156 267 137 155 137 155 c 1
 195 300 283 460 330 640 c 1
EndSplineSet
EndChar
StartChar: afii10029
Encoding: 1051 1051 772
Width: 517
Flags: HW
HStem: -5 103<12 81> 542 103<234 342>
VStem: 109 125<366 542> 342 125<0 542>
LayerCount: 2
Fore
SplineSet
0 0 m 1
 13 113 l 1
 24 105 34 98 59 98 c 0
 94 98 100 155 109 644 c 1
 309 644 l 2
 326 644 352 644 367 644 c 0
 405 644 440 644 467 642 c 1
 467 431 467 211 467 0 c 1
 340 0 l 1
 340 102 342 163 342 311 c 2
 342 398 l 1
 342 542 l 1
 234 542 l 1
 222 50 194 -5 56 -5 c 0
 31 -5 10 -3 0 0 c 1
EndSplineSet
EndChar
StartChar: afii10033
Encoding: 1055 1055 776
Width: 517
VWidth: 15
Flags: HW
HStem: -2 10G<47 172 325 450> 541 103<172 324>
VStem: 47 125<-2 541> 325 125<-2 541>
LayerCount: 2
Fore
SplineSet
172 541 m 1
 172 -2 l 1
 47 -2 l 1
 45 644 l 1
 373 644 l 1
 450 644 l 1
 450 -2 l 1
 325 -2 l 1
 324 541 l 1
 172 541 l 1
EndSplineSet
EndChar
StartChar: afii10037
Encoding: 1059 1059 780
Width: 517
Flags: HW
HStem: -11 103<103 179> 637 10G<99 152 359 404>
AnchorPoint: "above_accent" 250 646 basechar 0
LayerCount: 2
Fore
SplineSet
78 145 m 1
 100 110 125 92 146 92 c 0
 180 92 207 160 217 181 c 1
 167 209 130 228 11 612 c 1
 134 646 l 1
 170 490 220 348 260 299 c 1
 271 336 291 405 313 475 c 0
 344 570 355 618 363 648 c 1
 493 618 l 1
 471 543 444 473 415 384 c 0
 386 295 364 224 345 174 c 0
 293 32 220 -11 149 -11 c 0
 89 -11 51 -5 8 29 c 1
 78 145 l 1
EndSplineSet
EndChar
StartChar: afii10038
Encoding: 1060 1060 781
Width: 517
VWidth: 0
Flags: HW
HStem: 0 10G<185 321> 43 103<148 193 322 364> 480 103<146 193 321 367> 628 10G<191 324>
VStem: 8 119<161 463> 198 119<146 480 586 629> 381 119<160 465>
LayerCount: 2
Fore
SplineSet
193 43 m 1
 137 43 8 76 8 291 c 3
 8 530 89 580 193 583 c 1
 190 638 l 1
 324 638 l 1
 324 638 323 606 321 586 c 1
 390 585 500 555 500 309 c 3
 500 87 403 42 322 42 c 1
 322 42 322 24 321 0 c 1
 185 0 l 1
 190 15 193 28 193 43 c 1
316 145 m 1
 359 145 381 150 381 313 c 3
 381 480 363 483 315 484 c 1
 315 393 316 298 316 173 c 2
 316 145 l 1
198 146 m 1
 198 268 198 385 198 480 c 1
 130 478 127 454 127 297 c 3
 127 164 144 146 198 146 c 1
EndSplineSet
EndChar
StartChar: afii10040
Encoding: 1062 1062 783
Width: 517
Flags: HW
HStem: 0 103<154 295> 623 10G<30 154 296 418>
VStem: 29 125<103 633> 295 123<106 633> 377 112<-142 0>
LayerCount: 2
Fore
SplineSet
154 103 m 1xe8
 295 103 l 1
 296 633 l 1
 418 633 l 1
 417 106 l 1xf0
 490 106 l 1
 490 91 489 47 489 30 c 0
 489 -25 493 -102 509 -144 c 1
 400 -161 l 1
 384 -118 378 -54 377 0 c 1
 341 0 l 1
 29 -0 l 1
 30 633 l 1
 154 633 l 1
 154 103 l 1xe8
EndSplineSet
EndChar
StartChar: afii10041
Encoding: 1063 1063 784
Width: 517
Flags: HW
HStem: 0 10G<334 459> 201 103<198 327> 623 10G<30 156 334 459>
VStem: 30 126<363 633> 334 125<0 232 315 633>
AnchorPoint: "above_accent" 245 646 basechar 0
LayerCount: 2
Fore
SplineSet
459 633 m 1
 459 422 459 211 459 0 c 1
 334 0 l 1
 335 128 l 2
 335 172 342 232 342 232 c 1
 307 208 271 201 235 201 c 0
 80 201 30 289 30 580 c 0
 30 594 30 608 30 622 c 0
 30 625 30 630 30 633 c 1
 156 633 l 1
 156 367 176 304 245 304 c 0
 275 304 296 307 333 323 c 1
 334 633 l 1
 459 633 l 1
EndSplineSet
EndChar
StartChar: afii10042
Encoding: 1064 1064 785
Width: 517
Flags: HW
HStem: 0 103<136 188 308 359> 623 10G<18 136 188 308 359 479>
VStem: 17 119<103 633> 188 119<103 633> 359 119<103 633>
LayerCount: 2
Fore
SplineSet
136 103 m 1
 188 103 l 1
 188 633 l 1
 308 633 l 1
 308 103 l 1
 359 103 l 1
 359 633 l 1
 479 633 l 1
 479 0 l 1
 402 0 l 1
 17 -0 l 1
 18 633 l 1
 136 633 l 1
 136 103 l 1
EndSplineSet
EndChar
StartChar: afii10043
Encoding: 1065 1065 786
Width: 517
Flags: HW
HStem: 0 103<133 175 292 332> 623 10G<18 133 175 292 333 449>
VStem: 16 117<103 633> 175 117<103 633> 332 117<107 633> 386 112<-145 0>
LayerCount: 2
Fore
SplineSet
133 103 m 1xf4
 175 103 l 1
 175 633 l 1
 292 633 l 1
 292 103 l 1
 332 103 l 1
 333 633 l 1
 449 633 l 1
 449 107 l 1xf8
 499 107 l 1
 499 107 499 39 499 18 c 0
 499 -39 507 -106 517 -147 c 1
 406 -161 l 1
 396 -124 386 -67 386 0 c 1
 372 0 l 1
 16 -0 l 1
 18 633 l 1
 133 633 l 1
 133 103 l 1xf4
EndSplineSet
EndChar
StartChar: afii10044
Encoding: 1066 1066 787
Width: 517
VWidth: 0
Flags: HW
HStem: -2 101<154 336> 286 103<219 330> 530 103<11 93>
VStem: 94 125<100 275 379 530> 356 128<118 259>
LayerCount: 2
Fore
SplineSet
271 286 m 0
 244 286 218 275 218 275 c 1
 217 159 216 137 216 100 c 1
 216 100 235 98 272 98 c 0
 329 98 356 116 356 200 c 0
 356 246 326 286 271 286 c 0
219 633 m 1
 219 594 219 555 219 516 c 0
 219 472 219 425 219 379 c 1
 219 379 248 388 279 388 c 0
 406 388 484 337 484 192 c 0
 484 46 409 -2 288 -2 c 0
 242 -2 147 0 90 0 c 1
 90 95 94 197 94 400 c 0
 94 453 93 485 93 530 c 1
 11 530 l 1
 11 633 l 1
 186 633 l 2
 193 633 204 633 219 633 c 1
EndSplineSet
EndChar
StartChar: afii10045
Encoding: 1067 1067 788
Width: 517
Flags: HW
HStem: -2 103<141 202> 300 103<144 255> 623 10G<24 144 372 490>
VStem: 25 119<102 296 394 633> 211 126<104 297> 371 119<0 633>
AnchorPoint: "above_accent" 252 646 basechar 0
LayerCount: 2
Fore
SplineSet
371 0 m 1
 372 633 l 1
 490 633 l 1
 490 0 l 1
 371 0 l 1
165 300 m 0
 152 300 143 296 143 296 c 1
 142 180 141 139 141 102 c 1
 141 102 155 100 165 100 c 0
 203 100 211 110 211 200 c 0
 211 294 203 300 165 300 c 0
24 633 m 1
 26 633 34 633 44 633 c 0
 64 633 134 633 144 633 c 1
 144 594 144 555 144 516 c 0
 144 472 144 440 144 394 c 1
 182 401 179 403 210 403 c 0
 298 403 337 337 337 192 c 0
 337 56 296 -2 175 -2 c 0
 129 -2 78 0 21 0 c 1
 21 95 25 197 25 400 c 0
 25 453 24 588 24 633 c 1
EndSplineSet
EndChar
StartChar: afii10046
Encoding: 1068 1068 789
Width: 517
Flags: HW
HStem: -2 101<128 327> 304 103<192 329> 625 10G<66 192>
VStem: 67 125<101 295 397 635> 354 127<127 278>
LayerCount: 2
Fore
SplineSet
236 304 m 0
 209 304 191 295 191 295 c 1
 190 179 189 138 189 101 c 1
 189 101 209 99 233 99 c 0
 321 99 354 121 354 200 c 0
 354 283 329 304 236 304 c 0
66 635 m 1
 68 635 77 635 87 635 c 0
 107 635 182 635 192 635 c 1
 192 596 192 557 192 517 c 0
 192 472 192 443 192 397 c 1
 192 397 226 406 260 406 c 0
 422 406 481 337 481 192 c 0
 481 39 365 -2 244 -2 c 0
 198 -2 120 0 63 0 c 1
 63 95 67 197 67 400 c 0
 67 453 66 590 66 635 c 1
EndSplineSet
EndChar
StartChar: afii10047
Encoding: 1069 1069 790
Width: 517
Flags: HW
HStem: -6 103<129 283> 271 103<130 348> 545 103<137 284>
VStem: 349 127<174 266 366 458>
LayerCount: 2
Fore
SplineSet
96 155 m 1
 118 117 148 96 219 96 c 0
 283 96 349 158 349 263 c 1
 316 270 246 271 130 271 c 1
 130 373 l 1
 254 373 326 369 349 366 c 1
 349 481 291 545 218 545 c 0
 150 545 130 525 111 486 c 1
 1 555 l 1
 33 599 96 647 222 647 c 0
 300 647 477 600 477 310 c 0
 477 137 384 -6 216 -6 c 0
 98 -6 38 33 -2 82 c 1
 96 155 l 1
EndSplineSet
EndChar
StartChar: afii10048
Encoding: 1070 1070 791
Width: 517
Flags: HW
HStem: -6 103<306 361> 545 103<307 362> 623 10G<23 140>
VStem: 22 118<0 276 384 633> 174 120<105 276 384 535> 373 120<102 539>
LayerCount: 2
Fore
SplineSet
333 96 m 0xdc
 367 96 373 123 373 316 c 0
 373 510 368 545 336 545 c 0
 300 545 293 520 293 313 c 0
 293 113 302 96 333 96 c 0xdc
338 647 m 0
 465 647 493 540 493 311 c 1
 493 82 464 -6 332 -6 c 0
 217 -6 179 77 174 276 c 1
 140 276 l 1
 140 193 140 83 140 0 c 1
 22 0 l 1
 23 633 l 1
 140 633 l 1xbc
 140 384 l 1
 172 384 l 1
 178 515 194 647 338 647 c 0
EndSplineSet
EndChar
StartChar: afii10049
Encoding: 1071 1071 792
Width: 517
Flags: HW
HStem: 0 10G<56 73 326 451> 534 103<215 327>
VStem: 61 127<375 510> 326 125<0 260 362 533>
LayerCount: 2
Fore
SplineSet
165 264 m 1
 86 296 61 357 61 449 c 0
 61 611 184 636 347 636 c 0
 377 636 433 631 454 629 c 1
 452 599 451 576 451 543 c 2
 451 0 l 1
 326 0 l 1
 326 260 l 1
 326 260 310 255 303 255 c 1
 276 209 190 85 143 33 c 1
 117 7 85 -8 62 -14 c 1
 -4 106 l 1
 19 107 47 121 63 137 c 1
 100 171 127 204 165 264 c 1
188 442 m 0
 188 393 210 357 252 357 c 0
 283 357 298 359 326 369 c 1
 327 533 l 1
 313 533 309 534 296 534 c 0
 213 534 188 508 188 442 c 0
EndSplineSet
EndChar
StartChar: afii10066
Encoding: 1073 1073 794
Width: 517
Flags: HW
HStem: -7 103<199 308> 378 103<193 311>
VStem: 27 127<147 416 442 495> 338 127<123 350>
LayerCount: 2
Fore
SplineSet
338 241 m 0
 338 347 312 378 256 378 c 0
 210 378 154 354 154 246 c 0
 154 135 204 96 254 96 c 1
 319 96 338 136 338 241 c 0
154 442 m 1
 180 472 216 481 275 481 c 0
 379 481 465 416 465 246 c 0
 465 76 390 -7 254 -7 c 2
 253 -7 l 1
 120 -7 27 43 27 315 c 0
 27 545 94 648 237 662 c 0
 339 672 349 686 383 714 c 1
 471 613 l 1
 440 590 396 570 279 562 c 0
 172 555 157 507 154 442 c 1
EndSplineSet
EndChar
StartChar: afii10067
Encoding: 1074 1074 795
Width: 517
Flags: HW
HStem: -2 103<183 323> 207 100<186 293> 403 103<153 295>
VStem: 61 124<104 206 306 401> 301 127<314 394> 338 127<114 193>
LayerCount: 2
Fore
SplineSet
61 309 m 0xf4
 61 393 59 435 55 497 c 1
 95 500 125 505 180 505 c 0
 356 505 428 471 428 380 c 0xf8
 428 300 384 281 359 267 c 1
 390 258 466 230 466 132 c 0
 466 53 420 -2 244 -2 c 0
 241 -2 237 -2 234 -2 c 0
 141 -2 115 -2 57 0 c 1
 57 95 61 106 61 309 c 0xf4
301 366 m 0
 301 388 283 403 227 403 c 0
 208 403 200 401 185 400 c 1
 186 306 l 1
 197 306 208 306 220 306 c 0
 280 306 301 310 301 366 c 0
230 207 m 0
 216 207 185 206 185 206 c 1
 185 206 183 141 183 104 c 1
 183 104 199 100 236 100 c 0
 318 100 338 122 338 149 c 0xf4
 338 194 306 207 230 207 c 0
EndSplineSet
EndChar
StartChar: afii10068
Encoding: 1075 1075 796
Width: 517
Flags: HW
HStem: 0 10G<106 231> 396 103<231 423>
VStem: 106 125<0 396>
AnchorPoint: "above_accent" 278 541 basechar 0
LayerCount: 2
Fore
SplineSet
106 498 m 1
 386 498 l 2
 423 498 446 495 469 487 c 1
 423 377 l 1
 408 388 386 396 373 396 c 1
 231 396 l 1
 231 0 l 1
 106 0 l 1
 106 498 l 1
EndSplineSet
EndChar
StartChar: afii10069
Encoding: 1076 1076 797
Width: 517
Flags: HW
HStem: -1 101<170 299> 396 101<228 298>
VStem: 11 112<-149 -3> 103 125<210 396> 299 124<100 396> 368 112<-152 -1>
LayerCount: 2
Fore
SplineSet
298 396 m 1xd8
 228 396 l 1
 228 284 204 173 170 99 c 1
 299 100 l 1
 298 396 l 1xd8
480 -153 m 1xc4
 368 -152 l 1
 369 -1 l 1
 331 -1 124 -3 124 -3 c 1
 124 -5 124 -9 124 -11 c 0
 124 -63 132 -149 132 -149 c 1
 21 -157 l 1
 16 -113 11 -29 11 26 c 0xe4
 11 43 10 85 10 100 c 1
 33 100 l 1
 93 196 103 266 103 460 c 0
 103 471 103 483 103 495 c 1
 103 495 246 497 318 497 c 3
 354 497 423 497 423 497 c 1
 423 100 l 1xd8
 480 100 l 1
 480 -153 l 1xc4
EndSplineSet
EndChar
StartChar: afii10072
Encoding: 1078 1078 799
Width: 517
Flags: HW
HStem: -2 4G<42 119 196 314 386 460> 220 72<183 196 314 333> 498 1G<91 144 196 314 374 420>
VStem: -8 120<8 75> 196 119<-2 220 292 498> 394 120<8 76>
AnchorPoint: "above_accent" 251 541 basechar 0
LayerCount: 2
Fore
SplineSet
325 292 m 1
 364 376 353 408 395 509 c 1
 518 462 l 1
 460 368 442 293 416 262 c 1
 470 193 487 77 513 9 c 1
 394 -9 l 1
 380 48 364 146 327 220 c 1
 314 220 l 1
 314 -2 l 1
 196 -2 l 1
 196 220 l 1
 186 220 l 1
 148 140 126 49 112 -8 c 1
 -8 9 l 1
 18 77 31 193 89 257 c 1
 68 288 61 377 -0 465 c 1
 117 510 l 1
 170 408 163 375 188 292 c 1
 196 292 l 1
 196 498 l 1
 314 498 l 1
 314 292 l 1
 325 292 l 1
EndSplineSet
EndChar
StartChar: afii10073
Encoding: 1079 1079 800
Width: 517
Flags: HW
HStem: -2 100<106 301> 224 99<147 293> 401 99<103 311>
VStem: 317 130<116 202 346 393>
LayerCount: 2
Fore
SplineSet
-9 67 m 1
 49 156 l 1
 74 134 124 98 206 98 c 0
 294 98 317 125 317 149 c 0
 317 204 284 224 186 224 c 0
 173 224 160 224 147 224 c 1
 147 323 l 1
 156 323 l 1
 159 323 l 1
 162 323 l 2
 210 323 317 335 317 370 c 0
 317 395 281 401 225 401 c 0
 154 401 91 377 79 370 c 1
 42 464 l 1
 51 470 106 500 220 500 c 2
 226 500 l 2
 334 500 448 475 448 385 c 0
 448 337 420 291 345 283 c 1
 419 265 447 210 447 147 c 0
 447 115 427 66 389 36 c 0
 352 7 307 -2 218 -2 c 0
 109 -2 26 41 -9 67 c 1
EndSplineSet
EndChar
StartChar: afii10074
Encoding: 1080 1080 801
Width: 517
Flags: HW
HStem: -3 10G<58 188 331 455> 488 8G<58 183 312 452>
VStem: 58 125<0 46 199 497> 328 123<-3 305>
AnchorPoint: "above_accent" 246 541 basechar 0
LayerCount: 2
Fore
SplineSet
317 498 m 1
 452 498 l 1
 452 498 451 318 451 205 c 0
 451 125 452 52 455 -3 c 1
 333 -3 l 1
 330 56 328 90 328 136 c 1
 328 181 343 305 343 305 c 1
 218 87 204 50 188 0 c 1
 58 -3 l 1
 58 497 l 1
 183 497 l 1
 183 370 l 2
 183 345 179 246 172 196 c 1
 291 397 307 434 317 498 c 1
EndSplineSet
EndChar
StartChar: afii10076
Encoding: 1082 1082 803
Width: 517
VWidth: 0
Flags: HW
HStem: -1 1G<68 194 357 393> 488 10G<68 194 365 404>
VStem: 68 125<0 148 299 498>
AnchorPoint: "above_accent" 247 541 basechar 0
LayerCount: 2
Fore
SplineSet
320 266 m 1
 379 208 460 107 496 46 c 1
 372 -12 l 1
 343 44 297 125 240 191 c 1
 194 148 l 1
 194 0 l 1
 68 0 l 1
 68 498 l 1
 194 498 l 1
 194 299 l 1
 263 380 339 461 391 510 c 1
 497 431 l 1
 439 385 382 328 320 266 c 1
EndSplineSet
EndChar
StartChar: afii10077
Encoding: 1083 1083 804
Width: 517
Flags: HW
HStem: -9 104<18 83> 0 10G<314 441> 396 103<235 316>
VStem: 110 125<213 396> 316 125<0 346 346 396>
LayerCount: 2
Fore
SplineSet
3 -2 m 1xb8
 18 124 l 1
 31 110 47 95 62 95 c 0xb8
 88 95 110 122 110 499 c 1
 283 500 l 2
 300 500 326 500 341 500 c 0
 379 500 414 500 441 498 c 1
 441 287 441 211 441 0 c 1
 314 0 l 1x78
 314 84 316 346 316 346 c 1
 316 396 l 1
 235 396 l 1
 220 47 181 -9 45 -9 c 0
 35 -9 18 -7 3 -2 c 1xb8
EndSplineSet
EndChar
StartChar: afii10078
Encoding: 1084 1084 805
Width: 517
Flags: HW
HStem: -2 10G<30 149 339 458> 489 9G<29 165 313 458>
VStem: 30 119<-2 319> 339 120<-2 313>
LayerCount: 2
Fore
SplineSet
29 499 m 1
 165 498 l 1
 190 451 250 317 250 317 c 1
 250 317 302 455 323 498 c 1
 458 498 l 1
 458 -2 l 1
 339 -2 l 1
 339 162 l 2
 339 219 346 272 353 315 c 1
 333 294 281 192 277 174 c 1
 211 173 l 1
 211 173 173 272 135 321 c 1
 143 269 149 219 149 164 c 2
 149 -2 l 1
 30 -2 l 1
 29 499 l 1
EndSplineSet
EndChar
StartChar: afii10079
Encoding: 1085 1085 806
Width: 517
Flags: HW
HStem: 0 10G<56 182 313 438> 207 103<183 313> 491 7G<56 182 312 438>
VStem: 56 125<0 201 299 500> 313 125<0 207 310 498>
LayerCount: 2
Fore
SplineSet
182 500 m 1
 181 299 l 1
 220 308 241 310 285 310 c 2
 313 310 l 1
 313 444 312 419 312 498 c 1
 438 498 l 1
 438 0 l 1
 313 0 l 1
 313 207 l 1
 286 207 l 0
 251 207 212 204 181 196 c 1
 181 29 182 88 182 0 c 1
 56 0 l 1
 56 500 l 1
 182 500 l 1
EndSplineSet
EndChar
StartChar: afii10081
Encoding: 1087 1087 808
Width: 517
Flags: HW
HStem: -2 10G<63 188 310 437> 396 103<188 309>
VStem: 63 125<-2 396> 310 127<-2 396>
LayerCount: 2
Fore
SplineSet
188 396 m 1
 188 -2 l 1
 63 -2 l 1
 62 499 l 1
 309 498 l 1
 436 498 l 1
 437 -2 l 1
 310 -2 l 1
 309 396 l 1
 188 396 l 1
EndSplineSet
EndChar
StartChar: afii10084
Encoding: 1090 1090 811
Width: 517
VWidth: 0
Flags: HW
HStem: -4 10G<178 303> 396 103<25 178 303 448>
VStem: 178 125<-4 396>
LayerCount: 2
Fore
SplineSet
178 -4 m 1
 178 396 l 1
 81 396 62 395 25 395 c 1
 25 498 l 1
 85 498 306 498 398 498 c 0
 434 498 459 496 468 495 c 1
 448 382 l 1
 448 382 418 396 376 396 c 2
 303 396 l 1
 303 -4 l 1
 178 -4 l 1
EndSplineSet
EndChar
StartChar: afii10085
Encoding: 1091 1091 812
Width: 517
VWidth: 6
Flags: HW
HStem: -183 102<52 195> 367 128<28 100>
VStem: 350 125<276 495>
AnchorPoint: "above_accent" 243 541 basechar 0
LayerCount: 2
Fore
SplineSet
41 -54 m 1
 69 -70 99 -82 138 -82 c 0
 198 -82 246 -12 259 47 c 1
 127 345 96 367 49 367 c 3
 39 367 33 366 28 366 c 1
 27 494 l 1
 27 494 47 495 64 495 c 3
 158 495 190 439 321 159 c 1
 346 299 350 359 350 495 c 1
 475 495 l 1
 475 466 474 424 467 365 c 0
 449 207 386 0 323 -85 c 0
 271 -155 211 -183 125 -183 c 1
 59 -183 19 -170 19 -170 c 1
 41 -54 l 1
EndSplineSet
EndChar
StartChar: afii10086
Encoding: 1092 1092 813
Width: 517
Flags: HW
HStem: -3 103<108 191 311 353> 396 103<150 189 312 351> 633 10G<188 311>
VStem: 23 118<102 394> 191 120<-191 4 116 368 481 638> 359 118<102 392>
LayerCount: 2
Fore
SplineSet
191 481 m 1
 191 546 l 2
 191 558 191 570 191 582 c 0
 191 604 191 624 188 638 c 1
 311 643 l 2
 311 643 311 638 311 633 c 0
 311 624 311 609 311 598 c 2
 311 478 l 1
 311 478 330 499 354 499 c 0
 355 499 356 499 357 499 c 0
 444 499 477 449 477 267 c 0
 477 29 413 -3 346 -3 c 0
 316 -3 311 4 311 4 c 1
 311 -74 l 2
 311 -120 316 -160 319 -193 c 1
 198 -197 l 1
 194 -161 191 -115 191 -71 c 2
 191 5 l 1
 191 5 182 -3 148 -3 c 0
 68 -3 23 29 23 267 c 0
 23 445 66 499 155 499 c 0
 174 499 191 481 191 481 c 1
141 256 m 0
 141 115 148 99 167 99 c 0
 185 99 191 115 191 115 c 1
 191 186 191 298 191 369 c 1
 191 369 182 396 171 396 c 0
 150 396 141 385 141 256 c 0
359 257 m 0
 359 378 350 396 329 396 c 0
 314 396 311 368 311 368 c 1
 311 116 l 1
 311 116 320 99 336 99 c 0
 352 99 359 110 359 257 c 0
EndSplineSet
EndChar
StartChar: afii10088
Encoding: 1094 1094 815
Width: 517
Flags: HW
HStem: -1 103<176 291> 488 10G<53 176 292 417>
VStem: 51 125<102 498> 291 125<106 498> 375 112<-143 0>
LayerCount: 2
Fore
SplineSet
176 102 m 1xe8
 291 102 l 1
 292 498 l 1
 417 498 l 1
 416 106 l 1xf0
 489 106 l 1
 489 91 488 76 488 59 c 0
 488 4 491 -104 507 -146 c 1
 399 -162 l 1
 383 -119 376 -54 375 0 c 1
 339 -0 l 1
 51 -1 l 1
 53 498 l 1
 176 498 l 1
 176 102 l 1xe8
EndSplineSet
EndChar
StartChar: afii10089
Encoding: 1095 1095 816
Width: 517
Flags: HW
HStem: 0 10G<317 442> 153 103<198 316> 488 10G<56 181 318 443>
VStem: 56 125<272 498> 317 125<0 170 263 498>
AnchorPoint: "above_accent" 241 541 basechar 0
LayerCount: 2
Fore
SplineSet
443 498 m 1
 443 287 442 211 442 0 c 1
 317 0 l 1
 317 85 l 2
 317 125 329 170 329 170 c 1
 309 161 275 153 239 153 c 0
 83 153 56 236 56 421 c 2
 56 498 l 1
 181 498 l 1
 181 416 l 2
 181 272 196 256 249 256 c 0
 273 256 290 259 317 271 c 1
 318 498 l 1
 443 498 l 1
EndSplineSet
EndChar
StartChar: afii10090
Encoding: 1096 1096 817
Width: 517
Flags: HW
HStem: 0 103<136 188 308 359> 485 10G<18 136 189 308 360 479>
VStem: 17 119<103 495> 188 119<103 495> 359 119<103 495>
LayerCount: 2
Fore
SplineSet
136 103 m 1
 188 103 l 1
 189 495 l 1
 308 495 l 1
 308 103 l 1
 359 103 l 1
 360 495 l 1
 479 495 l 1
 478 0 l 1
 402 0 l 1
 17 -0 l 1
 18 495 l 1
 136 495 l 1
 136 103 l 1
EndSplineSet
EndChar
StartChar: afii10091
Encoding: 1097 1097 818
Width: 517
Flags: HW
HStem: 0 103<131 176 290 334> 485 10G<18 131 177 290 335 449>
VStem: 16 115<103 495> 176 113<103 495> 334 115<107 495> 386 112<-145 0>
LayerCount: 2
Fore
SplineSet
131 103 m 1xf4
 176 103 l 1
 177 495 l 1
 290 495 l 1
 290 103 l 1
 334 103 l 1
 335 495 l 1
 449 495 l 1
 449 107 l 1xf8
 499 107 l 1
 499 107 499 39 499 18 c 0
 499 -39 507 -106 517 -147 c 1
 406 -161 l 1
 396 -124 386 -67 386 0 c 1
 372 0 l 1
 16 -0 l 1
 18 495 l 1
 131 495 l 1
 131 103 l 1xf4
EndSplineSet
EndChar
StartChar: afii10092
Encoding: 1098 1098 819
Width: 517
VWidth: 0
Flags: HW
HStem: -2 101<154 346> 212 103<219 342> 392 103<11 93>
VStem: 93 126<100 202 306 392> 356 128<112 198>
LayerCount: 2
Fore
SplineSet
271 212 m 0
 244 212 218 202 218 202 c 1
 217 86 216 137 216 100 c 1
 216 100 235 98 272 98 c 0
 329 98 356 114 356 150 c 0
 356 196 326 212 271 212 c 0
219 495 m 1
 219 456 219 417 219 378 c 0
 219 334 219 352 219 306 c 1
 219 306 248 315 279 315 c 0
 406 315 484 277 484 142 c 0
 484 50 409 -2 288 -2 c 0
 242 -2 147 0 90 0 c 1
 90 54 93 334 93 392 c 1
 11 392 l 1
 11 495 l 1
 186 495 l 2
 193 495 204 495 219 495 c 1
EndSplineSet
EndChar
StartChar: afii10093
Encoding: 1099 1099 820
Width: 517
Flags: HW
HStem: -2 103<141 202> 217 103<144 255> 485 10G<24 144 372 490>
VStem: 24 117<102 212 311 495> 211 126<105 210> 371 119<0 495>
AnchorPoint: "above_accent" 245 541 basechar 0
LayerCount: 2
Fore
SplineSet
371 0 m 1
 372 495 l 1
 490 495 l 1
 490 0 l 1
 371 0 l 1
165 217 m 0
 152 217 143 212 143 212 c 1
 142 96 141 139 141 102 c 1
 141 102 155 100 165 100 c 0
 203 100 211 120 211 154 c 0
 211 190 203 217 165 217 c 0
24 495 m 1
 26 495 34 495 44 495 c 0
 64 495 134 495 144 495 c 1
 144 311 l 1
 182 318 179 319 210 319 c 0
 298 319 337 268 337 146 c 0
 337 42 296 -2 175 -2 c 0
 129 -2 81 0 24 0 c 1
 24 95 25 197 25 400 c 0
 25 453 24 450 24 495 c 1
EndSplineSet
EndChar
StartChar: afii10094
Encoding: 1100 1100 821
Width: 517
Flags: HW
HStem: -2 101<128 338> 232 103<192 329> 485 10G<66 192>
VStem: 67 124<101 224 326 495> 354 127<115 208>
LayerCount: 2
Fore
SplineSet
236 232 m 0
 209 232 191 224 191 224 c 1
 190 108 189 138 189 101 c 1
 189 101 209 99 233 99 c 0
 321 99 354 110 354 161 c 0
 354 201 329 232 236 232 c 0
66 495 m 1
 68 495 77 495 87 495 c 0
 107 495 182 495 192 495 c 1
 192 326 l 1
 192 326 226 335 260 335 c 0
 406 335 481 281 481 167 c 0
 481 32 415 -2 244 -2 c 0
 198 -2 120 0 63 0 c 1
 63 95 67 197 67 400 c 0
 67 453 66 450 66 495 c 1
EndSplineSet
EndChar
StartChar: afii10095
Encoding: 1101 1101 822
Width: 517
Flags: HW
HStem: -6 102<116 293> 204 103<155 334> 405 103<105 288>
VStem: 336 126<142 200 298 353>
AnchorPoint: "above_accent" 225 541 basechar 0
LayerCount: 2
Fore
SplineSet
82 146 m 1
 120 106 148 96 221 96 c 0
 306 96 336 159 336 200 c 1
 299 203 249 204 155 204 c 1
 155 306 l 1
 247 306 318 303 336 298 c 1
 336 341 297 405 223 405 c 0
 146 405 118 400 83 364 c 1
 31 465 l 1
 90 505 152 507 226 507 c 1
 286 507 462 492 462 246 c 0
 462 62 372 -6 221 -6 c 0
 135 -6 86 2 25 41 c 1
 82 146 l 1
EndSplineSet
EndChar
StartChar: afii10096
Encoding: 1102 1102 823
Width: 517
Flags: HW
HStem: -6 102<304 355> 403 103<309 355>
VStem: 20 120<0 207 309 499> 172 120<101 207 309 390> 368 120<104 396>
LayerCount: 2
Fore
SplineSet
328 96 m 0
 354 96 368 125 368 233 c 0
 368 370 357 403 333 403 c 0
 307 403 292 364 292 230 c 0
 292 131 302 96 328 96 c 0
336 505 m 0
 436 505 488 427 488 233 c 1
 488 57 429 -6 320 -6 c 0
 234 -6 183 70 172 207 c 1
 140 207 l 1
 140 124 140 83 140 0 c 1
 20 0 l 1
 21 499 l 1
 141 499 l 1
 141 309 l 1
 175 309 l 1
 193 452 238 505 336 505 c 0
EndSplineSet
EndChar
StartChar: afii10097
Encoding: 1103 1103 824
Width: 517
Flags: HW
HStem: 0 10G<325 449> 403 103<228 327>
VStem: 92 125<292 393> 326 123<0 198 288 399>
LayerCount: 2
Fore
SplineSet
159 212 m 1
 141 221 92 259 92 346 c 0
 92 467 172 505 325 505 c 0
 355 505 430 500 451 498 c 1
 449 468 449 446 449 413 c 2
 449 0 l 1
 325 0 l 1
 326 198 l 1
 316 192 301 191 301 191 c 1
 274 146 158 22 99 -16 c 1
 7 85 l 1
 51 101 111 151 159 212 c 1
217 346 m 0
 217 316 230 284 264 284 c 0
 294 284 313 288 326 301 c 1
 327 399 l 1
 327 399 303 403 280 403 c 0
 241 403 217 388 217 346 c 0
EndSplineSet
EndChar
StartChar: afii10099
Encoding: 1106 1106 827
Width: 517
VWidth: 0
Flags: HW
HStem: -190 103<277 333> 0 10G<91 215> 238 105<230 335> 460 103<19 92 215 377> 662 10G<207 215>
VStem: 93 123<0 223 312 460 563 671> 348 127<-77 225>
LayerCount: 2
Fore
SplineSet
276 -82 m 1
 287 -86 297 -87 305 -87 c 0
 335 -87 348 -65 348 102 c 0
 348 120 348 138 348 158 c 0
 348 226 317 238 284 238 c 0
 245 238 223 218 214 188 c 1
 215 0 l 1
 91 0 l 1
 91 95 93 156 93 359 c 0
 93 381 93 406 93 460 c 1
 19 460 l 1
 19 563 l 1
 92 563 l 1
 92 613 92 653 92 671 c 1
 99 671 200 672 215 672 c 1
 215 645 215 608 215 563 c 1
 377 563 l 1
 377 460 l 1
 215 460 l 1
 215 312 l 1
 231 332 261 343 292 343 c 0
 412 343 476 290 476 150 c 0
 476 -107 446 -190 275 -190 c 1
 276 -82 l 1
EndSplineSet
EndChar
StartChar: afii10101
Encoding: 1108 1108 829
Width: 517
Flags: HW
HStem: -6 102<226 404> 204 103<186 365> 405 103<232 415>
VStem: 58 126<136 200 299 353>
LayerCount: 2
Fore
SplineSet
438 146 m 1
 495 41 l 1
 434 2 385 -6 299 -6 c 0
 148 -6 58 62 58 246 c 0
 58 492 234 507 294 507 c 1
 368 507 430 505 489 465 c 1
 437 364 l 1
 402 400 374 405 297 405 c 0
 223 405 184 342 184 299 c 1
 202 304 273 306 365 306 c 1
 365 204 l 1
 271 204 214 204 184 196 c 1
 184 155 214 96 299 96 c 0
 372 96 400 106 438 146 c 1
EndSplineSet
EndChar
StartChar: afii10106
Encoding: 1113 1113 834
Width: 517
Flags: HW
HStem: -14 10G<24 88> -2 103<336 388> 232 103<338 392> 394 103<182 223>
VStem: 67 114<217 394> 223 115<100 215 319 394> 396 116<106 231>
LayerCount: 2
Fore
SplineSet
366 232 m 0
 347 232 338 215 338 215 c 1
 337 99 336 139 336 102 c 1
 342 101 352 100 357 100 c 0
 378 100 396 115 396 165 c 0
 396 225 387 232 366 232 c 0
12 98 m 1
 14 96 18 95 20 95 c 0
 58 95 67 114 67 496 c 1
 218 497 l 2
 235 497 210 497 225 497 c 0
 263 497 312 497 339 495 c 1
 339 417 l 2
 339 369 330 319 330 319 c 1
 338 329 362 335 386 335 c 0
 454 335 512 298 512 157 c 0
 512 40 452 -2 345 -2 c 0
 299 -2 279 0 222 0 c 1
 222 94 223 117 223 319 c 2
 223 321 l 2
 223 357 223 339 223 394 c 1
 182 394 l 1
 167 14 151 -14 25 -14 c 0
 23 -14 12 -13 7 -12 c 1
 12 98 l 1
EndSplineSet
EndChar
StartChar: afii10107
Encoding: 1114 1114 835
Width: 517
Flags: HW
HStem: -2 103<336 387> 207 103<146 221> 232 103<338 392> 487 10G<29 147 221 240>
VStem: 29 117<0 207 310 494> 221 117<100 207 319 495> 396 116<106 231>
LayerCount: 2
Fore
SplineSet
366 232 m 0xbe
 347 232 338 215 338 215 c 1
 337 99 336 139 336 102 c 1
 342 101 352 100 357 100 c 0
 378 100 396 115 396 165 c 0
 396 225 387 232 366 232 c 0xbe
221 497 m 1
 259 497 311 497 338 495 c 1
 338 417 l 2
 338 366 330 319 330 319 c 1
 338 329 362 335 386 335 c 0xbe
 454 335 512 298 512 157 c 0
 512 40 452 -2 345 -2 c 0
 299 -2 277 0 220 0 c 1
 220 38 221 117 221 207 c 1
 146 207 l 1
 146 108 147 71 147 0 c 1
 29 0 l 1
 29 494 l 1
 147 495 l 1
 146 310 l 1
 221 310 l 1xde
 221 497 l 1
EndSplineSet
EndChar
StartChar: afii10108
Encoding: 1115 1115 836
Width: 517
VWidth: 0
Flags: HW
HStem: 0 10G<91 216 349 476> 233 110<248 338> 465 103<19 92 216 377> 662 10G<208 216>
VStem: 93 124<0 201 288 465 568 671> 349 126<0 221>
LayerCount: 2
Fore
SplineSet
476 0 m 1
 349 0 l 1
 349 0 349 19 349 45 c 0
 349 147 l 2
 349 214 332 233 300 233 c 0
 259 233 233 203 215 161 c 1
 215 129 216 0 216 0 c 1
 190 0 117 0 91 0 c 1
 91 95 93 156 93 359 c 0
 93 381 93 411 93 465 c 1
 19 465 l 1
 19 568 l 1
 92 568 l 1
 92 618 92 653 92 671 c 1
 99 671 201 672 216 672 c 1
 216 645 216 613 216 568 c 1
 377 568 l 1
 377 465 l 1
 216 465 l 1
 216 375 l 0
 216 329 214 312 209 287 c 1
 231 320 260 343 316 343 c 0
 406 343 476 286 476 179 c 2
 476 179 476 53 476 0 c 1
EndSplineSet
EndChar
StartChar: afii10193
Encoding: 1119 1119 840
Width: 517
Flags: HW
HStem: 0 103<170 194 307 330> 485 10G<47 170 331 455>
VStem: 46 125<103 495> 194 112<-155 0> 330 125<103 495>
LayerCount: 2
Fore
SplineSet
170 103 m 1
 330 103 l 1
 331 495 l 1
 455 495 l 1
 454 77 l 1
 454 0 l 1
 307 0 l 0
 307 -155 l 1
 194 -155 l 1
 194 0 l 1
 142 0 98 0 46 -0 c 1
 47 495 l 1
 170 495 l 1
 170 103 l 1
EndSplineSet
EndChar
StartChar: uni0460
Encoding: 1120 1120 841
Width: 517
VWidth: 2
Flags: HW
HStem: -6 104<149 192 311 358> 662 10G<55 103 417 468>
VStem: 16 113<112 527> 196 112<98 430> 382 117<126 548>
LayerCount: 2
Back
SplineSet
211.9140625 424.8046875 m 1
 289.55078125 434.08203125 l 1
 288.57421875 392.578125 289.0625 346.6796875 288.57421875 301.26953125 c 0
 289.0625 297.36328125 289.0625 202.1484375 289.0625 197.75390625 c 0
 290.0390625 109.375 314.453125 70.3125 354.00390625 70.3125 c 0
 399.90234375 70.3125 411.1328125 259.27734375 411.1328125 332.51953125 c 0
 411.1328125 436.5234375 375 569.82421875 333.49609375 634.27734375 c 1
 407.71484375 666.50390625 l 1
 460.44921875 578.125 487.79296875 411.62109375 487.79296875 342.7734375 c 0
 487.79296875 233.88671875 487.79296875 -5.859375 344.23828125 -5.859375 c 0
 307.6171875 -5.859375 272.94921875 16.11328125 250 50.78125 c 1
 225.5859375 16.6015625 191.89453125 -4.8828125 154.78515625 -4.8828125 c 0
 24.90234375 -4.8828125 17.08984375 165.0390625 17.08984375 280.76171875 c 0
 17.08984375 296.875 17.08984375 312.01171875 17.08984375 325.1953125 c 0
 17.08984375 407.2265625 42.48046875 575.68359375 96.19140625 665.0390625 c 1
 170.41015625 632.8125 l 1
 130.859375 570.80078125 96.19140625 437.98828125 96.19140625 336.9140625 c 0
 96.19140625 322.75390625 96.19140625 305.6640625 96.19140625 287.109375 c 0
 96.19140625 196.77734375 100.5859375 70.80078125 151.3671875 70.80078125 c 0
 185.546875 70.80078125 207.51953125 95.703125 213.8671875 156.73828125 c 1
 213.37890625 164.55078125 212.890625 262.6953125 212.890625 270.5078125 c 0
 212.40234375 322.265625 212.890625 375.9765625 211.9140625 424.8046875 c 1
EndSplineSet
Fore
SplineSet
195 430 m 1
 308 439 l 1
 308 198 l 0
 309 110 311 98 325 98 c 0
 363 98 382 154 382 290 c 0
 382 454 371 563 329 627 c 1
 442 672 l 1
 495 584 500 461 500 300 c 0
 500 139 467 -6 347 -6 c 0
 291 -6 267 10 255 51 c 1
 241 16 225 -5 160 -5 c 0
 50 -5 16 116 16 283 c 0
 16 454 28 583 82 672 c 1
 190 623 l 1
 150 561 129 468 129 294 c 0
 129 133 148 96 174 96 c 0
 195 96 196 140 196 193 c 0
 195 430 l 1
EndSplineSet
EndChar
StartChar: afii10194
Encoding: 1123 1123 844
Width: 517
Flags: HW
HStem: -2 101<170 345> 232 103<235 339> 417 103<17 109 235 393> 662 10G<109 234>
VStem: 110 125<101 224 326 417 519 672> 354 127<109 217>
LayerCount: 2
Fore
SplineSet
109 672 m 1
 111 672 119 672 129 672 c 0
 149 672 224 672 234 672 c 1
 234 519 l 1
 393 519 l 1
 393 417 l 1
 235 417 l 1
 235 326 l 1
 235 326 268 335 302 335 c 0
 421 335 481 281 481 167 c 0
 481 32 423 -2 287 -2 c 0
 241 -2 162 0 105 0 c 1
 105 71 108 248 109 417 c 1
 17 417 l 1
 17 519 l 1
 110 519 l 1
 110 539 110 559 110 578 c 0
 110 631 109 627 109 672 c 1
278 232 m 0
 251 232 234 224 234 224 c 1
 233 108 232 138 232 101 c 1
 232 101 252 99 276 99 c 0
 335 99 354 110 354 161 c 0
 354 201 337 232 278 232 c 0
EndSplineSet
EndChar
StartChar: afii10195
Encoding: 1139 1139 846
Width: 517
VWidth: 0
Flags: HW
HStem: -8 99<185 302> 201 108<152 348> 408 99<191 308>
VStem: 18 128<136 194 303 353> 349 129<141 201 310 365>
LayerCount: 2
Fore
SplineSet
249 91 m 0
 302 91 342 142 349 201 c 1
 342 201 333 201 325 201 c 0
 283 201 232 200 146 193 c 1
 155 128 192 91 249 91 c 0
255 507 m 1
 401 507 478 417 478 246 c 1
 478 241 l 2
 478 96 375 -8 249 -8 c 0
 105 -8 18 93 18 246 c 0
 18 391 90 504 255 507 c 1
348 310 m 1
 339 372 297 408 254 408 c 0
 198 408 160 370 149 303 c 1
 214 309 271 310 319 310 c 0
 329 310 339 310 348 310 c 1
EndSplineSet
EndChar
StartChar: afii10148
Encoding: 1140 1140 847
Width: 517
Flags: HW
HStem: 0 10G<131 290> 554 103<412 496>
LayerCount: 2
Fore
SplineSet
137 0 m 1
 125 96 48 507 2 618 c 1
 117 662 l 1
 160 520 192 370 213 162 c 1
 238 342 250 383 286 526 c 1
 310 617 356 657 438 657 c 0
 473 657 491 654 520 647 c 1
 491 536 l 1
 483 546 468 554 442 554 c 0
 427 554 408 553 383 451 c 0
 350 320 297 86 284 0 c 1
 137 0 l 1
EndSplineSet
EndChar
StartChar: afii10196
Encoding: 1141 1141 848
Width: 517
Flags: HW
HStem: 0 10G<131 293> 403 103<413 493>
VStem: 137 147<0 76>
LayerCount: 2
Fore
SplineSet
137 0 m 1
 125 96 48 357 2 468 c 1
 41 482 78 497 117 512 c 1
 160 370 195 262 216 162 c 1
 216 162 260 290 287 373 c 0
 322 477 354 506 436 506 c 0
 471 506 489 504 518 497 c 1
 488 385 l 1
 480 395 465 403 439 403 c 0
 424 403 408 388 378 300 c 0
 334 169 303 81 284 0 c 1
 137 0 l 1
EndSplineSet
EndChar
StartChar: uni048A
Encoding: 1162 1162 849
Width: 517
VWidth: 0
Flags: HW
HStem: -0 10G<35 171> 630 10G<37 156 306 450> 667 89<186 309>
VStem: 37 119<155 362 362 638> 326 114<-134 -70> 329 120<105 391 565 639>
LayerCount: 2
Fore
SplineSet
330 640 m 1xf4
 450 639 l 1
 450 613 450 579 450 551 c 0
 450 439 448 315 448 205 c 0
 448 105 l 1xf4
 518 103 l 1
 481 15 451 -101 440 -145 c 1
 326 -133 l 1xf8
 332 -112 353 -54 374 0 c 1
 333 0 l 1
 329 83 329 146 329 237 c 0
 329 290 345 391 345 391 c 1
 288 270 208 82 171 0 c 1
 35 -0 l 1
 37 638 l 1
 156 640 l 1
 156 566 156 362 156 362 c 2
 156 267 137 155 137 155 c 1
 195 300 283 460 330 640 c 1xf4
EndSplineSet
Refer: 328 774 N 1 0 0 1 -3 105 2
EndChar
StartChar: uni048B
Encoding: 1163 1163 850
Width: 517
Flags: HW
HStem: -3 10G<58 188> 488 8G<58 183 312 452> 562 89<189 312>
VStem: 58 125<0 46 199 497> 326 114<-134 -70> 328 123<105 305>
LayerCount: 2
Fore
SplineSet
317 498 m 1xf4
 452 498 l 1
 452 498 451 318 451 205 c 0xf4
 451 170 451 136 451 105 c 1
 518 103 l 1
 481 15 451 -101 440 -145 c 1
 326 -133 l 1xf8
 332 -112 352 -56 373 -3 c 1
 333 -3 l 1
 330 56 328 90 328 136 c 0
 328 181 343 305 343 305 c 1
 218 87 204 50 188 0 c 1
 58 -3 l 1
 58 497 l 1
 183 497 l 1
 183 370 l 2
 183 345 179 246 172 196 c 1
 291 397 307 434 317 498 c 1xf4
EndSplineSet
Refer: 328 774 N 1 0 0 1 -0 0 2
EndChar
StartChar: uni048C
Encoding: 1164 1164 851
Width: 517
Flags: HW
HStem: 0 104<206 327> 297 103<208 322> 476 103<17 83 209 287> 629 10G<179 207>
VStem: 86 122<101 296 399 476 578 633> 349 127<125 273>
LayerCount: 2
Fore
SplineSet
272 297 m 0
 254 297 226 297 208 296 c 1
 207 180 206 141 206 104 c 1
 226 102 233 100 270 100 c 0
 324 100 349 139 349 200 c 0
 349 253 330 297 272 297 c 0
209 476 m 1
 209 472 209 469 209 467 c 0
 209 434 208 435 208 399 c 1
 229 399 255 399 276 399 c 0
 407 399 477 327 477 192 c 0
 477 82 426 11 344 1 c 0
 325 -1 305 -2 286 -2 c 0
 244 -2 201 0 148 0 c 2
 82 0 l 1
 82 95 86 199 86 402 c 0
 86 427 85 452 85 476 c 1
 17 476 l 1
 17 578 l 1
 83 578 l 1
 82 598 81 617 80 634 c 1
 120 637 152 639 207 639 c 1
 207 632 208 607 208 578 c 1
 287 578 l 1
 287 476 l 1
 209 476 l 1
EndSplineSet
EndChar
